<?xml version="1.0" encoding="UTF-8"?>
<svg id="Layer_1" data-name="Layer 1" xmlns="http://www.w3.org/2000/svg" viewBox="0 0 100 100">
  <defs>
    <style>
      .cls-1 {
        fill: #979797;
      }

      .cls-2 {
        fill: #5f6060;
      }

      .cls-3 {
        fill: #dbdbdb;
      }

      .cls-4 {
        fill: #8b8a8b;
      }

      .cls-5 {
        fill: #d8d8d8;
      }

      .cls-6 {
        fill: #d51428;
      }

      .cls-7 {
        fill: #0e0d0d;
      }

      .cls-8 {
        fill: #99002f;
      }

      .cls-9 {
        fill: #d0cfcf;
      }

      .cls-10 {
        fill: #020202;
      }

      .cls-11 {
        fill: #e81924;
      }

      .cls-12 {
        fill: #b4b4b4;
      }

      .cls-13 {
        fill: none;
        stroke: #979797;
        stroke-miterlimit: 10;
        stroke-width: 2px;
      }

      .cls-14 {
        fill: #d7d7d7;
      }

      .cls-15 {
        fill: #dadada;
      }

      .cls-16 {
        fill: #740124;
      }

      .cls-17 {
        fill: #140205;
      }

      .cls-18 {
        fill: #98002f;
      }

      .cls-19 {
        fill: #efdce3;
      }

      .cls-20 {
        fill: #050002;
      }

      .cls-21 {
        fill: #a31119;
      }

      .cls-22 {
        fill: #d8d8d9;
      }

      .cls-23 {
        fill: #a9a8a8;
      }

      .cls-24 {
        fill: #010101;
      }

      .cls-25 {
        fill: #b41224;
      }
    </style>
  </defs>
  <g>
    <path class="cls-24" d="m28.75,7.26c.85-.09,1.69-.18,2.54-.26l.45-.71c.64-.01,1.29.01,1.93-.07.23-.03.42-.31.63-.48.15-.15.29-.3.44-.46.83,0,1.67,0,2.5,0,0,.33,0,.67,0,1-.25.25-.49.49-.74.74-.17.17-.33.34-.5.5-.67.14-1.34.28-2.01.42-.2-.23-.4-.45-.6-.68-.13.42-.26.83-.39,1.25-1.79.92-3.59,1.83-5.36,2.77-.82.44-1.6.96-2.4,1.44-1.36.4-2.41,1.24-3.4,2.23-.77.76-1.71,1.36-2.57,2.04-.18.23-.35.47-.53.7-1.57.8-2.58,2.04-2.96,3.78-.7.71-1.56,1.33-2.06,2.15-1.49,2.43-3.14,4.82-3.57,7.75-.03.2-.05.51-.18.57-1.15.56-.59,1.6-.74,2.44-.11.62-.28,1.23-.48,1.83-.11.33-.47.61-.48.92-.04,1.37,0,2.74.02,4.11.17.75-.54,1.66.42,2.26,0,.15,0,.31,0,.46-.14.54-.5,1.14-.38,1.62.25,1,.74,1.94,1.14,2.91.03.24.05.49.08.73-.03.25-.06.51-.09.76l-.36.25c.12.08.24.17.36.25.03.08.06.16.07.24.04.17.09.34.13.51.54,1.48,1.08,2.96,1.63,4.44.23.6.47,1.2.72,1.79.29.69.43,1.54.93,2.03,4.05,3.98,7.68,8.42,12.51,11.53,1.33.85,2.75,1.66,4.24,2.14,1,.32,1.94.3,2.93,1.09.8.63,2.27.72,3.44,1.12,1.76.6,3.77.48,5.68.66.08.12.17.24.25.36.08-.12.17-.24.25-.36h5.5c.26.07.51.13.77.2.49-.01.99-.02,1.48-.03h1.1c.12-.33.24-.65.36-.97.1-.07.19-.13.29-.2.83.01,1.67.02,2.5.04.16.22.32.44.47.66.17-.24.35-.49.52-.73,0-.08,0-.16,0-.24.33-.25.67-.5,1-.75.63-.08,1.28-.12,1.9-.26.46-.1.9-.5,1.34-.48,2.06.07,3.67-1.18,5.26-2.07,2.12-1.18,3.93-2.96,5.74-4.62,1.99-1.82,3.81-3.83,5.76-5.69.7-.67,1.15-1.33,1.03-2.35-.04-.34.14-.87.4-1.06,1.33-.93,1.36-2.38,1.61-3.75l.46-.44c.17-.33.32-.68.5-1,.23-.41.48-.82.72-1.23.08-1.28.16-2.55.23-3.83l.74-1.34c.09.04.17.08.26.12,0-1.51,0-3.02,0-4.54v-2.99c-.06-.56-.02-1.15-.21-1.67-.52-1.44-1.33-2.79-1.66-4.26-.32-1.4.17-2.98-1.07-4.15-.08-.08-.03-.32-.01-.49.13-.95-.27-1.66-.96-2.28-.39-.35-.74-.79-.98-1.25-.91-1.8-1.55-3.76-3.29-5.02-.43-.31-.76-.76-1.14-1.15-2.59-2.67-5.09-5.47-8.87-6.51-.48-.26-.96-.53-1.44-.78-1.42-.74-2.33-2.62-4.37-1.96-.05.02-.16-.06-.21-.12-1.43-1.76-3.8-.62-5.5-1.81-.95-.67-2.31-.75-3.48-1.1-.16-.21-.32-.41-.49-.62-.09.21-.18.41-.26.62-.67-.08-1.33-.17-2-.25-.08-.12-.17-.24-.25-.36-.08.12-.17.24-.25.36-.38.09-.77.25-1.15.25-2.2.03-4.4.02-6.6.02,0-.23,0-.46,0-.7.3-.79.79-1.09,1.72-1.07,3.74.08,7.49.03,11.24.04.55,0,1.22-.18,1.33.72.01.12.44.25.68.26.71.03,1.41,0,2.12.01.25,0,.69-.03.71.05.45,1.47,1.94.57,2.71,1.2,1.1.91,2.55.66,3.73,1.27.59.31,1.17.61,1.76.92,1,.61,1.99,1.22,2.99,1.83.33.25.67.5,1,.74.67.42,1.33.84,2,1.26,2.34,2.33,4.67,4.66,7.01,6.99.33.41.66.83.99,1.24.6,1.63,1.18,3.26,2.57,4.44.22.19.4.52.44.81.21,1.68,1.04,3.06,1.8,4.53.51.97.29,2.31.47,3.47.08.5.38.96.53,1.45.18.57.42,1.16.43,1.74.04,2.95.05,5.9-.01,8.85-.01.5-.43.99-.66,1.48-.11-.03-.23-.07-.34-.1-.07,1.33-.14,2.66-.23,3.99-.01.19-.04.41-.14.57-.58.94-1.18,1.86-1.77,2.79-.06.1-.11.25-.08.35.52,1.5-.98,2.41-1.09,3.75-.03.32-.61.56-.81.91-.42.71-.76,1.46-1.13,2.2-.33.33-.66.65-.98.98-1.91,1.88-3.74,3.86-5.76,5.62-2.02,1.76-4.23,3.31-6.36,4.95-1.84.44-3.32,2-5.39,1.74-.12-.02-.28.15-.39.26-.61.63-1.25.95-2.2.76-.51-.1-1.32-.12-1.46.82-.02.14-.37.35-.56.33-1.09-.07-2.18-.19-3.02-.27-.38.51-.61.81-.84,1.11-3-.01-6-.03-9.01-.03-.17,0-.34.14-.51.21l-2.99-.27c-.07-.07-.13-.13-.2-.2.01-.55-.13-.92-.8-.71-.58,0-1.17,0-1.75,0-.25-.03-.5-.05-.75-.08-.23-.24-.47-.47-.7-.71-.58-.08-1.17-.12-1.73-.26-.54-.14-1.05-.4-1.57-.61.04-.14.07-.27.11-.41-1.31.06-2.65.27-3.61-.95-.06-.08-.32-.02-.48-.03-.24-.14-.48-.29-.73-.43-.51-.2-1.02-.39-1.53-.59-.41-.33-.82-.66-1.23-.98-.59-.34-1.18-.68-1.77-1.01-.67-.67-1.34-1.34-2.01-2.01-.09-.07-.18-.13-.27-.2-1.6-1.59-3.14-3.24-4.81-4.74-1.5-1.35-2.48-3.01-3.38-4.75-.07-.14-.02-.38-.11-.46-2.21-1.83-2-4.9-3.61-7.05-.36-.48-.24-1.33-.35-2,.01-.62.11-1.26,0-1.86-.06-.34-.46-.62-.7-.92-.1-.66-.2-1.31-.3-1.97v-8c.03-.58.06-1.17.09-1.75.06-.06.13-.13.19-.19.25-.25.69-.49.72-.76.08-.93,0-1.86,0-2.8.03-.33.06-.67.09-1,.16-.15.31-.3.47-.46l-.03-.09c.07-.07.14-.13.21-.2l1.09-2.24.17-.76c.12-.5.23-1,.35-1.51.06-.06.13-.13.19-.19.74-1.14,1.47-2.28,2.21-3.41.53-.8.99-1.67,1.65-2.35,2.54-2.62,5.15-5.18,7.75-7.75.25-.25.59-.39.89-.58.34-.15.68-.3,1.01-.46.75-.49,1.49-.97,2.24-1.46.09.11.17.22.26.33.04-.2.08-.39.12-.59.61-.27,1.23-.53,1.84-.8.09-.06.18-.13.28-.19.1-.1.2-.2.29-.3.07-.07.14-.14.21-.21.09-.09.17-.18.26-.27Z"/>
    <path class="cls-24" d="m7.76,30.29c-.16.15-.31.3-.47.46.16-.15.31-.3.47-.46Z"/>
    <path class="cls-24" d="m25.88,9.04c-.04.2-.08.39-.12.59-.09-.11-.17-.22-.26-.33.13-.09.25-.17.38-.26Z"/>
    <path class="cls-24" d="m19.47,69.01l.27.2-.27-.2Z"/>
    <path class="cls-24" d="m28,8.05c-.09.06-.18.13-.28.19.09-.06.18-.13.28-.19Z"/>
    <path class="cls-24" d="m28.5,7.54c-.07.07-.14.14-.21.21.07-.07.14-.14.21-.21Z"/>
    <path class="cls-24" d="m9.75,25.3c-.06.06-.13.13-.19.19.06-.06.13-.13.19-.19Z"/>
    <path class="cls-24" d="m6.29,35.27c.07-.01.14,0,.21.04-.06.06-.13.13-.19.19-.04-.07-.04-.15-.01-.23Z"/>
    <path class="cls-24" d="m37.25,6.29c0-.33,0-.67,0-1,.25,0,.5,0,.75,0,0,.23,0,.46,0,.7,0,0,0,.01,0,.01-.08.07-.16.14-.24.21-.17.03-.33.06-.5.09Z"/>
    <path class="cls-24" d="m31.75,6.29l-.45.71.45-.71Z"/>
    <path class="cls-24" d="m34.75,5.29c-.15.15-.29.3-.44.46.15-.15.29-.3.44-.46Z"/>
    <path class="cls-5" d="m64.01,11.72c3.79,1.04,6.28,3.84,8.87,6.51.38.39.71.84,1.14,1.15,1.74,1.26,2.38,3.22,3.29,5.02.23.47.59.9.98,1.25.69.63,1.09,1.33.96,2.28-.02.16-.07.41.01.49,1.24,1.17.76,2.76,1.07,4.15.33,1.47,1.14,2.83,1.66,4.26.19.51.15,1.11.21,1.67-.33-.08-.65-.16-.98-.24-.97-.04-2.02.12-2.91-.18-1.25-.43-2.35-1.24-3.56-1.82-.81-.39-1.68-.65-2.52-.97l.03-.08c-.21-.51-.43-1.02-.67-1.59.36-.08.7-.16,1.32-.3-.46-.52-.79-1.2-1.13-1.21-1.35-.02-2.74.01-4.05.32-1.63.39-1.71.44-1.43-1.19-1.48,0-2.95,0-4.42,0-4.7,0-9.39,0-14.09,0-.57,0-1.14.15-1.71.14-1.45-.02-2.9-.2-4.34-.11-1.87.11-1.86.2-1.73,1.99-1.45.57-3.2-.3-4.51.93-.24-.43-.42-.89-.73-1.26-.16-.19-.6-.34-.81-.25-.21.09-.38.48-.41.76-.03.26.13.55.21.83-.17.23-.35.46-.52.7-.22.09-.43.24-.65.27-1,.12-2.23-.11-2.94.39-.89.64-1.72.56-2.62.62-.09.06-.18.13-.27.19-.38.23-.75.46-1.13.68-1.43-1.05-2.36-.94-2.88.32-.75.25-1.5.5-2.25.75-.38-.23-.76-.45-1.14-.68-.12.31-.24.62-.36.93-.17.03-.33.06-.5.08-.08-.03-.17-.05-.25-.08-.23-.3-.45-.61-.68-.91-.02.32-.03.64-.05.96-.09.15-.19.31-.28.46l-.99.24c0-.42.1-.88-.04-1.23-.12-.3-.6-.73-.81-.67-.57.15-1.15.45-1.58.85-.14.13.19.75.31,1.15.05.16.09.32.13.48-.41.14-.83.29-1.24.43.08-1.07.42-2.2.18-3.19-.82-3.25.31-6.24,1.23-9.17.72-2.31,2.87-4.07,2.92-6.72,0-.04.03-.08.05-.11.2-.25.4-.5.6-.76h0c.81-.65,1.43-1.39,1.24-2.53.01-.24.03-.47.04-.71.86-.67,1.8-1.27,2.57-2.04,1-.99,2.04-1.83,3.4-2.23.1.22.14.5.3.66.81.76,1.04,1.42,0,2.23-.62.48-.21,1.06.34,1.25.6.2,1.27.2,1.92.22,1.51.04,2.13-1.28,3.06-2.11.51-.45.93-.68,1.72-.65,1.18.03,2.38-.39,3.55-.68.61-.15,1.17-.56,1.77-.62,1.03-.11,2.08-.06,3.12-.02,1.24.04,2.47.12,2.32-1.45,1.34-.42,2.49-.78,3.73-1.17.64.91,1.61.92,2.77.74,1.17-.18,2.4-.05,3.13,1.15.12.19.05.49.07.74-.22,0-.46.06-.65-.02-.25-.1-.46-.32-.83-.59-.2.44-.36.78-.52,1.12.35.16.72.48,1.04.43.74-.1,1.48-.31,2.17-.6.63-.27,1.19-.7,1.78-1.06.01.51-.24.82-.4,1.18-.15.35-.35.78-.26,1.1.06.21.6.36.93.39,1.45.12,3.04-.17,4.48-.73.11-.04.29-.02.35-.1.78-1.01,2.63-.78,2.85-2.43ZM15.74,31.52c-.57.32-1.13.63-1.7.95.12.14.23.29.35.43.45-.46.9-.92,1.35-1.39l.4-.31-.08-.08c-.1.13-.21.26-.31.4Zm34.01-14.06c-.65-1.23-2.82-1.23-4,.01-1.57.01-3.15-.05-4.71.07-.8.06-1.57.47-2.35.73-1.69-.08-1.44,1.37-1.96,2.36.36.05.61.14.84.1,1.62-.26,3.25-.47,4.85-.85,1.27-.3,2.49-.79,3.72-1.25.17-.06.25-.39.37-.6h4.4c0-.15,0-.29,0-.44-.38-.05-.77-.1-1.15-.14Zm-5.99,12.04c1.87,0,3.14.16,4.36-.05,1.17-.19,2.28-.75,3.4-1.18.26-.1.48-.34.71-.52-.24-.24-.45-.61-.74-.7-.51-.15-1.31.09-1.56-.2-.95-1.14-2.18-.77-3.34-.89-.37-.04-.92-.31-1.03-.61-.53-1.45-1.65-2.07-3.12-1.53-.28.1-.59.46-.66.76-.41,1.64-.99,1.82-2.35.74-.64-.51-1.35-.99-2.1-1.31-1.28-.54-2.23.25-3.05,1.07-.24.24-.21.82-.17,1.23,0,.1.53.26.79.22.81-.12,1.39-.08,1.76.88.19.48.89.81,1.41,1.12,1.96,1.16,4.14,1.04,5.68.96Zm-25.36.46c.12.14.24.27.35.41.97-.84,1.95-1.68,2.92-2.51-1.69-.06-2.07,1.55-3.27,2.11Zm34.77-12.73c-.76.2-1.16.31-1.67.44.34.44.59.77.99,1.29.24-.61.4-1.02.67-1.74Zm-24.96,4.07c-.05-.13-.1-.25-.15-.38-.49.2-.98.41-1.46.61l.12.31c.5-.18.99-.36,1.49-.53Zm24.51,1.18c.1-.08.2-.15.29-.23-.18-.21-.36-.42-.54-.64-.06.05-.11.11-.26.25.17.2.34.41.51.62Zm-22.31,1.32c-.07-.09-.15-.18-.22-.27-.21.17-.42.33-.63.5.07.09.13.17.2.26l.65-.48Zm-13.05,6.61c-.07-.06-.13-.11-.2-.17-.14.16-.27.32-.41.48.07.06.14.11.2.17.14-.16.27-.32.41-.48ZM49.85,13.57c.07.03.15.1.2.08.05-.02.07-.13.1-.2-.07-.03-.15-.1-.2-.08-.05.02-.07.13-.1.2Zm-32,16.61s-.03.07-.03.11c0,.01.06.02.09.03.01-.04.03-.07.03-.11,0-.01-.06-.02-.09-.03Z"/>
    <path class="cls-22" d="m79.29,53.75c-.25,1.37-.28,2.81-1.61,3.75-.26.18-.44.72-.4,1.06.12,1.02-.32,1.68-1.03,2.35-1.95,1.86-3.77,3.87-5.76,5.69-1.82,1.66-3.63,3.44-5.74,4.62-1.59.89-3.21,2.13-5.26,2.07-.44-.01-.88.38-1.34.48-.62.14-1.26.17-1.9.26-.17-.18-.33-.35-.5-.53-.28-1.1.26-1.46,1.27-1.5.8-.03,1.59-.18,2.38-.27l-.06-.58c-.73.03-1.46.11-2.19.09-1.77-.05-3.54-.18-5.31-.21-.84-.01-1.7.09-1.85,1.2-.83.01-1.67.07-2.5.01-.42-.03-.95-.18-1.21-.47-1.61-1.75-3.55-2.64-5.95-2.53-.35.02-.73-.2-1.07-.35-.45-.19-.88-.44-1.33-.63-.61-.26-1.23-.5-1.85-.72-.34-.12-.7-.2-1.05-.28-.44-.09-.95-.05-1.32-.27-1.24-.72-2.43-1.54-3.64-2.31-.55-.35-1.23-.56-1.67-1.02-.54-.56-.83-1.35-1.35-1.94-.69-.8-1.37-1.68-2.69-1.5-.37.05-.88-.25-1.18-.54-1.36-1.34-2.95-2.53-3.26-4.62.2-.27.39-.55.59-.82.92.09,1.84.17,2.76.26-.12.59.08.87.71.71,1.41.02,2.81.03,4.22.05-.06.76.18,1.18,1.03.95.66.03,1.32.06,1.98.09-.01.7.25,1.09,1.02.91.5.01.99.04,1.49.04,5.75.02,11.51.03,17.26.04-.23.49-.45.98-.68,1.47,1.08-.63,1.9.22,2.82.48.11.03.25-.02.37-.03.77-.12,1.55-.25,2.56-.42.36-.13.95-.45,1.57-.52,1-.11,2.23.31,3-.13,1.55-.88,3.2-.59,4.78-.89,1-.19,1.01-.83.67-1.45-.32-.59-.88-1.05-1.34-1.57.51-.33,1.04-.63,1.52-1,.37-.28.67-.65,1-.98.06-.01.13-.02.19-.02.86.54.57,1.21.29,1.95-.14.37-.02.83-.02,1.1.96-.32,1.63-.52,2.28-.78.57-.23,1.23-.39,1.64-.8,1.45-1.43,1.41-1.46,2.83-.13.21.2.42.39.63.59,1.18,1.16,1.15,1.12-.2,2.14-.29.22-.37.86-.32,1.29.03.24.51.42.79.63.21-.3.46-.58.63-.9.17-.32.22-.71.4-1.03.54-.96,1.06-1.93,1.71-2.81.16-.22.77-.12,1.17-.17,0,.15.01.3.02.45Zm-18.28,7.79c-.74,1.87-3.42,3.02-5.27,2.3-.39-.15-.66-.61-1.01-.89-.33-.26-.7-.65-1.06-.66-1.64-.05-3.28.01-4.92.04-.05,0-.1.12-.18.22.2.27.4.54.61.82-.62.73-1.16.93-1.74.07-.11-.16-.28-.32-.46-.39-1.35-.57-2.69-1.16-4.06-1.66-.58-.21-1.37-.51-1.32.72,0,.19-.62.63-.78.56-.89-.4-1.7-1.02-2.61-1.36-.55-.2-1.33-.23-1.82.03-.29.16-.47,1.25-.25,1.5.37.4,1.11.62,1.7.63,1.08,0,1.93.14,1.98,1.17,1.1.21,2.07.39,3.2.61,1.4-1.13,1.46-1.12,3.29.2.22.16.52.2.79.3.58.22,1.16.43,1.97.73.53.13,1.4.15,2.07.53,1.6.9,3.24.9,4.93.55.47-.1,1-.35,1.31-.69.54-.6.92-.73,1.49-.06.59.69,1.12.68,1.61-.21.23-.42.68-.86,1.12-.99,1.28-.37,2.6-.59,4.06-.9-.15-.84.38-1.1,1.32-1.3,2.41-.51,3.94-2.27,5.22-4.23.15-.22-.19-1.1-.31-1.1-1.16-.02-1.49-.72-1.51-1.97-.58.21-1.19.24-1.39.54-.87,1.34-2.65,1.85-3.17,3.5-.05.16-.41.22-.61.34-.26.15-.5.32-.76.46-.5.27-.99.67-1.53.75-.63.09-1.3-.1-1.94-.17Z"/>
    <path class="cls-1" d="m19.94,55.06c.31,2.08,1.9,3.28,3.26,4.62.3.29.81.59,1.18.54,1.32-.18,1.99.7,2.69,1.5.51.59.8,1.39,1.35,1.94.44.45,1.11.67,1.67,1.02,1.22.77,2.4,1.58,3.64,2.31.37.21.88.17,1.32.27.35.08.71.16,1.05.28.62.22,1.24.47,1.85.72.45.19.88.44,1.33.63.35.15.72.37,1.07.35,2.4-.11,4.34.78,5.95,2.53.27.29.79.44,1.21.47.83.06,1.66,0,2.5-.01,1.17.02,2.33.04,3.5.07.08.81-.06,1.56-.95,1.78-.49.12-1.04-.04-1.56-.02-.44.02-.87.13-1.31.19.07.37.15.74.21,1.11.05.28.07.57.1.86-.49.01-.99.02-1.48.03-.26-.07-.51-.13-.77-.2-1.83,0-3.67,0-5.5,0-.17,0-.33,0-.5,0-1.91-.18-3.92-.05-5.68-.66-1.17-.4-2.64-.49-3.44-1.12-.99-.78-1.93-.76-2.93-1.09-1.49-.48-2.91-1.28-4.24-2.14-4.84-3.11-8.47-7.55-12.51-11.53-.5-.49-.64-1.34-.93-2.03-.25-.59-.5-1.19-.72-1.79-.55-1.48-1.09-2.96-1.63-4.44.03-.16.06-.32.08-.48.17-.35.35-.69.52-1.04.95.34,1.91.66,2.85,1.03,1.64.66,3.27,1.35,4.9,2.03.09,1.22,1.26,1.53,1.92,2.27Z"/>
    <path class="cls-14" d="m64.01,11.72c-.23,1.65-2.07,1.42-2.85,2.43-.06.08-.24.06-.35.1-1.45.56-3.04.85-4.48.73-.34-.03-.87-.18-.93-.39-.09-.32.11-.75.26-1.1.16-.36.41-.68.4-1.18-.59.36-1.15.79-1.78,1.06-.69.29-1.43.5-2.17.6-.32.04-.69-.28-1.04-.43.16-.34.32-.68.52-1.12.37.27.58.49.83.59.19.08.43.02.65.02-.02-.25.04-.55-.07-.74-.73-1.2-1.96-1.33-3.13-1.15-1.17.18-2.13.17-2.77-.74-1.24.39-2.39.75-3.73,1.17.15,1.56-1.08,1.49-2.32,1.45-1.04-.03-2.09-.08-3.12.02-.6.06-1.16.47-1.77.62-1.18.29-2.38.72-3.55.68-.79-.02-1.21.2-1.72.65-.93.83-1.55,2.15-3.06,2.11-.64-.02-1.32-.02-1.92-.22-.54-.19-.96-.77-.34-1.25,1.04-.81.81-1.47,0-2.23-.16-.15-.2-.43-.3-.66.8-.48,1.58-1,2.4-1.44,1.78-.95,3.57-1.85,5.36-2.77.33-.19.66-.38.99-.57.67-.14,1.34-.28,2.01-.42.17-.17.33-.34.5-.5.25-.25.49-.49.74-.74.17-.03.33-.06.5-.09.08-.07.16-.14.24-.21,0,0,0-.01,0-.01,2.2,0,4.4,0,6.6-.02.39,0,.77-.17,1.15-.25.17,0,.33,0,.5,0,.67.08,1.33.17,2,.25.25,0,.5,0,.75,0,1.17.35,2.53.43,3.48,1.1,1.7,1.19,4.07.05,5.5,1.81.05.06.16.13.21.12,2.05-.66,2.96,1.22,4.37,1.96.49.25.96.52,1.44.78Z"/>
    <path class="cls-5" d="m79.27,53.3c-.4.05-1.01-.05-1.17.17-.65.88-1.17,1.86-1.71,2.81-.18.32-.23.71-.4,1.03-.17.32-.42.6-.63.9-.28-.21-.77-.39-.79-.63-.05-.43.04-1.07.32-1.29,1.35-1.02,1.38-.98.2-2.14-.21-.2-.42-.4-.63-.59-1.41-1.34-1.38-1.3-2.83.13-.41.41-1.07.57-1.64.8-.65.26-1.32.46-2.28.78,0-.27-.11-.73.02-1.1.28-.74.57-1.41-.29-1.95.17-.32.34-.63.5-.95.19-.13.39-.26.58-.38.78.26,1.41.17,1.72-.7.33-.08.66-.16.99-.24,1.1-.62,2.34-1.08,3.25-1.9,2.32-2.11,4.5-4.38,6.73-6.59l.97.03v4.54c-.09-.04-.17-.08-.26-.12l-.74,1.34c-1.14.59-1.26,2.59-.23,3.83-.24.41-.49.81-.72,1.23-.18.33-.34.67-.5,1-.16,0-.32,0-.48,0Z"/>
    <path class="cls-1" d="m17.4,21.01s-.05.08-.05.11c-.05,2.66-2.2,4.42-2.92,6.72-.92,2.94-2.05,5.92-1.23,9.17.25.99-.1,2.12-.18,3.19-.51.11-1.01.22-1.52.33-.07.07-.14.14-.21.21-.19.16-.39.32-.58.48l-1.42.03c-.33,0-.66,0-.99,0-.01-1.37-.06-2.74-.02-4.11,0-.31.37-.6.48-.92.2-.6.37-1.21.48-1.83.15-.84-.41-1.88.74-2.44.12-.06.15-.37.18-.57.43-2.93,2.07-5.32,3.57-7.75.51-.83,1.37-1.44,2.06-2.15.23-.1.46-.22.7-.29.29-.09.6-.13.9-.19Z"/>
    <path class="cls-1" d="m50,76.21c-.03-.29-.06-.57-.1-.86-.06-.37-.14-.74-.21-1.11.44-.07.87-.17,1.31-.19.52-.02,1.07.14,1.56.02.89-.22,1.04-.97.95-1.78,1.08-.21,1.66.49,2.25,1.2.17.18.33.35.5.53-.33.25-.67.5-1,.75-.17.08-.35.16-.52.23l-.48.08c-.83-.01-1.67-.02-2.5-.04-.1.07-.19.13-.29.2-.12.32-.24.64-.36.97h-1.1Z"/>
    <path class="cls-1" d="m8.72,43.98c0-.15,0-.31,0-.46.18,0,.37-.01.55-.02.91,0,1.82.01,2.73.02.24.48.47.96.71,1.44-.06.34-.12.69-.18,1.03-.09,0-.19.01-.28.02-.08,0-.17,0-.25,0-.53-.77-1.2-.96-2.03-.48-.42-.52-.83-1.04-1.25-1.56Z"/>
    <path class="cls-9" d="m17.4,21.01c-.3.06-.61.1-.9.19-.24.07-.47.19-.7.29.37-1.74,1.39-2.97,2.96-3.78.16,0,.33,0,.49,0,.19,1.14-.43,1.88-1.24,2.53-.03-.02-.07-.04-.1-.06.03.02.07.04.1.06-.2.25-.4.5-.6.76Z"/>
    <path class="cls-9" d="m8.72,43.98c.42.52.83,1.04,1.25,1.55.1.33.2.67.3,1.01-.03.49-.06.98-.09,1.48-.24.16-.47.33-.71.49-.39-.97-.89-1.91-1.14-2.91-.12-.48.24-1.08.38-1.62Z"/>
    <path class="cls-19" d="m82.21,41.5c-.32,0-.65-.02-.97-.03,0-1.07,0-2.14-.01-3.21.33.08.65.16.98.24,0,1,0,1.99,0,2.99Z"/>
    <path class="cls-14" d="m80.97,51.08c-1.03-1.24-.9-3.24.23-3.83-.08,1.28-.16,2.55-.23,3.83Z"/>
    <path class="cls-23" d="m9.27,43.49c-.18,0-.37.01-.55.02-.97-.6-.26-1.51-.42-2.26.33,0,.66,0,.99,0,0,.75,0,1.49-.01,2.24Z"/>
    <path class="cls-24" d="m34,7.96c-.33.19-.66.38-.99.57.13-.42.26-.83.39-1.25.2.23.4.45.6.68Z"/>
    <path class="cls-14" d="m9.55,49.24c.3,0,.59,0,.89,0-.06.16-.11.32-.17.48-.17.35-.35.69-.52,1.04-.07-.01-.14-.02-.22-.03-.01-.08-.03-.16-.07-.24,0-.17,0-.33,0-.5.03-.25.06-.51.09-.76Z"/>
    <path class="cls-24" d="m54.25,75.07c.16-.03.32-.05.48-.08.17,0,.34,0,.52,0-.17.24-.35.49-.52.73-.16-.22-.32-.44-.47-.66Z"/>
    <path class="cls-24" d="m35,77.21c-.62.15-.86-.08-.7-.71.23.24.47.47.7.71Z"/>
    <path class="cls-24" d="m49,5.96c-.25,0-.5,0-.75,0,.09-.21.18-.41.26-.62.16.21.32.41.49.62Z"/>
    <path class="cls-24" d="m19.24,17.72c-.16,0-.33,0-.49,0,.18-.23.35-.47.53-.7-.01.24-.03.47-.04.71Z"/>
    <path class="cls-24" d="m47.75,76.04c.26.07.51.13.77.2-.26-.07-.51-.13-.77-.2Z"/>
    <path class="cls-24" d="m36.51,7.03c-.17.17-.33.34-.5.5.17-.17.33-.34.5-.5Z"/>
    <path class="cls-24" d="m9.53,50.74c.07,0,.15.02.22.03-.03.16-.06.32-.08.48-.04-.17-.09-.34-.13-.51Z"/>
    <path class="cls-10" d="m79.27,53.3c.16,0,.32,0,.48,0-.15.15-.3.29-.46.44,0-.15-.01-.3-.02-.45Z"/>
    <path class="cls-24" d="m41.75,76.05c.17,0,.33,0,.5,0-.08.12-.17.24-.25.36-.08-.12-.17-.24-.25-.36Z"/>
    <path class="cls-24" d="m9.46,50c0,.17,0,.33,0,.5-.12-.08-.24-.17-.36-.25.12-.08.24-.17.36-.25Z"/>
    <path class="cls-24" d="m46.25,5.71c-.17,0-.33,0-.5,0,.08-.12.17-.24.25-.36.08.12.17.24.25.36Z"/>
    <path class="cls-10" d="m55.25,75c-.17,0-.34,0-.52,0,.17-.08.35-.16.52-.23,0,.08,0,.16,0,.24Z"/>
    <path class="cls-24" d="m51.46,75.24c.1-.07.19-.13.29-.2-.1.07-.19.13-.29.2Z"/>
    <path class="cls-24" d="m38.5,78.2c-.07-.07-.13-.13-.2-.2.07.07.13.13.2.2Z"/>
    <path class="cls-7" d="m37.99,6c-.08.07-.16.14-.24.21.08-.07.16-.14.24-.21Z"/>
    <path class="cls-24" d="m11.5,40.54c.51-.11,1.01-.22,1.52-.33.41-.14.83-.29,1.24-.43.66-.19,1.33-.38,1.99-.57l.99-.24c.22.17.45.33.67.5.2-.31.39-.62.59-.93.17-.03.33-.06.5-.08.5-.08,1-.17,1.5-.25.75-.25,1.5-.5,2.25-.75.96-.11,1.92-.22,2.88-.32.38-.23.75-.46,1.13-.68.09-.06.18-.13.27-.19.9-.06,1.73.02,2.62-.62.71-.51,1.94-.27,2.94-.39.22-.03.43-.17.65-.27,1.04.69,1.14.64,1.26-.69.33-.03.67-.05,1-.08,1.31-1.23,3.06-.36,4.51-.93,4.33-.02,8.66-.05,12.99-.07.75,0,1.5,0,2.25,0,1.83,0,3.67,0,5.5,0,.92,0,1.83,0,2.75,0,.5.09.99.18,1.49.26.4.09.81.19,1.21.28.37,1.04,1.2.28,1.8.46.5,0,1,0,1.5,0,.5.11,1,.23,1.5.34.07.07.13.13.2.2.35.15.71.31,1.06.46l-.03.08c0,.49,0,.97.01,1.46-.19.39-.39.78-.58,1.17-.68-.23-1.36-.48-2.05-.67-.88-.25-1.79-.41-2.66-.68-1.25-.39-2.47-.85-3.71-1.28-.41-.01-.81-.02-1.22-.03-.33,0-.67-.05-.98.02-.19.04-.51.31-.48.39.06.22.28.39.44.58l1.22,1.5c0,.24,0,.49,0,.73-.09.18-.18.35-.27.53-.06.06-.13.13-.19.19-.22.35-.69.77-.61,1.03.66,2.27-.48,4.06-1.42,5.92-.34.67-.52,1.49-1.03,1.97-.94.88-1.58,1.83-1.71,3.12h-2.55c-.18.43-.3.75-.43,1.06-.33-.03-.67-.05-1-.08,0-.24,0-.47,0-.71,0-.08,0-.17,0-.25,1.31-.42,2.51-1.01,3.25-2.25.33-.42.67-.83,1-1.25.87-.59.92-1.36.52-2.24.63-.85,1.78-1.42,1.52-2.76.12-.08.24-.17.36-.25-.12-.08-.24-.17-.36-.25,0-.17.02-.35.03-.52.47-.5,1.33-.79.89-1.75-.1-.86.5-1.92-.69-2.47-.09-.09-.18-.17-.27-.26,0-.5,0-1,0-1.5-.17-.08-.33-.17-.5-.25-.17-.08-.33-.17-.5-.25-.33,0-.67,0-1,0-.09.09-.17.18-.26.27-.65-.06-1.31-.12-1.96-.18-.18,0-.37-.01-.55-.02-2.51-.03-5.02-.06-7.52-.07-.23,0-.45.16-.68.25-.26.33-.52.66-.78.99-1.33-.02-2.67-.03-4-.05-.15-.21-.29-.42-.44-.63-.19.21-.37.42-.56.63-.17,0-.33,0-.5,0-.41-.88-.82-.21-1.24,0-.25.02-.5.04-.75.07-.42.06-.84.12-1.26.18-.66-.06-1.32-.13-1.99-.19-.23.05-.45.1-.68.15.21.11.41.23.62.34-.14.58-.29,1.17-.43,1.75-.04.25-.08.5-.11.75l-.67.99c-.67,2.03.85,5.31,2.78,5.99.5.18.98.39,1.48.59,0,.49-.13,1.04.04,1.47.17.46.58,1.1.95,1.15.93.12,1.07.6,1,1.35-.75-.36-1.5-.72-2.24-1.08-.08-.07-.17-.13-.25-.2-.93-.92-1.85-1.83-2.78-2.75-.12-.07-.24-.14-.36-.21,0,0,0,0,0,0-.03-.14-.01-.36-.1-.42-1.42-1.03-1.93-2.66-2.71-4.11.35-.23.92-.4,1-.69.34-1.39.4-2.81-.07-4.13-.53,0-.96.09-1.33-.02-.88-.25-.88.29-.89.87-.5.23-1,.46-1.51.7-1.96.17-3.92.34-5.87.54-.23.02-.43.31-.64.47-.68.09-1.35.2-2.04.25-1.14.08-2.35-.28-3.28.87-.33.4-1.11.43-1.68.63-.04-.1-.08-.19-.12-.29-.04.16-.09.32-.13.48-.17.11-.33.22-.5.34,0,0,.02-.1.02-.1-.16-.1-.46-.31-.47-.29-.2.25-.37.53-.54.8-.08,0-.17-.01-.25-.02l-2.29-1.44c.19-.16.39-.32.58-.48.07-.07.14-.14.21-.21Z"/>
    <path class="cls-5" d="m43.76,29.5c-1.54.08-3.72.21-5.68-.96-.52-.31-1.22-.63-1.41-1.12-.37-.96-.95-.99-1.76-.88-.26.04-.78-.12-.79-.22-.04-.41-.07-.99.17-1.23.82-.82,1.77-1.61,3.05-1.07.75.32,1.45.8,2.1,1.31,1.36,1.08,1.94.91,2.35-.74.07-.3.38-.66.66-.76,1.47-.54,2.59.08,3.12,1.53.11.3.66.57,1.03.61,1.16.12,2.39-.25,3.34.89.24.29,1.05.05,1.56.2.29.08.5.45.74.7-.24.18-.45.41-.71.52-1.12.43-2.23.98-3.4,1.18-1.22.2-2.49.05-4.36.05Z"/>
    <path class="cls-5" d="m53,33.21c-4.33.02-8.66.05-12.99.07-.13-1.8-.13-1.88,1.73-1.99,1.44-.09,2.89.09,4.34.11.57,0,1.14-.14,1.71-.14,4.7-.01,9.39,0,14.09,0,1.47,0,2.94,0,4.42,0-.28,1.62-.2,1.58,1.43,1.19,1.3-.31,2.7-.34,4.05-.32.34,0,.67.69,1.13,1.21-.62.14-.96.22-1.32.3.24.57.45,1.08.67,1.59-.35-.15-.71-.31-1.06-.46-.07-.07-.13-.13-.2-.2-.5-.11-1-.23-1.5-.34-.19-.39-.37-.78-.56-1.17-.31.39-.63.78-.94,1.17-.59-.18-1.42.58-1.8-.46-.27-.66-.7-.66-1.21-.28-.5-.09-.99-.18-1.49-.26.05-1.1-.85-1.12-1.51-1.16-.67-.04-1.29.28-1.24,1.16-1.83,0-3.67,0-5.5,0-.24-.31-.59-.93-.7-.89-.55.21-1.04.58-1.55.89Z"/>
    <path class="cls-24" d="m72.25,36.75c0-.49,0-.97-.01-1.46.84.32,1.71.58,2.52.97,1.2.58,2.31,1.39,3.56,1.82.89.3,1.93.14,2.91.18,0,1.07,0,2.14.01,3.21-2.23,2.21-4.41,4.48-6.73,6.59-.91.83-2.16,1.28-3.25,1.9.16-.83.33-1.65.49-2.48,1.69-1.74,3.38-3.48,5.06-5.22.3-.14.59-.29.89-.43-.13-.19-.27-.38-.4-.57,0-.25,0-.5-.01-.74.23-.07.45-.14.68-.21.17.13.35.26.52.39,0-.15,0-.3,0-.46-.28-1.07-1.24-.84-1.96-.96-.91-.15-1.84-.17-2.76-.24.07-1.13.01-2.18-1.49-2.28Z"/>
    <path class="cls-14" d="m46.5,18.04c-.12.21-.19.53-.37.6-1.23.45-2.45.95-3.72,1.25-1.59.38-3.23.59-4.85.85-.23.04-.47-.05-.84-.1.52-.99.27-2.44,1.96-2.36,2.6-.08,5.21-.15,7.81-.23Z"/>
    <path class="cls-4" d="m46.5,18.04c-2.6.08-5.21.15-7.81.23.78-.25,1.55-.66,2.35-.73,1.56-.13,3.14-.06,4.71-.07,1.33,0,2.67,0,4-.01.38.05.77.1,1.15.14,0,.15,0,.29,0,.44-1.47,0-2.93,0-4.4,0Z"/>
    <path class="cls-14" d="m16.25,39.21c-.66.19-1.33.38-1.99.57-.04-.16-.09-.32-.13-.48-.12-.4-.44-1.02-.31-1.15.43-.4,1.01-.7,1.58-.85.21-.05.68.37.81.67.14.36.04.82.04,1.23Z"/>
    <path class="cls-5" d="m49.75,17.45c-1.33,0-2.67,0-4,.01,1.18-1.24,3.35-1.24,4-.01Z"/>
    <path class="cls-5" d="m35.5,34.21c-.33.03-.67.05-1,.08-.25,0-.49,0-.74,0-.08-.28-.24-.56-.21-.83.03-.28.2-.67.41-.76.2-.09.64.06.81.25.31.36.49.83.73,1.26Z"/>
    <path class="cls-2" d="m18.4,29.95c1.2-.56,1.59-2.17,3.27-2.11-.97.84-1.95,1.68-2.92,2.51-.12-.14-.24-.27-.35-.41Z"/>
    <path class="cls-14" d="m25.63,37.13c-.96.11-1.92.22-2.88.32.52-1.26,1.45-1.37,2.88-.32Z"/>
    <path class="cls-14" d="m53.17,17.22c-.28.72-.44,1.13-.67,1.74-.4-.53-.66-.85-.99-1.29.5-.13.91-.24,1.67-.44Z"/>
    <path class="cls-24" d="m33.76,34.28c.25,0,.49,0,.74,0-.12,1.33-.22,1.38-1.26.69.17-.23.35-.46.52-.7Z"/>
    <path class="cls-24" d="m18.5,38.54c-.2.31-.39.62-.59.93-.22-.17-.45-.33-.67-.5.09-.15.19-.31.28-.46.24-.02.49-.03.73-.05.08.03.17.05.25.08Z"/>
    <path class="cls-14" d="m20.5,38.21c-.5.08-1,.17-1.5.25.12-.31.24-.62.36-.93.38.23.76.45,1.14.68Z"/>
    <path class="cls-14" d="m18.25,38.46c-.24.02-.49.03-.73.05.02-.32.03-.64.05-.96.23.3.45.61.68.91Z"/>
    <path class="cls-2" d="m15.73,31.51c-.45.46-.9.92-1.35,1.39-.12-.14-.23-.29-.35-.43.57-.32,1.13-.63,1.7-.95,0,0,0,0,0,0Z"/>
    <path class="cls-2" d="m28.21,21.29c-.5.18-.99.36-1.49.53l-.12-.31c.49-.2.98-.41,1.46-.61.05.13.1.25.15.38Z"/>
    <path class="cls-14" d="m52.72,22.47c-.17-.21-.34-.42-.51-.62.15-.14.2-.19.26-.25.18.21.36.42.54.64-.1.08-.2.15-.29.23Z"/>
    <path class="cls-14" d="m30.41,23.79l-.65.48c-.07-.09-.13-.17-.2-.26.21-.17.42-.33.63-.5.07.09.15.18.22.27Z"/>
    <path class="cls-14" d="m17.36,30.4c-.14.16-.27.32-.41.48-.07-.06-.14-.11-.2-.17.14-.16.27-.32.41-.48.07.06.13.11.2.17Z"/>
    <path class="cls-14" d="m15.74,31.52c.1-.13.21-.26.31-.4l.08.08c-.13.1-.26.2-.4.31,0,0,0,0,0,0Z"/>
    <path class="cls-14" d="m49.85,13.57c.03-.07.05-.18.1-.2.05-.02.13.05.2.08-.03.07-.05.18-.1.2-.05.02-.13-.05-.2-.08Z"/>
    <path class="cls-14" d="m17.85,30.18s.09.02.09.03c0,.04-.02.07-.03.11-.03-.01-.09-.02-.09-.03,0-.04.02-.07.03-.11Z"/>
    <path class="cls-14" d="m27.03,36.26c-.09.06-.18.13-.27.19.09-.06.18-.13.27-.19Z"/>
    <path class="cls-5" d="m61.01,61.54c.64.07,1.31.27,1.94.17.53-.08,1.02-.48,1.53-.75.26-.14.51-.32.76-.46.21-.12.56-.18.61-.34.52-1.65,2.3-2.16,3.17-3.5.2-.3.81-.33,1.39-.54.02,1.24.35,1.94,1.51,1.97.12,0,.45.88.31,1.1-1.28,1.96-2.81,3.72-5.22,4.23-.94.2-1.47.46-1.32,1.3-1.45.31-2.78.53-4.06.9-.44.13-.89.57-1.12.99-.49.88-1.02.9-1.61.21-.57-.67-.95-.54-1.49.06-.31.35-.84.59-1.31.69-1.69.35-3.33.35-4.93-.55-.67-.38-1.54-.4-2.07-.53-.81-.3-1.39-.52-1.97-.73-.26-.1-.57-.14-.79-.3-1.83-1.32-1.89-1.32-3.29-.2-1.14-.22-2.1-.4-3.2-.61-.05-1.03-.91-1.17-1.98-1.17-.59,0-1.34-.22-1.7-.63-.23-.25-.05-1.34.25-1.5.48-.26,1.27-.24,1.82-.03.91.34,1.71.96,2.61,1.36.16.07.79-.37.78-.56-.05-1.22.74-.92,1.32-.72,1.37.5,2.71,1.09,4.06,1.66.18.08.35.23.46.39.58.86,1.12.66,1.74-.07-.21-.28-.42-.56-.61-.82.08-.1.13-.22.18-.22,1.64-.03,3.28-.09,4.92-.04.36.01.73.4,1.06.66.36.28.62.74,1.01.89,1.85.72,4.52-.44,5.27-2.3Z"/>
    <path class="cls-24" d="m10.27,49.72c.06-.16.11-.32.17-.48l-.25-1.23c.03-.49.06-.98.09-1.48.24,0,.48-.01.72-.02.67.42,1.33.84,2,1.25.34.28.64.61,1.01.84,1.05.65,2.06,1.52,3.21,1.81.91.23,1.81.26,2.49,1-.08.21-.15.42-.23.62.35-.11.69-.21,1.04-.32l3.74.82c.26.15.52.3.78.45l.47.55c.16.83.68.74,1.31.57,1.06-.3,2.09-.38,2.88.63.07.09.38-.02.58-.03.58-.08,1.16-.17,1.73-.25l1,.08c.57.6,1.07,1.31,1.74,1.77.41.28,1.17.59,1.51-.31.17-.08.33-.17.5-.25.08,0,.17,0,.25,0,.08,0,.16,0,.25,0,.44.47,2.04.21,2.75-.46.44.07.88.21,1.31.2,2.72-.06,5.44-.16,8.16-.25.18,0,.35.01.53.02.42.33.84.66,1.25.99.33,0,.66,0,1,0,.16.2.31.4.47.6.18-.2.35-.4.53-.6.08,0,.17,0,.25,0,.17-.17.33-.33.5-.5,0-.17,0-.33,0-.5l.75-.71c3.46.35,6.23-1.34,9.01-3.01.44-.12.88-.23,1.31-.35.65-.49,1.29-.98,1.94-1.47l-.03.08c0,.4,0,.8.01,1.2l-.02.31h-.67c.19.27.31.46.44.64.17.1.35.2.52.3-.33.33-.63.7-1,.98-.48.37-1.01.67-1.52,1-1.72,1.14-3.37,2.44-5.65,2.02-.28-.05-.6-.08-.86,0-.51.16-.99.41-1.48.63l.09.4h-5.84c-5.75-.01-11.51-.03-17.26-.04-.5,0-.99-.03-1.49-.04,0-.69,0-1.36-1.02-.91-.66-.03-1.32-.06-1.98-.09.04-.74-.33-1.01-1.03-.95-1.41-.02-2.81-.03-4.22-.05-.24-.24-.47-.47-.71-.71-.92-.09-1.84-.17-2.76-.26-.84-.48-1.67-.97-2.51-1.45-1.63-.68-3.26-1.37-4.9-2.03-.94-.38-1.9-.69-2.85-1.03Z"/>
    <path class="cls-5" d="m51,57.29h5.84l-.09-.4c.49-.21.97-.46,1.48-.63.26-.08.58-.06.86,0,2.28.41,3.93-.88,5.65-2.02.46.52,1.02.98,1.34,1.57.34.63.33,1.27-.67,1.45-1.58.29-3.22,0-4.78.89-.77.44-2,.02-3,.13-.62.07-1.21.39-1.57.52-1.01.16-1.79.29-2.56.42-.12.02-.26.07-.37.03-.92-.27-1.74-1.12-2.82-.48.23-.49.45-.98.68-1.47Z"/>
    <path class="cls-5" d="m55.75,73.49c-.58-.71-1.17-1.41-2.25-1.2-1.17-.02-2.33-.04-3.5-.06.15-1.11,1.01-1.22,1.85-1.2,1.77.03,3.54.16,5.31.21.73.02,1.46-.06,2.19-.09l.06.58c-.79.1-1.59.24-2.38.27-1.01.04-1.56.4-1.27,1.5Z"/>
    <path class="cls-7" d="m67.26,52.25c-.17-.1-.35-.2-.52-.3.08-.21.16-.43.24-.64,0-.1.01-.21.02-.31.17-.4.33-.8.5-1.2.58-.1,1.17-.21,1.75-.31.16.16.32.32.47.48.08-.1.17-.2.25-.3-.23-.15-.46-.29-.68-.44.16-.66.58-.86,1.21-.67-.08.55-.16,1.09-.24,1.64-.31.87-.95.97-1.72.7-.1-.13-.21-.26-.31-.39-.04-.06-.07-.13-.11-.19-.04.06-.08.12-.13.18-.01.26-.03.52-.04.79-.17.32-.34.63-.5.95-.06,0-.13.01-.19.02Z"/>
    <path class="cls-19" d="m18.02,52.78c.84.48,1.67.97,2.51,1.45-.2.27-.39.54-.59.82-.67-.74-1.83-1.05-1.92-2.27Z"/>
    <path class="cls-24" d="m31.23,56.3c1.01-.46,1.03.22,1.02.91-.77.19-1.04-.21-1.02-.91Z"/>
    <path class="cls-24" d="m28.22,55.26c.69-.07,1.07.21,1.03.95-.85.23-1.09-.19-1.03-.95Z"/>
    <path class="cls-24" d="m23.29,54.5c.24.24.47.47.71.71-.63.16-.83-.12-.71-.71Z"/>
    <path class="cls-10" d="m70.26,50.2c.08-.55.16-1.09.24-1.64l1.24-1.09c-.16.83-.33,1.65-.49,2.48-.33.08-.66.16-.99.24Z"/>
    <path class="cls-12" d="m68.23,50.51c.1.13.21.26.31.39-.19.13-.39.26-.58.38.01-.26.03-.52.04-.79,0,0,.11.03.11.03h.12Z"/>
    <path class="cls-24" d="m10.7,41.23c.76.48,1.53.96,2.29,1.44-.33.28-.67.56-1,.85-.91,0-1.82-.01-2.73-.02,0-.75,0-1.49.01-2.24.47-.01.95-.02,1.42-.03Z"/>
    <path class="cls-24" d="m11.5,40.54c-.07.07-.14.14-.21.21.07-.07.14-.14.21-.21Z"/>
    <path class="cls-5" d="m32,54.46c-.58.08-1.16.17-1.73.25-.16-.49-.31-.97-.37-1.17h-4.39l-.47-.55c-.26-.15-.52-.3-.78-.45l-3.74-.82-.81-.3c-.68-.74-1.58-.77-2.49-1-1.15-.29-2.16-1.16-3.21-1.81-.37-.23-.68-.55-1.01-.84.09-.52.19-1.03.28-1.55-.25-.08-.49-.15-.74-.23.06-.34.12-.69.18-1.03.2-.31.39-.63.61-.93.31-.43.65-.83.97-1.25,1.52.53,3.04.66,4.6.14.79-.26,1.61-.68,2.39-.63,2.12.14,3.67-1.01,5.31-2.02.72-.31,1.84-.04,1.92-1.3.5-.23,1-.46,1.51-.7.22-.16.44-.32,1-.73.1,1.75.19,3.22.28,4.7.78,1.45,1.29,3.08,2.71,4.11.09.06.07.28.1.42-.92,1.19-1.85,2.37-2.73,3.58-.15.2-.17.57-.11.84.22,1.09.49,2.17.74,3.26Z"/>
    <path class="cls-2" d="m14.29,42.78c-.33.42-.66.82-.97,1.25-.22.3-.41.62-.61.93-.24-.48-.47-.96-.71-1.44.33-.28.67-.56,1-.84.08,0,.17.01.25.02.34-.17.68-.34,1.01-.51,0,0-.02.1-.02.1.01.17.03.34.04.51Z"/>
    <path class="cls-12" d="m13.27,46.23c-.09.52-.19,1.03-.28,1.55-.67-.42-1.33-.84-2-1.25.34-.17.67-.34,1.01-.51.08,0,.17,0,.25,0,.34.07.68.14,1.02.21Z"/>
    <path class="cls-23" d="m12,46.01c-.34.17-.67.34-1.01.51-.24,0-.48.01-.72.02-.1-.34-.2-.67-.3-1.01.83-.49,1.5-.29,2.03.48Z"/>
    <path class="cls-23" d="m13.27,46.23c-.34-.07-.68-.14-1.02-.21.09,0,.19-.01.28-.02.25.08.49.15.74.23Z"/>
    <path class="cls-5" d="m18,20.25s-.07-.04-.1-.06c.03.02.07.04.1.06,0,0,0,0,0,0Z"/>
    <path class="cls-15" d="m32,54.46c-.25-1.09-.52-2.17-.74-3.26-.05-.27-.03-.63.11-.84.88-1.21,1.82-2.39,2.73-3.58,0,0,0,0,0,.01.12.07.24.14.36.21.93.92,1.85,1.83,2.78,2.75.08.07.17.13.25.2.75.36,1.5.72,2.24,1.08.17.06.34.12.51.17.65.35,1.26.87,1.95,1,.9.17,1.87.02,2.8,0,1.83,0,3.67,0,5.5,0,.58,0,1.17,0,1.75,0,.25,0,.5,0,.75,0,.33.03.67.05,1,.08.17.72.33,1.45.5,2.17-.25.03-.5.06-.75.08-.08-.03-.17-.06-.25-.09-.04-.29-.08-.58-.18-1.24-.68.53-1.12.88-1.57,1.24-1.05-.58-1.54.47-2.28.78-2.72.09-5.44.18-8.16.25-.43.01-.87-.13-1.31-.2-.6-.01-1.2-.03-1.8-.04-.33-.25-.64-.68-.99-.72-.9-.09-1.81,0-2.72,0-.5,0-1,0-1.5,0l-1-.08Z"/>
    <path class="cls-18" d="m37.75,47.06c-.49-.2-.98-.41-1.48-.59-1.93-.68-3.45-3.96-2.78-5.99.22-.33.45-.66.67-.99.04-.25.08-.5.11-.75.39-.17.77-.45,1.17-.48.94-.06,1.89,0,2.83,0v2.02h2.96c-.14,1.42,1.17.78,1.73,1.23.31.5.54,1.1.95,1.49.62.58,1.37,1.01,2.07,1.51.15.93-.09,1.47-1.09,1.87-1.43.58-1.64,1.59-.88,2.84-.26.02-.51.05-.77.07l-4.74-1.81c-.25-.14-.51-.28-.76-.42Z"/>
    <path class="cls-8" d="m59.29,42.75c.26,1.34-.89,1.91-1.52,2.76-.17.17-.34.34-.51.52-1.85.55-3.28,1.6-4.03,3.44-1.17-.17-2.33-.33-3.5-.5-.05-.71-.14-1.43-.12-2.14.02-.52.22-1.03.3-1.55.06-.42.06-.84.09-1.26-.26-.26-.52-.51-.78-.77-.17-.5-.34-1.01-.5-1.51.42-.33.84-.66,1.27-.99,1.02.43,1.08-.44,1.23-1,.13-.46.03-.99.04-1.49.09,0,.17,0,.26,0,.41,0,.82,0,1.24,0,.59,0,1.17,0,1.76,0,.25,0,.49,0,.74,0,.33,0,.67,0,1,0,.41.08.83.17,1.24.25.1,0,.2.01.3.02.32.66.64,1.32.96,1.98.17.09.35.18.52.26.02.33.03.65.05.98,0,.17-.02.35-.03.52,0,.17,0,.33,0,.5Z"/>
    <path class="cls-1" d="m63.25,35.29c1.24.43,2.46.89,3.71,1.28.87.27,1.78.43,2.66.68.69.19,1.37.44,2.05.67.11.1.22.2.34.3,0,.52.01,1.04.02,1.56-.9-.03-1.83.08-2.68-.13-1.47-.36-2.9-.92-4.34-1.39-.5-.02-.99-.04-1.49-.06-.69-.92-.56-1.91-.27-2.91Z"/>
    <path class="cls-1" d="m14.29,42.78c-.01-.17-.03-.34-.04-.51.17-.11.33-.22.5-.34.08-.06.17-.13.25-.19.57-.2,1.35-.23,1.68-.63.93-1.15,2.13-.79,3.28-.87.68-.05,1.36-.17,2.04-.25.56.16,1.12.44,1.68.45.97.03,1.94-.11,2.91-.17-1.64,1.01-3.19,2.16-5.31,2.02-.78-.05-1.61.37-2.39.63-1.56.52-3.08.39-4.6-.14Z"/>
    <path class="cls-3" d="m63.51,38.2c.5.02.99.04,1.49.06-.46.47-.83,1.14-1.39,1.37-.83.35-1.1.81-1.14,1.67-.04,1.05-.11,2.15-.46,3.13-.5,1.4-1.23,2.73-1.94,4.06-.24.44-.93.72-1.02,1.15-.24,1.19-1.06,1.47-2.04,1.64l-.04-.05c.13-1.28.77-2.24,1.71-3.12.51-.48.7-1.31,1.03-1.97.93-1.86,2.08-3.65,1.42-5.92-.08-.26.39-.68.61-1.03.06-.06.13-.13.19-.19.09-.18.18-.35.27-.53.43-.09.86-.19,1.3-.28Z"/>
    <path class="cls-3" d="m54.5,54.46c-.17-.72-.33-1.45-.5-2.17.13-.31.25-.62.43-1.06h2.55s.04.05.04.04c-.68.56-1.35,1.13-2.07,1.72,1.36.89,3.56-.18,4.12-1.57.9-.36,1.56-.6,2.2-.88,1.84-.82,2.34-.62,2.48.98-2.78,1.67-5.55,3.37-9.01,3.01-.08-.03-.17-.06-.25-.08Z"/>
    <path class="cls-21" d="m51.51,38.25c-.09,0-.17,0-.26,0-.34.09-.68.18-1.02.27-.9-.42-1.77-.89-2.69-1.25-.48-.19-1.03-.19-1.54-.28v.02c.1-.5.19-1,.29-1.5.23-.09.45-.25.68-.25,2.51,0,5.02.04,7.52.07-.08.72-.15,1.45-.23,2.17-.33,0-.67,0-1,0-.2-.33-.4-.65-.61-.98-.3.26-.67.47-.88.78-.17.25-.17.62-.24.94Z"/>
    <path class="cls-20" d="m53.23,49.46c.75-1.84,2.18-2.89,4.03-3.44,0,.58,0,1.15,0,1.73-.33.42-.67.83-1,1.25-.42.21-.84.44-1.27.64-.49.22-.99.41-1.48.61-.09-.26-.18-.52-.27-.79Z"/>
    <path class="cls-25" d="m41.5,36.46c1.33.02,2.67.03,4,.05.17.17.34.34.51.51,0,0-.01-.02-.01-.02-.4.25-.81.51-1.21.76-.17.16-.35.33-.52.49,0-.07,0-.15,0-.22-.74-.92-2.48-1.08-3.49-.31-.41.02-.83.05-1.24.07-.58-.33-1.16-.67-1.75-1,.08-.09.16-.17.24-.26.25-.02.5-.04.75-.07.41,0,.82,0,1.24,0,.17,0,.33,0,.5,0,.33,0,.67,0,1,0Z"/>
    <path class="cls-21" d="m56.25,38.25c-.33,0-.67,0-1,0-.07-.97-.14-1.93-.22-2.9.65.06,1.31.12,1.96.18.08.09.16.17.25.26.25.17.49.34.74.51.1.32.21.64.31.97,0,.25,0,.5,0,.74-.17.17-.33.35-.5.52-.1,0-.2-.01-.3-.02-.17-.26-.34-.52-.51-.78-.25.17-.49.35-.74.52Z"/>
    <path class="cls-16" d="m37.77,36.78c.58.33,1.16.67,1.75,1-.41.16-.82.33-1.23.49-.95,0-1.89-.07-2.83,0-.4.03-.78.31-1.17.48.14-.58.29-1.17.43-1.75.02-.16.04-.33.06-.49.66.06,1.32.13,1.99.19.34.03.68.05,1.01.08Z"/>
    <path class="cls-24" d="m31.3,42.25c-.09-1.48-.18-2.95-.28-4.7-.56.41-.78.57-1,.73,0-.58.01-1.12.89-.87.37.11.8.02,1.33.02.47,1.31.4,2.73.07,4.13-.07.29-.65.47-1,.69Z"/>
    <path class="cls-23" d="m26.59,40.27c-.97.07-1.94.2-2.91.17-.56-.02-1.12-.29-1.68-.45.21-.16.41-.45.64-.47,1.95-.21,3.91-.37,5.87-.54-.08,1.26-1.19.99-1.92,1.3Z"/>
    <path class="cls-23" d="m63.51,38.2c-.43.09-.86.19-1.3.28,0-.24,0-.49,0-.73-.06-.5-.12-1.01-.18-1.51,0-.33,0-.65-.01-.98.41.01.81.02,1.22.03-.29,1-.42,1.99.27,2.91Z"/>
    <path class="cls-24" d="m37.75,47.06c.25.14.51.28.76.42-.03.62-.78,1.56.38,1.71,1.42.17,1.41,1.02,1.36,2.02-.17-.06-.34-.12-.51-.17.07-.75-.07-1.22-1-1.35-.37-.05-.78-.7-.95-1.15-.16-.43-.04-.97-.04-1.47Z"/>
    <path class="cls-18" d="m59.27,40.76c-.17-.09-.35-.18-.52-.26.16-.83.32-1.67.48-2.5.1-.16.2-.32.29-.49,1.19.55.59,1.61.69,2.47-.31.26-.63.52-.94.78Z"/>
    <path class="cls-5" d="m60.75,33.21c-.05-.88.57-1.2,1.24-1.16.66.04,1.56.06,1.51,1.16-.92,0-1.83,0-2.75,0Z"/>
    <path class="cls-10" d="m72.01,38.22c-.11-.1-.22-.2-.34-.3.19-.39.39-.78.58-1.17,1.5.11,1.56,1.15,1.49,2.28-.58-.27-1.15-.54-1.73-.81Z"/>
    <path class="cls-16" d="m55.03,35.34c.07.97.14,1.93.22,2.9-.25,0-.49,0-.74,0-.09-.25-.17-.5-.26-.75.08-.72.15-1.45.23-2.17.18,0,.37.01.55.02Z"/>
    <path class="cls-24" d="m58.29,37.25c-.1-.32-.21-.64-.31-.97.09-.34.18-.69.27-1.03.17.08.33.17.5.25.17.08.33.17.5.25,0,.5,0,1,0,1.5-.32,0-.64,0-.96,0Z"/>
    <path class="cls-24" d="m53.5,50.25c.49-.2,1-.39,1.48-.61.43-.19.85-.42,1.27-.64-.74,1.24-1.94,1.83-3.25,2.25,0,0,0,0,0,0,.17-.33.33-.67.5-1Z"/>
    <path class="cls-5" d="m53,33.21c.51-.31,1-.69,1.55-.89.11-.04.46.58.7.89-.75,0-1.5,0-2.25,0Z"/>
    <path class="cls-5" d="m68,34.21c.31-.39.63-.78.94-1.17.19.39.37.78.56,1.17-.5,0-1,0-1.5,0Z"/>
    <path class="cls-20" d="m52.25,52.21c-.58,0-1.17,0-1.75,0,.83-.32,1.66-.64,2.5-.96,0,0,0,0,0,0,0,.08,0,.17,0,.25-.25.24-.5.47-.75.71Z"/>
    <path class="cls-10" d="m62.02,35.26c0,.33,0,.65.01.98-.34,0-.69,0-1.03.01-.16-.19-.37-.36-.44-.58-.02-.08.29-.35.48-.39.31-.07.65-.02.98-.02Z"/>
    <path class="cls-24" d="m57.25,47.75c0-.58,0-1.15,0-1.73.17-.17.34-.34.51-.51.4.88.35,1.65-.52,2.24Z"/>
    <path class="cls-24" d="m61,36.25c.34,0,.69,0,1.03-.01.06.5.12,1.01.18,1.51l-1.22-1.5Z"/>
    <path class="cls-24" d="m59.27,40.76c.31-.26.63-.52.94-.78.43.96-.43,1.25-.9,1.75-.02-.33-.03-.65-.05-.98Z"/>
    <path class="cls-24" d="m46.01,37.01c-.17-.17-.34-.34-.51-.51.26-.33.52-.66.78-.99-.09.5-.18,1-.27,1.5Z"/>
    <path class="cls-24" d="m58.25,35.25c-.09.34-.18.69-.27,1.03-.25-.17-.49-.34-.74-.51,0-.18,0-.35.01-.53.33,0,.67,0,1,0Z"/>
    <path class="cls-24" d="m58.29,37.25c.32,0,.64,0,.96,0,.09.09.18.17.27.26-.1.16-.2.32-.29.49-.31,0-.62,0-.93,0,0-.25,0-.5,0-.74Z"/>
    <path class="cls-24" d="m41.5,36.46c-.33,0-.67,0-1,0,.19-.21.37-.42.56-.63.15.21.29.42.44.63Z"/>
    <path class="cls-24" d="m37.77,36.78c-.34-.03-.68-.05-1.01-.08.42-.06.84-.12,1.26-.18-.08.09-.16.17-.24.26Z"/>
    <path class="cls-24" d="m14.26,42.18c-.34.17-.68.34-1.01.51.17-.27.34-.55.54-.8.02-.02.31.19.47.29Z"/>
    <path class="cls-24" d="m64.99,33.47c.51-.39.94-.38,1.21.28-.4-.09-.81-.19-1.21-.28Z"/>
    <path class="cls-24" d="m40,36.45c-.41,0-.82,0-1.24,0,.41-.21.82-.88,1.24,0Z"/>
    <path class="cls-24" d="m52.25,52.21c.25-.24.5-.47.75-.71,0,.24,0,.47,0,.71-.25,0-.5,0-.75,0Z"/>
    <path class="cls-24" d="m34.17,39.5c-.22.33-.45.66-.67.99.22-.33.45-.66.67-.99Z"/>
    <path class="cls-24" d="m34.77,36.51c-.02.16-.04.33-.06.49-.21-.11-.41-.23-.62-.34.23-.05.45-.1.68-.15Z"/>
    <path class="cls-24" d="m59.29,42.75c0-.17,0-.33,0-.5.12.08.24.17.36.25-.12.08-.24.17-.36.25Z"/>
    <path class="cls-24" d="m59.25,35.75c-.17-.08-.33-.17-.5-.25.17.08.33.17.5.25Z"/>
    <path class="cls-24" d="m15,41.75c-.08.06-.17.13-.25.19.04-.16.09-.32.13-.48.04.1.08.19.12.29Z"/>
    <path class="cls-24" d="m57.25,35.25c0,.18,0,.35-.01.53-.08-.09-.16-.17-.25-.26.09-.09.17-.18.26-.27Z"/>
    <path class="cls-5" d="m34.47,47c-.12-.07-.24-.13-.36-.21.12.07.24.14.36.21Z"/>
    <path class="cls-24" d="m37.5,49.95c-.08-.07-.17-.13-.25-.2.08.07.17.13.25.2Z"/>
    <path class="cls-24" d="m71,34.55c.07.07.13.13.2.2-.07-.07-.13-.13-.2-.2Z"/>
    <path class="cls-24" d="m61.94,39c-.06.06-.13.13-.19.19.06-.06.13-.13.19-.19Z"/>
    <path class="cls-15" d="m63.76,51.53c-.13-1.61-.64-1.8-2.48-.98-.64.28-1.31.53-2.2.88-.56,1.39-2.77,2.46-4.12,1.57.71-.6,1.39-1.16,2.07-1.72.98-.17,1.8-.45,2.04-1.64.09-.43.78-.71,1.02-1.15.71-1.32,1.44-2.65,1.94-4.06.35-.98.42-2.08.46-3.13.03-.86.3-1.32,1.14-1.67.56-.23.93-.9,1.39-1.37,1.45.47,2.87,1.03,4.34,1.39.85.21,1.79.1,2.68.13,1.65.98,3.47.72,5.25.73,0,.25,0,.5.01.74-.16.33-.32.67-.48,1-1.69,1.74-3.38,3.48-5.06,5.22l-1.24,1.09c-.63-.19-1.05,0-1.21.67-.01.09-.03.17-.04.26-.58.1-1.17.21-1.75.31-.17,0-.34,0-.51,0l.03-.08c-.52-.66-.98-1.38-1.59-1.94-.23-.21-.93-.21-1.2,0-.27.19-.46.83-.34,1.15.29.8.78,1.52,1.19,2.28-.44.12-.88.23-1.31.35Z"/>
    <path class="cls-12" d="m77.28,40.51c-1.78-.01-3.6.25-5.25-.73,0-.52-.01-1.04-.02-1.56.58.27,1.15.54,1.73.81.92.07,1.85.1,2.76.24.73.12,1.68-.11,1.96.96-.17.02-.34.04-.51.06-.23.07-.45.14-.68.21Z"/>
    <path class="cls-10" d="m76.81,42.25c.16-.33.32-.67.48-1,.13.19.27.38.4.57-.3.14-.59.29-.89.43Z"/>
    <path class="cls-10" d="m77.96,40.3c.17-.02.34-.04.51-.06,0,.15,0,.3,0,.46-.17-.13-.35-.26-.52-.39Z"/>
    <path class="cls-3" d="m65.07,51.18c-.41-.75-.9-1.48-1.19-2.28-.12-.32.07-.95.34-1.15.27-.2.97-.21,1.2,0,.61.56,1.07,1.28,1.59,1.94-.65.49-1.29.98-1.94,1.47Z"/>
    <path class="cls-7" d="m53.5,54.46c.08.03.17.06.25.09.08.24.17.47.25.71,0,.17,0,.33,0,.5-.17.17-.33.33-.5.5-.08,0-.17,0-.25,0-.33,0-.67,0-1,0-.33,0-.66,0-1,0,.15-1.05-.53-1.05-1.25-.99-.18,0-.35-.01-.53-.02.74-.31,1.23-1.36,2.28-.78.58,0,1.17,0,1.75,0Z"/>
    <path class="cls-7" d="m34.5,54.54c.91-.01,1.82-.1,2.72,0,.35.04.66.47.99.72-.32.16-.64.33-.95.49-.08,0-.16,0-.25,0-.08,0-.17,0-.25,0-.17.08-.33.17-.5.25-1.1.13-1.88-.12-1.75-1.46Z"/>
    <path class="cls-24" d="m25.5,53.54h4.39c.06.19.22.68.37,1.17-.2.02-.51.12-.58.03-.8-1.01-1.83-.93-2.88-.63-.62.18-1.15.26-1.31-.57Z"/>
    <path class="cls-10" d="m34.5,54.54c-.12,1.34.65,1.59,1.75,1.46-.33.9-1.09.59-1.51.31-.67-.46-1.17-1.17-1.74-1.77.5,0,1,0,1.5,0Z"/>
    <path class="cls-10" d="m37.25,55.75c.32-.16.64-.33.95-.49.6.01,1.2.03,1.8.04-.71.66-2.31.93-2.75.46Z"/>
    <path class="cls-10" d="m50,55.26c.72-.06,1.41-.06,1.25.99-.42-.33-.84-.66-1.25-.99Z"/>
    <path class="cls-24" d="m19.7,51.42c.27.1.54.2.81.3-.35.11-.69.21-1.04.32.08-.21.15-.42.23-.62Z"/>
    <path class="cls-10" d="m54,55.25c-.08-.24-.17-.47-.25-.71.25-.03.5-.06.75-.08.08.03.17.06.25.08-.25.24-.5.47-.75.71Z"/>
    <path class="cls-20" d="m66.99,49.79c.17,0,.34,0,.51,0-.17.4-.33.8-.5,1.2,0-.4,0-.8-.01-1.2Z"/>
    <path class="cls-10" d="m52.25,56.25c.33,0,.67,0,1,0-.18.2-.35.4-.53.6-.16-.2-.31-.4-.47-.6Z"/>
    <path class="cls-2" d="m66.98,51.31c-.08.21-.16.43-.24.64-.13-.19-.25-.37-.44-.64h.67Z"/>
    <path class="cls-24" d="m24.25,52.54c.26.15.52.3.78.45-.26-.15-.52-.3-.78-.45Z"/>
    <path class="cls-10" d="m53.5,56.25c.17-.17.33-.33.5-.5-.17.17-.33.33-.5.5Z"/>
    <path class="cls-10" d="m36.75,55.75c.08,0,.17,0,.25,0-.08,0-.17,0-.25,0Z"/>
    <path class="cls-2" d="m69.25,49.49c.01-.09.03-.17.04-.26.23.15.46.29.68.44-.08.1-.17.2-.25.3-.16-.16-.32-.32-.47-.48Z"/>
    <path class="cls-4" d="m68.23,50.51h-.12s-.11-.02-.11-.02c.04-.06.08-.12.13-.18.04.06.07.13.11.19Z"/>
    <path class="cls-17" d="m53,51.25c-.83.32-1.66.64-2.5.96-1.83,0-3.67,0-5.5,0-.19-.25-.33-.62-.58-.72-1.06-.4-1.28-1.2-1.17-2.2.26-.02.51-.05.77-.07,1.6.12,3.21-.07,4.81.02.29.02.6-.18.9-.28,1.17.17,2.33.33,3.5.5.09.26.18.52.27.79-.17.33-.33.67-.5,1Z"/>
    <path class="cls-20" d="m43.25,49.29c-.11,1,.11,1.8,1.17,2.2.25.09.39.47.58.72-.94.01-1.9.16-2.8,0-.69-.13-1.3-.65-1.95-1,.04-1,.05-1.85-1.36-2.02-1.16-.14-.41-1.09-.38-1.71,1.58.6,3.16,1.21,4.74,1.81Z"/>
    <path class="cls-3" d="m53.5,54.46c-.58,0-1.17,0-1.75,0,.45-.35.9-.71,1.57-1.24.09.66.13.95.18,1.24Z"/>
    <path class="cls-11" d="m49.73,48.96c-.3.1-.6.29-.9.28-1.61-.08-3.21.11-4.81-.02-.76-1.25-.55-2.26.88-2.84,1-.4,1.24-.95,1.09-1.87.51-.66,1.01-1.32,1.52-1.97.08,0,.17,0,.25,0,.25.41.51.81.76,1.22l-.11,1.13c.34-.15.68-.28,1.01-.45.21-.11.39-.29.59-.44-.03.42-.03.85-.09,1.26-.08.52-.28,1.03-.3,1.55-.03.71.07,1.43.12,2.14Z"/>
    <path class="cls-6" d="m47.51,42.54c-.51.66-1.01,1.32-1.52,1.97-.7-.5-1.45-.93-2.07-1.51-.42-.39-.64-.98-.95-1.49,0-.42.02-.84.02-1.26,1.44-.05,1.67-.41,1.26-2.01.17-.16.35-.33.52-.49,0,.62-.02,1.24-.02,1.87.01,2.05.72,2.8,2.75,2.91Z"/>
    <path class="cls-19" d="m38.28,38.27c.41-.16.82-.33,1.23-.49.41-.02.83-.05,1.24-.07.43.34.86.67,1.29,1.01-.02.43-.04.85-.05,1.28-.25.1-.5.2-.75.29h-2.96v-2.02Z"/>
    <path class="cls-25" d="m41.24,40.29c.25-.1.5-.2.75-.29.33.09.67.17,1,.26,0,.42-.01.84-.02,1.26-.55-.44-1.87.19-1.73-1.23Z"/>
    <path class="cls-20" d="m47.51,42.54c-2.02-.11-2.73-.86-2.75-2.91,0-.62.01-1.24.02-1.87.41-.25.81-.51,1.21-.76.52.09,1.07.09,1.54.28.92.36,1.8.83,2.69,1.25-.08.74-.16,1.48-.24,2.22-.42.33-.84.66-1.27.99-.32.27-.64.54-.97.81-.08,0-.17,0-.25,0Z"/>
    <path class="cls-6" d="m49.99,40.74c.08-.74.16-1.48.24-2.22.34-.09.68-.18,1.02-.27,0,.5.09,1.02-.04,1.49-.15.56-.21,1.43-1.23,1Z"/>
    <path class="cls-17" d="m58.29,37.99c.31,0,.62,0,.93,0-.16.83-.32,1.67-.48,2.5-.32-.66-.64-1.32-.96-1.98.17-.17.33-.35.5-.52Z"/>
    <path class="cls-16" d="m51.51,38.25c.07-.32.07-.69.24-.94.22-.31.58-.53.88-.78.2.33.4.65.61.98-.17.25-.33.5-.5.75-.41,0-.82,0-1.24,0Z"/>
    <path class="cls-18" d="m50,44.01c-.2.15-.38.32-.59.44-.32.17-.67.3-1.01.45.04-.38.07-.75.11-1.13.24-.17.47-.35.71-.52.26.26.52.51.78.77Z"/>
    <path class="cls-6" d="m49.22,43.24c-.24.17-.47.35-.71.52-.25-.41-.51-.81-.76-1.22.32-.27.64-.54.97-.81.17.5.34,1.01.5,1.51Z"/>
    <path class="cls-18" d="m52.75,38.25c.17-.25.33-.5.5-.75.33,0,.67,0,1,0,.09.25.17.5.26.75-.59,0-1.17,0-1.76,0Z"/>
    <path class="cls-18" d="m56.25,38.25c.25-.17.49-.35.74-.52.17.26.34.52.51.78-.42-.08-.83-.17-1.25-.25Z"/>
    <path class="cls-11" d="m42.99,40.26c-.33-.09-.67-.17-1-.26.02-.43.04-.85.05-1.28.4-.16.79-.32,1.19-.48.17-.07.34-.14.51-.21.17,0,.33,0,.5,0,0,.07,0,.15,0,.22.4,1.61.18,1.96-1.26,2.01Z"/>
    <path class="cls-21" d="m43.23,38.23c-.4.16-.79.32-1.19.48-.43-.34-.86-.67-1.29-1.01,1.01-.76,2.74-.61,3.49.31-.17,0-.33,0-.5,0-.17.07-.34.14-.51.21Z"/>
    <path class="cls-6" d="m43.23,38.23c.17-.07.34-.14.51-.21-.17.07-.34.14-.51.21Z"/>
  </g>
  <path class="cls-13" d="m10.37,37.6c-.36,2.3-.72,4.6-.97,6.92-.13,1.16-.22,2.35.03,3.49.23,1.05.74,2.01,1.24,2.96.42.79.84,1.58,1.25,2.37"/>
</svg>