<?xml version="1.0" encoding="UTF-8"?>
<svg id="Layer_1" data-name="Layer 1" xmlns="http://www.w3.org/2000/svg" viewBox="0 0 145.34 258.64">
  <defs>
    <style>
      .cls-1 {
        fill: #979797;
      }

      .cls-2 {
        fill: #f0f0f0;
      }

      .cls-3 {
        fill: #030202;
      }

      .cls-4 {
        fill: #d8d8d8;
      }

      .cls-5 {
        fill: #6c6f6d;
      }

      .cls-6 {
        fill: #c1c0c1;
      }

      .cls-7 {
        fill: #878586;
      }

      .cls-8 {
        fill: #020202;
      }

      .cls-9 {
        fill: #d6d6d6;
      }

      .cls-10 {
        fill: #e91a24;
      }

      .cls-11 {
        fill: #d7d7d7;
      }

      .cls-12 {
        fill: #969696;
      }

      .cls-13 {
        fill: none;
        stroke: #000;
        stroke-miterlimit: 10;
        stroke-width: 2px;
      }

      .cls-14 {
        fill: #690322;
      }

      .cls-15 {
        fill: #96012e;
      }

      .cls-16 {
        fill: #98002f;
      }

      .cls-17 {
        fill: #d9d8d9;
      }

      .cls-18 {
        fill: #484e4c;
      }

      .cls-19 {
        fill: #040202;
      }

      .cls-20 {
        fill: #980030;
      }

      .cls-21 {
        fill: #aeaead;
      }

      .cls-22 {
        fill: #98012f;
      }

      .cls-23 {
        fill: #010101;
      }

      .cls-24 {
        fill: #c1bfc1;
      }
    </style>
  </defs>
  <g>
    <path class="cls-23" d="m66.41,258.64h-2c-.08-.82.34-1.8-.74-2.29-.97-1.54-2.37-2.91-2.25-4.92.07-1.04-.15-1.87-1.03-2.49-.2-.14-.38-.35-.49-.56-1.45-2.83-2.89-5.67-4.32-8.51-.1-.21-.19-.47-.17-.69.32-2.96-2.21-4.98-2.51-7.74-.07-.67-.49-1.31-.5-1.97-.06-4.52-.05-9.04-.07-13.56,0-2.85,0-5.69,0-8.54.11-1.18.22-2.35.33-3.53.81.18,1.62.37,2.43.55,0,0,0-.03,0-.03.09.09.18.18.27.27.35.31.7.63,1.05.94.21.19.42.38.63.57.61.91,1.21,1.82,1.82,2.72.65.68,1.3,1.37,1.95,2.05.5.5,1,1,1.51,1.49.27.26.54.53.8.79.25.32.5.63.75.95.83,1.26,1.67,2.51,2.5,3.77.1.25.21.49.31.74.81.86,1.62,1.73,2.44,2.59.44.79.88,1.57,1.33,2.36-.1.6.12.9.75.83.07,0,.14,0,.21-.04.17.01.34.03.51.04.34.33.67.67,1.01,1,.5.75,1,1.5,1.5,2.26.5.6.99,1.2,1.49,1.8.5.75,1.01,1.49,1.51,2.24.33.34.65.67.98,1.01.51.23,1.02.46,1.53.69.39.2.79.39,1.18.59.19.17.38.34.57.51.16.14.44.41.46.39.62-.53,1.21-1.1,1.8-1.66.03-.08.06-.16.08-.25.15-.1.3-.2.45-.3.07-.08.14-.15.21-.23h.01c.16-.08.33-.16.49-.23,0,0,.02-.02.02-.02.16-.07.32-.13.48-.2,0,0-.02-.1-.02-.1.1-.07.2-.13.31-.2.82-.83,1.65-1.67,2.47-2.5.33-.34.66-.69.99-1.03.03-.06.04-.11.02-.18.43-.53.87-1.06,1.3-1.58.14-.18.28-.35.42-.53-.01-.07-.02-.14-.04-.22.14-.26.28-.51.42-.77.21-.41.42-.82.64-1.23.21-1.89.73-3.8-.5-5.55-.08-.15-.16-.31-.25-.46,0,0-.04-.06-.04-.06-.07-.09-.14-.18-.22-.27-.22-1.12-1.05-1.01-1.87-.94-.21-.03-.43-.06-.64-.09-.03-.1-.07-.2-.1-.3-.06.04-.11.08-.17.11-.57-.1-1.14-.21-1.71-.31-.18-.09-.35-.17-.53-.26-.24-.24-.47-.47-.71-.71-.01-.34-.03-.68-.04-1.01-.29-1.72-.64-2.07-1.75-1.76-1.01-.36-2.02-.72-3.03-1.08l-.22-.17c-.4-.76-.81-1.52-1.21-2.28.02-.2.04-.41.06-.61-.12.05-.25.09-.37.14-.63.19-1.22.34-1.72-.33-.13-.18-.51-.17-.78-.24-.27-.14-.53-.28-.8-.42-1.19-.93-2.61-1.69-3.52-2.85-.96-1.23-1.91-1.38-3.19-.95h0c-1.17-1.17-2.35-2.34-3.52-3.51-.35-.21-.69-.41-1.04-.62-.08-.04-.16-.08-.24-.12-.5-.32-1-.64-1.51-.96-.25-.27-.5-.53-.74-.8-.41-.42-.83-.84-1.24-1.25l-.69-.63c-.43-.14-.86-.28-1.29-.43h0c-.26-.2-.52-.41-.78-.63-.36-.1-.71-.2-1.07-.3-.48-1.26-.97-2.51-1.46-3.77.08-.7-.19-1.09-.94-1.05,0-.33-.01-.66-.02-1,.66-1.92,1.55-3.8,1.89-5.77.22-1.28.5-2.44,1.14-3.55.06-.09.13-.18.19-.27,0-.08.02-.16.05-.23.07-.09.13-.18.2-.28.33-1.16.65-2.33.98-3.49.17-.42.33-.84.5-1.26.19-.58.38-1.17.57-1.75.14-.26.29-.51.43-.77.19-.41.39-.83.58-1.24.12-.19.23-.37.35-.56.05-.07.11-.13.16-.2.06-.1.13-.19.19-.29.07-.24.14-.49.22-.73.03-.08.07-.17.1-.25.07-.17.13-.33.2-.5l.21-.73c.45-1.02.9-2.03,1.34-3.05.06-.09.13-.18.19-.27.35-1.16.69-2.32,1.04-3.48h0c.18-.25.35-.51.53-.77.06-.09.13-.18.19-.27.07-.24.15-.49.22-.73.04-.08.08-.17.11-.25l.34-.25c-.11-.08-.23-.17-.34-.25,0-.08-.01-.17-.02-.25.17-.16.35-.32.52-.48.37-.69.64-1.45,1.12-2.05.62-.79.85-1.52.71-2.56-.14-1.05,0-2.2.31-3.22.85-2.82,3.25-4.98,3.49-8.07,1.67-1.63,1.16-4.05,2.11-5.95.3-.6.14-1.46.49-2.01.75-1.17.73-2.38.69-3.67-.03-.81.06-1.65.24-2.44.56-2.43,1.19-4.85,1.79-7.27.03-.12,0-.25,0-.38,0-2.59,0-5.19-.01-7.78,0-.38-.15-.76-.23-1.14,0-.15-.02-.3-.02-.44,0-.08.02-.17.03-.25,0,0-.03-.08-.03-.08.08.03.15.04.23.03,1.13-.13,1.05-.97,1.03-1.77.35-.5.7-.99,1.05-1.49.87-.77,1.8-1.48,2.58-2.33.5-.55.76-1.31,1.13-1.98.5-.49,1-.99,1.5-1.48.72-.08,1.45-.16,2.17-.25.78-.1.72-.5.36-1.01.06-.25.13-.51.19-.76,0,0,.09.03.09.03,1.09-.9,2.19-1.78,3.26-2.71.22-.2.32-.54.47-.82.5-.5,1-1.01,1.5-1.51.59-.67,1.17-1.34,1.76-2.01.66-.18,1.41-.32.72-1.27.1-.25.21-.49.31-.74,1.39-.03,1.21-1.05,1.22-1.95l.99-.84c.14.16.32.48.43.46.69-.13,1.35-1.7,1-2.46-.37.29-.73.57-1.09.85-.28.21-.56.42-.83.64-.42.33-.85.65-1.27.98-.45.17-.99.23-1.34.52-.79.67-1.42,1.53-2.22,2.19-1.07.88-2.24,1.63-3.34,2.47-.24.19-.54.5-.55.77-.06,1.31-1.11,1.64-1.99,2.14-.35.2-.79.32-1.05.6-1.59,1.79-3.64,2.82-5.78,3.72-.07,0-.14-.01-.21-.01-.8-.19-1.18-.63-1.08-1.51.02-.23-.43-.51-.66-.77-.1-1.02-.28-2.04-.29-3.06-.03-4.21,0-8.43-.03-12.64,0-.44-.14-.88-.26-1.31-.22-.8-.58-1.57-.7-2.38-.13-.9-.06-1.83-.07-2.75-.1-1.5.55-3.11-.66-4.45-.6-1.13-1.2-2.26-1.8-3.39,0-.06,0-.13,0-.19-.07-.09-.14-.18-.2-.27l-.27-.5c-.08-.5-.17-1.01-.25-1.51-.51-1.24-1.03-2.49-1.54-3.73.65-1.04,1.48-1.77,2.82-1.56,1.07.67,2.15,1.33,3.22,2,.16.1.32.19.49.29.37.17.75.33,1.12.5,1.38.6,2.76,1.21,4.14,1.81.43.23.87.45,1.3.68.49.1.97.2,1.46.3.33.87.92,1.11,1.76.71.5.18,1,.37,1.5.55.23.22.46.45.69.67.09-.44.18-.88.27-1.33.08-.3.16-.6.24-.9,1.39-.21,1.96-.98,1.49-2.02.1-2.16.17-4.32.32-6.48.07-1-.31-1.5-1.28-1.58h-.48c-.16.03-.33.04-.49.06-.08.03-.15.07-.23.1-1.02.14-2.04.29-3.06.43-.31-.08-.63-.16-.94-.25-1.16-.35-2.32-.7-3.48-1.04-.2-.06-.49-.02-.59-.14-1.02-1.27-2.45-.73-3.71-.9l-.55-.31c-.03-.06-.08-.1-.13-.13-.37-.19-.73-.38-1.1-.56-.41-.8-.96-.51-1.51-.19-.15-.03-.3-.06-.45-.1-.75-1.04-1.88-.36-2.8-.63-.74-.12-1.47-.25-2.21-.37-.1-.22-.2-.44-.3-.66-.41-1.49-1.6-1.3-2.71-1.27-.2-.31-.35-.65-.59-.92-1.02-1.13-2.3-2.1-3.02-3.39-.9-1.59-2.1-2.82-3.41-4-.09-.84-.68-.78-1.28-.7-1.04.15-1.81-.26-2.43-1.07-.22-.28-.54-.49-.81-.73-.17-.06-.34-.12-.51-.19-.29-.09-.58-.17-.87-.26-.88-.61-1.76-1.22-2.64-1.83-.89-1.12-2.16-.59-3.27-.77-.25-.06-.51-.12-.76-.18-.27-.25-.54-.5-.82-.75.05-.14.1-.28.15-.42l-.35.19h-.97c.29.47.45.94.77,1.18,1.47,1.13,2.99,2.2,4.49,3.29.58.52,1.16,1.04,1.74,1.56.67.41,1.34.82,2.01,1.24l2.69,2.39c.62.77,1.23,1.54,1.85,2.31,0,.28,0,.56,0,.83-.07.08-.15.16-.22.24-.68.14-1.35.29-2.03.43-.2-.03-.39-.05-.59-.08-.48-.04-.96-.08-1.43-.12-2.57.51-4.75-1.39-7.28-1.19-.17.01-.35-.2-.53-.3-.91-.19-1.82-.38-2.73-.57-.12-.06-.23-.11-.35-.17-.8-.28-1.6-.55-2.4-.83-.52-.19-1.07-.6-1.54-.52-1.02.17-1.91.05-2.64-.64-.98-.93-1.49-.32-2.18.63,1.3.36,2.08,1.83,3.63,1.04.5.19.99.39,1.49.58.09.06.18.12.27.18v-.02c.17.74.53,1.02,1.23.53.33.17.66.34,1,.52.03.57.06,1.12.78.44.49.03.98.05,1.47.08.34.23.68.46,1.03.68.25.18.5.37.76.55.24.01.48.03.73.04.48.79.66.82,1.02.16l1.25.62.33.17c.3.11.61.19.9.33,1.76.89,3.52,1.79,5.28,2.68.35.25.7.51,1.05.76.32.28.64.55.96.83.08.07.16.13.24.2.5.24,1.01.47,1.51.71.17.09.33.18.5.27.57.27,1.14.54,1.71.81.33.33.67.67,1,1l.54.71c.15.17.29.35.44.52-.31,1.93-.45,3.8.77,5.57.53.77.65,1.81.96,2.73-.02.02-.07.06-.07.07.02.06.05.11.08.16.09.56.12,1.14.28,1.68.21.72.72,1.41.74,2.12.08,3.38.07,6.76.01,10.14-.01.63-.37,1.27-.58,1.89-.11.32-.33.63-.38.95-.13.94-.19,1.88-.27,2.82-.25.36-.71.71-.71,1.07-.01,5.09.04,10.18.07,15.26-.03,1.18-.05,2.35-.08,3.53-.01.16-.03.32-.04.48-.31.02-.62.04-.99.06v3h-.96v4.25c-.02.25-.05.51-.07.76l-.99.05c-.95.08-1.1-.49-1.01-1.26-.04-.22-.09-.44-.13-.66-.12.11-.23.22-.35.34-.2.44-.4.87-.6,1.31-.05.07-.1.15-.16.22-.1.32-.2.65-.3.97-.25.25-.51.51-.76.76-.13.02-.27.04-.4.06-.1-.09-.2-.18-.3-.28,0-.26,0-.53-.01-.79.01-.15.02-.3.04-.46l1.07-1.53c.05-.08.11-.16.16-.24.02-.09.05-.17.07-.26.06-.09.11-.17.17-.26.32-.32.64-.65.96-.97.1-.18.19-.36.29-.54.02-.25.03-.49.05-.74.07-.08.14-.16.21-.25.24-.75.47-1.51.71-2.26.08-.34.17-.67.25-1.01.19-.84.38-1.67.57-2.51.16-.47.46-.95.46-1.42.02-5.39,0-10.79-.02-16.18.18-.83.37-1.67.55-2.5.07-.26.14-.51.21-.77.16-.42.32-.84.48-1.26.08-.25.17-.5.25-.75.05-.07.07-.14.07-.23.16-.44.47-.88.47-1.32.03-3.09,0-6.17-.02-9.26-.13-.43-.26-.85-.4-1.28-.2-.83-.4-1.66-.6-2.49-.22-.68-.45-1.35-.67-2.03-.02-.08-.04-.15-.05-.23-.07-.08-.14-.17-.21-.25-.24-.41-.48-.82-.72-1.23-.12-.51-.25-1.02-.37-1.53,0-.25,0-.5,0-.75-.06-.42-.11-.84-.17-1.26-.18-.18-.35-.35-.53-.53-.34-.23-.68-.46-1.03-.7l.03-.1c-.43-.23-.86-.45-1.28-.68-.17-.03-.35-.06-.52-.08-.4-.15-.79-.29-1.19-.44-.42-.42-.84-.84-1.25-1.26-.17-.17-.33-.33-.5-.5-.26-.26-.51-.51-.77-.77-.09-.09-.17-.19-.26-.28-.09-.94-.75-1.01-1.48-.97-.41-.72-.83-.79-1.26-.02-.26,0-.51,0-.77,0-.25-.15-.5-.31-.74-.46l-2.26-1.71c-.67-.03-1.34-.06-2-.09-.09-.71-.48-.76-1.02-.45-.41-.09-.82-.19-1.23-.28-.25-.16-.5-.32-.74-.48-.34-.18-.68-.37-1.02-.55l-.28-.18c-.15-.01-.3-.03-.45-.04-.09-.14-.18-.29-.28-.43-.16-1.32-1.16-1.04-2-1.05-.08-.08-.17-.15-.25-.23-.13-.25-.27-.5-.4-.74-.2.22-.39.44-.59.67-.08.03-.17.06-.25.09-.08-.03-.17-.06-.25-.08-.34-.14-.68-.29-1.01-.43l-1.75-.82c-.09-.07-.17-.14-.26-.21-.33-.18-.66-.36-.99-.55-.08-.12-.17-.24-.25-.36-.08.12-.17.24-.25.36-.25-.16-.5-.31-.75-.47-.08-.5-.17-1-.25-1.51l.5-2.97c1.42-.03,2.84-.06,4.26-.09.17,0,.33,0,.5,0,.33.03.67.06,1,.08.32.15.64.31.96.46.35.15.71.31,1.06.46l-.03.08c-.08.84.36,1.23,1.14,1.2.64-.03,1.27-.16,1.91-.25.25-.01.49-.02.74-.04l-.03.09c.29.32.55.85.88.91.79.14,1.62.05,2.43.05.4.07.81.15,1.21.22.08.03.17.06.25.08.57.8,1.3.82,2.15.53.35-.12.8-.21,1.13-.09.63.24,1.21.63,1.81.96l.24-.28c-.5-.59-.93-1.24-1.51-1.73-.32-.28-.87-.29-1.32-.42-.25-.1-.49-.19-.74-.29-.32-.24-.65-.48-.97-.72-.09-.09-.18-.18-.27-.27-.25-.42-.5-.84-.75-1.26-.34-.23-.68-.46-1.01-.68-.91-.69-1.82-1.38-2.73-2.06-.43-.32-.85-.64-1.28-.96-.08-.02-.17-.05-.25-.07-.09-.06-.18-.13-.28-.19h.01c-.25-.16-.5-.34-.75-.52-.25-.07-.49-.14-.74-.21-.08-.03-.17-.06-.25-.08-.26-.15-.52-.3-.78-.44h.01c-.06-.08-.12-.17-.19-.26-.17-.48-.34-.96-.52-1.44.16-.93.31-1.86.47-2.79.08-.03.17-.06.25-.09.25,0,.5-.01.75-.02.25,0,.5,0,.75.01.33,0,.67,0,1,0,.17,0,.33,0,.5,0,.24.1.71.22.7.3-.08.87.6.7,1.05.82.19,1.25.43,1.35,2.04.92.32-.01.65-.02.97-.03.67,0,1.34,0,2,0,.33.19.66.37.99.56h0c.45.18.9.36,1.35.54-.24.88.26,1,.95.94.16.08.31.16.47.23l.08.06h.1c1.1.58,2.2,1.17,3.31,1.76h0c.51.26,1.02.53,1.53.8.16.06.32.13.47.19,1.05,1.01,2.8,1.03,3.52,2.51l.53,1.23c.15.09.29.19.44.28,1.1,1.18,2.21,2.37,3.31,3.55.15.16.29.32.44.48l.04.04c.01.05.02.11.01.16.17.42.35.84.52,1.26-.2,1.57.78,1.21,1.66,1.03,1.1.91,2.38.38,3.59.46.91.1,1.82.2,2.74.3.01.52.14.91.79.7l-.03.1c.31,1.38.46,1.44,2.31.95.24,0,.48-.02.72-.03.17,0,.33,0,.5,0,.42,0,.84,0,1.25,0,.42.1.83.2,1.25.3.06.08.13.16.19.24.27.15.54.31.82.46.84,0,1.67,0,2.51,0,.24.11.48.22.73.33h-.01c-.03.56.16.87.79.67,1.34,0,2.67,0,4.01,0,.75.11,1.49.22,2.24.34.05.23.08.47.17.69.27.63.79,1.23.81,1.86.1,2.46.05,4.93.03,7.4,0,.4-.06.83-.22,1.18-.73,1.56-1.52,3.09-2.29,4.64-.41.27-.83.55-1.24.82-1.17-.03-2.34-.06-3.51-.08-.25-.15-.51-.3-.76-.46-.16-.1-.33-.2-.49-.3-.51-.32-1.02-.63-1.54-.95-.91-.02-1.82-.04-2.72-.05-.23-.56-.38-1.27-1.25-.72l-1.01-.3c-.1-.06-.19-.12-.29-.18-.23-.1-.47-.21-.7-.31-.34-.14-.68-.28-1.02-.42-.17-.11-.34-.23-.5-.34-.09-.06-.18-.13-.28-.19-.34-.28-.68-.56-1.23-1.01.03.61.05.93.07,1.25.06.06.12.12.18.18.17.38.34.75.51,1.13.59,1.32,1.18,2.64,1.77,3.95.07.09.15.17.22.26.09,1.35.2,2.71.26,4.06.04.96-.01,1.92.02,2.88,0,.29.16.57.27.85.23.58.69,1.15.69,1.72.04,5.46,0,10.92,0,16.39-.12.07-.24.15-.36.22.14.09.29.17.43.26.07,0,.14,0,.21,0,.94.28,1.74-.29,2.01-1.44.23-.18.46-.37.69-.55.77-.76,1.53-1.51,2.3-2.27.09-.07.19-.14.28-.2l-.03-.08c.79.13,1.49.13,1.49-.96.02-.17.04-.34.07-.51.07-.09.13-.19.2-.28,0-.06.02-.13.02-.19l.49-.08c.09.03.17.06.26.09.2,1.08.61,1.18,1.44.43.62-.56.5-1.11.3-1.75.08-.08.16-.16.24-.24.44.08.91.31,1.3.21.47-.11.88-.48,1.3-.77.02-.01-.18-.34-.28-.52.22-.56.45-1.12.67-1.68.1-.24.19-.48.29-.72.33-.03.66-.05.99-.08.09.03.18.07.26.1.4.88.83.16,1.24.03-.1-.28-.2-.56-.29-.85.35-.43.7-.86,1.04-1.3.08.03.17.06.25.09.11.14.21.28.32.42.14-.14.29-.28.43-.43,0,0,.11-.05.11-.05h.12c.44-.06,1.19.16.72-.77.34-.33.68-.67,1.02-1,.9.37,1.76.31,2.58-.25,1.25.64,1.32,1.1.39,1.98-.22.2-.41.57-.4.86.02,1.81-.97,3.18-1.99,4.5-.86,1.11-2.19,1.87-2.3,3.48-.41.42-.83.84-1.24,1.26-.28.24-.58.47-.84.73-4.13,4.14-8.25,8.3-12.4,12.42-.78.77-1.44,1.56-1.54,2.69-.27.27-.55.55-.82.82-.23.16-.45.32-.68.48-.07.07-.14.14-.2.21-.01,3.68,0,7.36-.06,11.04,0,.58-.25,1.17-.45,1.74-.12.35-.48.65-.51.99-.08.83,0,1.67-.04,2.51-.03.48-.08,1.3-.31,1.37-1.17.37-.65,1.34-.74,1.99-.16,1.05-.02,2.15,0,3.23l-.91.53c-.19.55-.37,1.11-.57,1.66-.15.42-.42.81-.47,1.24-.13,1.13-.16,2.26-.23,3.39-.09.07-.18.13-.26.2-.25.22-.68.42-.72.67-.11.7-.05,1.42-.06,2.13-.59.22-1.32.37-.75,1.28-.12.59-.15,1.21-.37,1.75-.57,1.35-1.24,2.66-1.86,3.99-.08.09-.17.19-.25.28-.09.07-.17.14-.25.22-.06.09-.12.19-.18.28-.02.74.06,1.5-.08,2.21-.15.82-.48,1.61-.74,2.41-.05.05-.11.1-.16.15-.07.32-.07.67-.21.96-.48.97-1.17,1.86-1.49,2.87-.38,1.23-1.55,2.09-1.47,3.53.03.48-.44.99-.68,1.49-.07.07-.14.13-.2.2.34,1.73-.86,2.99-1.4,4.43-.55,1.45-1.83,2.6-1.69,4.34.02.22-.14.48-.27.68-.94,1.44-1.76,2.92-1.97,4.68-.04.34-.31.64-.48.96-.06.08-.12.16-.17.23-.27.56-.55,1.13-.82,1.69-.08.28-.15.55-.23.83-.01.62.04,1.26-.05,1.87-.11.7-.32,1.39-.55,2.06-.18.53-.61,1.01-.66,1.54-.15,1.71.64,3.1,1.72,4.34l.5.55c.66.87.87-.13,1.28-.31.24.18.48.36.71.54l2.77,2.74.25.25c.93.94,1.85,1.87,2.78,2.81.08.2.15.4.23.61.17-.23.34-.45.52-.68l.54.37c.01.06.05.1.11.11.28.2.56.4.83.6.43.5.85,1,1.28,1.5.93.44.97-.21,1.01-.84.54.5,1.07,1,1.61,1.5l1.39,1.27c1,.42,2,.83,3.01,1.25.58.53,1.16,1.06,1.74,1.58.58.5,1.15,1,1.73,1.49.26.33.53.66.79.99.19.24.38.48.56.71.15-.16.3-.32.44-.48.25.18.49.37.74.55.54.57,1.02,1.2,1.63,1.68.74.59,1.59,1.04,2.39,1.55l.5.26h0c.09.06.17.14.26.21.66.35,1.32.7,1.98,1.05.09.06.19.12.28.18.33.08.67.16,1,.23.53.61,1.06,1.22,1.59,1.83.57,1.43,1.45,2.74,1.21,4.45-.17,1.17,0,2.4,0,3.6-.03.25-.06.5-.09.75-.16.15-.31.31-.47.46l.03.08c-.98-.05-.4.68-.51,1.05-.19.63-.12,1.57-.52,1.86-1.53,1.11-1.85,2.86-2.61,4.38-.3.4-.6.79-.9,1.19-.59.5-1.17,1-1.76,1.5-.91.35-1.83.7-2.74,1.05-.25.07-.5.13-.76.2-.84.26-1.67.52-2.51.78-.15.17-.29.35-.44.52-.05.07-.07.14-.07.23-2.16.73-3.01.06-3.66-1.45-.46-1.08-1.14-1.83-1.82-2.67-1.3-1.6-2.54-3.26-3.8-4.89-.07-.1-.09-.24-.17-.33-.85-1.08-1.71-2.16-2.57-3.23-.87-.9-1.76-1.78-2.59-2.7-.43-.48-.79-1.03-1.14-1.58-.97-1.48-1.77-3.11-2.91-4.43-1.63-1.9-3.53-3.56-5.28-5.36-.36-.37-.6-.86-.84-1.33-.58-1.11-1.12-2.24-1.68-3.36-.1.04-.2.09-.3.13v20.42c-.5,2.94,1.42,5,2.66,7.31.03.16.06.32.09.48-.01.12-.06.26-.04.37.35,1.52.62,3.07,1.09,4.55.3.93.9,1.76,1.36,2.63.62,1.02,1.25,2.03,1.87,3.05.55.99,1.09,1.99,1.64,2.98.09.59.17,1.17.26,1.76.92,1.76,1.83,3.52,2.75,5.28l.33,1.99c-.01.25-.03.5-.04.75Z"/>
    <path class="cls-11" d="m52.33,215.9c.01,4.52,0,9.04.07,13.56,0,.66.43,1.3.5,1.97.3,2.76,2.83,4.78,2.51,7.74-.02.22.06.48.17.69,1.43,2.84,2.87,5.68,4.32,8.51.11.22.29.42.49.56.88.62,1.09,1.45,1.03,2.49-.13,2.01,1.27,3.38,2.25,4.92-.25.76-.51,1.52-.76,2.29h-17.54c.07-.65-.09-1.51.26-1.91.77-.87.52-1.6.09-2.39-.35-.66-.8-1.27-1.15-1.93-1.08-2.06-2.41-4.05-3.13-6.23-.98-2.97-1.52-6.1-2.21-9.16-.34-1.49-.83-3-.84-4.5-.07-10.5-.04-21.01-.03-31.51,0-.41.07-.83.16-1.23.52-2.17,1.03-4.34,1.6-6.5.31-1.19.66-2.37,1.11-3.51.66-1.65,1.42-3.25,2.18-4.96-.54-.23-.96-.4-1.37-.57,1.68-1.71,3.49-3.34,3.54-6.01.6-.63,1.22-1.25,1.78-1.91.31-.37.44-.92.79-1.24,1.49-1.4,2.4-3.15,3.24-4.98.47-1.03,1.15-1.97,1.74-2.94-.09.76.08,1.36.83,1.77.37.2.79.63.86,1.02.18,1,.82.77,1.41.65.4-.08.78-.28,1.16-.42-.02.77.12,1.59-.1,2.3-.29.93-.9,1.75-1.3,2.65-.12.27-.03.65,0,.97.02.29.15.58.11.85-.34,1.94-1.78,3.3-2.65,4.96-.03.05-.23,0-.42,0-.14-.76-.43-1.51-1.35-1.12-.78.33-1.03,1.03-.52,1.86.1.16.1.5,0,.65-.64.92-1.32,1.81-1.79,2.46.47,1.44.87,2.62,1.28,3.88,1.01-.37,1.27.15,1.29,1.19.02.93.3,1.85.43,2.77.04.27-.06.57-.14,1.17-1.19-1.85-.9-4.17-2.83-5.05-.61,2.4-1.22,4.79-1.89,7.37.61-.1,1.16-.2,1.71-.27.62-.08,1.05-.24.83-1.04-.07-.26.05-.63.21-.86.08-.12.6-.12.66-.02.15.26.31.69.2.91-.57,1.12.47,2.77-1.15,3.54-.06.03-.08.25-.05.36.32.96.66,1.91.99,2.86v3.27c0,.34,0,.67,0,1.01-.25.45-.69.88-.71,1.34-.09,1.69-.07,3.39-.02,5.09.02.74.27,1.41,1.23,1.36-.01.67-.11,1.42.96,1.25Z"/>
    <path class="cls-12" d="m42.35,258.64h-5.01c-.27-.7.69-1.95-.91-2.05-.77-1.07-1.68-2.07-2.29-3.23-1.02-1.96-1.57-4.13-2.91-5.97-.72-.99-.95-2.34-1.32-3.56-.57-1.85-1.09-3.71-1.58-5.57-.2-.79,0-1.86-.45-2.37-.63-.71-.51-1.39-.57-2.13-.08-.95.12-2.12-.37-2.78-.81-1.1-.53-2.2-.63-3.32-.04-.49-.05-1-.17-1.47-.23-.86-.76-1.69-.79-2.54-.1-3.14-.04-6.28-.04-9.41,0-.25-.01-.66.1-.71,1.2-.5.84-1.56.88-2.44.06-1.17.01-2.34.01-3.5.13.03.25.07.38.1.21-.49.58-.97.59-1.47.06-2.84.02-5.69.04-8.54,0-.4.06-.83.2-1.2.24-.66.56-1.29.85-1.93.32-.24.77-.41.95-.74.61-1.08,1.18-2.19,1.65-3.33.18-.43.07-.98.09-1.48.65-1.61,1.44-3.13,1.36-5-.04-.84.64-1.73,1.07-2.55.09-.17.51-.18.77-.26.8.99,1.61,1.97,2.41,2.96-.81,2.18-2.12,4.3-.65,6.79-.56-.16-1.03-.29-1.7-.47,0,1.19,0,2.19,0,3.18,0,.37.05.81-.13,1.1-.92,1.51-.87,3.18-.87,4.84,0,10,.12,20.01-.07,30.01-.07,3.44.9,6.67,1.26,10,.3,2.75,1.67,5.38,2.6,8.05.27.77.69,1.49,1.01,2.25,1,2.42,1.85,4.91,3.56,6.98.38.46.45,1.17.66,1.77Z"/>
    <path class="cls-6" d="m42.35,258.64c-.21-.6-.28-1.31-.66-1.77-1.71-2.07-2.55-4.56-3.56-6.98-.32-.76-.74-1.48-1.01-2.25-.93-2.67-2.31-5.3-2.6-8.05-.36-3.34-1.33-6.57-1.26-10,.19-10,.07-20,.07-30.01,0-1.66-.05-3.33.87-4.84.17-.29.12-.73.13-1.1.02-1,0-1.99,0-3.18.66.19,1.14.32,1.7.47-1.46-2.49-.16-4.61.65-6.79.22.04.44.08.66.11.24.16.49.32.73.48-.08.36-.15.72-.31,1.44,1.59-.72,2.93-1.33,4.27-1.94.41.17.82.35,1.37.57-.76,1.71-1.52,3.31-2.18,4.96-.45,1.14-.8,2.33-1.11,3.51-.57,2.16-1.08,4.33-1.6,6.5-.1.4-.16.82-.16,1.23,0,10.5-.04,21.01.03,31.51.01,1.5.51,3.01.84,4.5.69,3.07,1.22,6.19,2.21,9.16.72,2.19,2.05,4.17,3.13,6.23.35.66.8,1.27,1.15,1.93.43.8.68,1.52-.09,2.39-.35.4-.19,1.26-.26,1.91h-3.01Z"/>
    <path class="cls-3" d="m28.37,194.54c-.29.64-.61,1.27-.85,1.93-.14.38-.2.8-.2,1.2-.02,2.85.02,5.69-.04,8.54,0,.49-.39.98-.59,1.47-.13-.03-.25-.07-.38-.1,0,1.17.04,2.34-.01,3.5-.04.88.32,1.94-.88,2.44-.11.05-.1.46-.1.71,0,3.14-.06,6.28.04,9.41.03.85.55,1.69.79,2.54.13.47.13.98.17,1.47.1,1.12-.17,2.22.63,3.32.48.66.28,1.84.37,2.78.06.74-.06,1.42.57,2.13.46.52.24,1.58.45,2.37.48,1.87,1.01,3.73,1.58,5.57.37,1.21.61,2.57,1.32,3.56,1.34,1.84,1.89,4.01,2.91,5.97.61,1.16,1.51,2.16,2.29,3.23-.24.37-.48.75-.73,1.12-.2.31-.41.62-.61.93h-.5c-.24-.35-.49-.7-.73-1.06-.86-1.78-1.68-3.57-2.58-5.33-.76-1.5-1.61-2.96-2.42-4.43-.19-.5-.38-1-.57-1.5-.23-.67-.45-1.35-.68-2.02-.09-.17-.17-.33-.26-.5-.02-.5-.04-1-.06-1.5.26-1.05-.31-1.8-.94-2.52-.1-.72-.13-1.46-.31-2.16-.18-.72-.5-1.4-.76-2.1,0-.84,0-1.68,0-2.51-.14-.51-.28-1.01-.42-1.52-.17-.25-.35-.5-.52-.75-.02-.5-.04-1-.06-1.5-.14-1.04.62-2.28-.7-3.04-.1-.58-.2-1.16-.3-1.73.02-3.89.03-7.79.05-11.68,0-.37-.08-.88.12-1.08,1.23-1.19.81-2.67.83-4.08.02-.33.03-.66.05-.99.33-.65.92-1.29.95-1.95.11-2.48.03-4.97.06-7.46,0-.47.17-.94.25-1.41.42-1.34.84-2.68,1.26-4.02.17-.5.34-1,.51-1.51.83-1.76,1.65-3.52,2.48-5.28.07-.25.14-.51.21-.76.27-.75.53-1.49.8-2.24.15-.34.3-.69.46-1.03.31-1.08-.27-1.82-.95-2.52-.22-.43.5-1.46-.77-1.21-.74-.52-1.49-1.04-2.23-1.56-.25-.27-.51-.53-.76-.8-.61-.94-1.21-1.88-1.82-2.82-.15-.49-.25-1-.49-1.45-.11-.21-.47-.28-.72-.41-.42-.27-1.2-.56-1.18-.79.07-1.03-.69-1.45-1.23-2.04-.5-.55-1.13-1.01-1.53-1.63-1.15-1.77-2.21-3.59-3.31-5.39-.23-.42.5-1.46-.77-1.21-1.53-.55-2.43-1.79-3.3-3.06v-1.21h-.96c-1.05.17-.87-.82-1.23-1.31-.25-.42-.51-.85-.76-1.27-.25-.63-.61-1.25-.71-1.9-.1-.61,0-1.29.17-1.89.1-.36.51-.62.78-.93.23-.26.45-.52.68-.78.27-.35.54-.7.82-1.05.08,0,.17,0,.25,0,.07.04.15.06.23.05.42.43.84.85,1.26,1.28.17.16.33.32.5.48.08.09.17.18.25.27.09.06.17.12.26.18.66.36,1.33.72,1.99,1.08.17.16.34.33.51.49.58.85,1.16,1.7,1.74,2.55.15.16.31.32.46.48.57.7.9,1.71,2.14,1.54.19-.03.47.31.65.53,1.15,1.38,2.22,2.83,3.43,4.16,1.74,1.93,3.58,3.77,5.33,5.6,1.31-.66,1.32-.68,2.14.17,1.09,1.13,2.13,2.31,3.24,3.42.17.17.61.08.93.11,0,.51,0,1.02,0,1.53-.88-.85-1.2.23-1.76.5-1.05-.92-2.03-1.96-3.19-2.74-1-.67-2.19-1.03-3.3-1.53-.15-.21-.26-.54-.46-.62-1.92-.78-2.96-2.48-4.2-3.98-.69-.83-1.42-1.62-2.13-2.42-.99-.68-1.98-1.37-2.96-2.05-.6-.66-1.19-1.33-1.79-1.99-.73-2.57-4.47-6-6.14-5.6,1.11,2.72,3.39,4.45,5.38,6.42.58.58,1.16,1.17,1.75,1.75l.87,1.17c.1.33.11.73.31.99,1.63,2.1,3.29,4.18,4.93,6.27.28.36.45.8.72,1.17,1.28,1.74,2.38,3.67,3.9,5.16,2.66,2.62,5.07,5.3,6.03,9.03-.27.08-.68.09-.77.26-.43.83-1.11,1.71-1.07,2.55.08,1.87-.7,3.39-1.36,5-.68,1.3-1.37,2.59-2.02,3.89-.26.53-.45,1.1-.67,1.65Z"/>
    <path class="cls-21" d="m35.08,258.64c.2-.31.41-.62.61-.93.24-.37.49-.75.73-1.12,1.6.1.65,1.35.91,2.05h-2.26Z"/>
    <path class="cls-2" d="m62.9,258.64c.25-.76.51-1.52.76-2.29,1.08.49.66,1.47.74,2.29h-1.5Z"/>
    <path class="cls-20" d="m72.93,225.46c-.34-.33-.67-.67-1.01-1-.15-.31-.29-.63-.44-.94-.19.15-.38.3-.57.45-.16-.12-.31-.23-.47-.35-.44-.79-.88-1.57-1.33-2.36.86-.71,1.31-.16,1.51.6.2.74.51.96,1.21.69-.5-2.01-1.99-3.17-3.53-2.83.1-.41.4-.91.27-1.24-.37-.95-.88-1.85-1.4-2.74-.28-.48-.76-.84-1-1.33-.36-.74-.59-1.5-1.5-.48-.16.18-.53.16-.8.23-.25-.32-.5-.63-.75-.95q.55-1.41.06-1.92c-.28.37-.57.75-.86,1.13-.5-.5-1-1-1.51-1.49,1.15-.91.97-1.6-.63-2.66-.47.22-.9.42-1.32.61-.61-.91-1.21-1.82-1.81-2.72,1.23-.47,1.62-.28,1.85.88.06.28.23.56.42.78.04.05.55-.16.57-.28.03-.31.01-.75-.18-.95-.78-.8-1.64-1.54-2.47-2.29-.35.56-.58.93-.81,1.29-.35-.31-.7-.63-1.05-.94-.09-.09-.18-.18-.27-.27,0,0,0,.03,0,.03-.15-.22-.26-.49-.46-.66-1.01-.82-.98-1.36-.05-2.23.31-.29.45-.94.4-1.4-.11-1.09-.64-2.2-.51-3.24.15-1.23.81-2.41,1.28-3.67.61-.17-.57,2.31,1.06.89.36.1.71.2,1.07.3.26.21.52.43.78.64,0,0,0-.01,0-.01.06,1.25.66.88,1.29.43.23.21.46.42.69.63-.11.94.41,1.25,1.24,1.25.25.27.5.53.74.8-.34.44-.69.87-1.11,1.41.1.12.29.35.47.57.01-.14.03-.28.04-.41.73-.13,1.45-.26,2.18-.39.06-.02.11-.05.15-.09.35.21.69.41,1.04.62-.27.56-.55,1.11-.95,1.94.34.28.83.69,1.33,1.11.42-.38.76-.7,1.11-1.02-.02.14-.05.28-.07.43l2.11,1.05s0,0,0,0c.27.33.52.69.81,1,.21.23.64.37.7.62.27,1.14.77,1.45,1.78.72.14-.1.49,0,.7.1,1.01.49,1.69,1.23,2.03,2.37.2.65.72,1.24,1.21,1.74.86.89,1.8,1.71,2.73,2.53.24.21.55.33.83.49-.1.33-.2.67-.3,1-.72.45-.78.86.06,1.24h0c.63.41,1.25.83,1.89,1.23.07.04.23-.06.34-.11,1.01-.47.94-.94-.28-1.9,0-.15.02-.3.02-.45,2.08,0,2.33.35,1.82,2.5-.05.19-.07.49.04.59.69.67,1.43,1.29,2.15,1.93.68.99,1.36,1.99,2.03,2.98-.11.24-.21.49-.32.73-.38-.21-.85-.33-1.14-.63-.54-.57-.98-1.24-1.46-1.87-.12.05-.25.1-.37.16,0,.36-.15.87.03,1.05.77.77,1.64,1.44,2.71,2.34.46-.32,1.12-.77,1.78-1.22.5-.09,1-.18,1.5-.27.06.54.11,1.07.17,1.58.44.09.91.18,1.37.28-.05.3-.11.61-.16.91-.14.26-.28.51-.42.77-.07.08-.13.15-.2.23-.06.03-.11.05-.18.05-1.24.17-1.41,1.02-1.3,2.05.01.06,0,.12-.02.18-.74-.05-1.07.3-.99,1.03-.82.83-1.65,1.67-2.47,2.5-.1,0-.19-.01-.29-.02-.17-1.57-1.21.11-1.81-.66.43-.4.88-.82,1.35-1.23.21-.18.65-.33.64-.47-.08-1.11.56-1.33,1.46-1.59.33-.09.56-1.03.57-1.58,0-.4-.36-1.03-.69-1.13-.34-.1-1.01.2-1.23.53-.68.99-2.09,1.44-2.13,2.91,0,.16-.42.42-.66.44-.93.06-1.91.23-2.59-.74-.28-.4-.68-.79-1.11-.99-.35-.16-.92-.16-1.23.03-.22.13-.37.91-.23,1.05,1.47,1.4,2.5,3.42,4.8,3.66.77.08.9.41.85,1.03,0,.07,0,.14,0,.21-.5.19-.99.39-1.49.58-.1-.14-.21-.27-.31-.41-.07.21-.13.42-.2.63-.19,0-.38.02-.57.03-.39-.2-.79-.39-1.18-.59-.08-.15-.17-.3-.25-.45-.05-.49-.09-.98-.14-1.48-.13-.02-.25-.04-.38-.05-.16.43-.32.85-.48,1.28-.09,0-.19,0-.28.01-.33-.34-.65-.67-.98-1.01.11-.21.19-.59.33-.62,1.54-.32.79-1.08.35-1.76-.29-.45-.6-.9-.98-1.28-.27-.27-.65-.43-.98-.63-.07.08-.13.17-.2.25.31.41.61.82.94,1.27-.37.2-.68.36-.99.53-.5-.6-.99-1.2-1.49-1.8.02-.28.04-.56.05-.66.55-.2.96-.35,1.37-.5-.28-.43-.49-1.15-.85-1.23-.64-.15-1.37.07-2.06.14Zm.54-2.27l-.36.36c.22.21.44.42.68.6.03.02.21-.18.32-.28-.22-.23-.43-.46-.65-.68Zm-.5-16.86c-.12.19-.26.32-.24.42.03.12.18.28.3.3.08.01.29-.19.28-.27-.02-.13-.17-.24-.34-.45Zm-16.33-10.23c.09-.23.21-.38.18-.48-.04-.12-.21-.19-.33-.28-.08.11-.25.23-.23.32.03.13.19.23.38.44Zm3.78,1.6c-.23-.14-.36-.28-.49-.28-.08,0-.25.23-.22.31.03.11.2.24.32.26.09.01.2-.15.38-.3Zm3.26,2.66c-.08.07-.16.15-.24.22.16.14.31.29.47.43l.17-.16c-.13-.17-.27-.33-.4-.5Zm.56,12.02c-.09.09-.21.17-.21.25,0,.07.17.22.2.2.11-.05.2-.16.3-.25-.09-.06-.18-.12-.29-.2Zm2.82-8.61c-.07-.03-.15-.1-.2-.08-.05.02-.07.13-.1.2.07.03.15.1.2.08.05-.02.07-.13.1-.2Zm-4.6,7.01c.03-.07.1-.15.08-.2-.02-.05-.13-.06-.2-.09-.03.07-.1.15-.08.2.02.05.13.06.2.09Z"/>
    <path class="cls-4" d="m50.87,202.59c-.33-.95-.67-1.9-.99-2.86-.04-.11-.01-.33.05-.36,1.62-.77.59-2.42,1.15-3.54.11-.22-.05-.65-.2-.91-.06-.1-.58-.09-.66.02-.16.23-.28.6-.21.86.22.79-.22.96-.83,1.04-.55.07-1.1.17-1.71.27.66-2.59,1.27-4.98,1.89-7.37,1.93.88,1.64,3.2,2.83,5.05.08-.6.18-.9.14-1.17-.13-.93-.41-1.85-.43-2.77-.02-1.04-.28-1.55-1.29-1.19-.41-1.26-.81-2.44-1.28-3.88.48-.65,1.16-1.54,1.79-2.46.11-.15.1-.49,0-.65-.5-.83-.26-1.53.52-1.86.92-.39,1.22.36,1.35,1.12.18,0,.39.04.42,0,.87-1.66,2.32-3.02,2.65-4.96.05-.27-.09-.57-.11-.85-.02-.33-.11-.7,0-.97.4-.9,1.01-1.73,1.3-2.65.22-.71.08-1.53.03-2.28.14-.03.26-.02.28-.06.05-.1.06-.22.09-.33-.12.11-.23.22-.37.4-.32.13-.69.33-1.09.41-.59.11-1.23.34-1.41-.65-.07-.39-.49-.82-.86-1.02-.75-.41-.92-1.01-.83-1.77.75-1.25,1.5-2.51,2.25-3.76.48.31.97.62,1.45.93-.25.35-.45.75-.77,1.03-.62.56-.4.98.09,1.45.73.72,1.43,1.47,2.2,2.25.4-.55,1.14-1.26,1.48-2.13.27-.7.06-1.59.06-2.45-.72.17-1.25.3-1.76.43-.21-.67-.26-1.28-.56-1.71-.36-.52-.94-.89-1.43-1.32.47-1.36.92-2.72,1.43-4.07.17-.45.41-.98.78-1.24.99-.7,1.1-1.67,1.06-2.74.25-.25.49-.51.74-.76,0-.33,0-.66,0-1,.25-.5.5-1.01.75-1.51.08-.17.16-.33.24-.5.17-.46.32-.92.51-1.37.24-.57.53-1.11.75-1.68.34-.91.46-1.96.99-2.73.65-.95,1.07-1.88,1.04-3.01.08-.25.16-.5.24-.76.59-1.26,1.17-2.51,1.76-3.77.63,0,1.27-.05,1.9,0,.48.03,1.02.07,1.4.32.14.09.05.89-.18,1.16-.72.83-.53,1.59-.12,2.53.23-.57.38-1.03.6-1.45.86-1.57,1.67-3.14.6-5.18-.82.56-1.58,1.07-2.5,1.7-.21-.24-.58-.66-.96-1.08.15-1.27,1.64-2.06,1.26-3.52.62-.24,1.47-.39.49-1.26.63-2.17.31-4.59,1.77-6.53,1.14-.07,1.21-.66.74-1.51,0-.84,0-1.67,0-2.51l.51-1.5c.16-.17.31-.34.47-.51,0-.25.01-.5.02-.75-.08-.25-.17-.51-.25-.76,0-.17,0-.34,0-.51,0-.06,0-.13,0-.19.16-.1.33-.21.49-.31.51-.02,1.07,0,.5-.75.02-.08.03-.17.05-.25l.2-.27h-.01c.31-.12.61-.24.92-.37-.1-.15-.2-.29-.31-.44.06-.06.12-.11.18-.17.08-.09.15-.18.23-.27.07-.08.13-.17.2-.25.1-.16.2-.33.3-.49h0c.08-.08.17-.17.25-.26,0,0,0,0,0,0,.09-.08.18-.15.26-.23,0,0,.02-.01.02-.01.08-.08.16-.16.23-.24,0,0,0,0,0,0,.5-.34,1.01-.68,1.51-1.03.08.38.23.76.23,1.14.02,2.59.01,5.19.01,7.78,0,.13.03.26,0,.38-.6,2.42-1.23,4.84-1.79,7.27-.18.79-.26,1.63-.24,2.44.04,1.29.05,2.5-.69,3.67-.35.55-.19,1.41-.49,2.01-.95,1.9-.44,4.32-2.11,5.95-.24,3.1-2.64,5.26-3.49,8.07-.31,1.02-.45,2.17-.31,3.22.14,1.04-.09,1.78-.71,2.56-.47.6-.75,1.36-1.12,2.05-.17.16-.35.32-.52.48,0,.08.01.17.02.25,0,.17,0,.34,0,.5-.04.08-.08.17-.11.25-.47.07-.94.14-1.41.21.2.68.33,1.13.47,1.58h0c-.77-.15-1.21.2-1.3.94-.15,1.35-.69,2.51-1.55,3.56-.27.33-.29.85-.48,1.27-.38.83.02,1.04.76,1.02l-.21.73c-.07.17-.13.33-.2.5-.03.08-.07.17-.1.25-1.2-.08-1.02.5-.57,1.21-.12.19-.23.37-.35.56-.33.17-.66.34-1,.51.14.24.28.49.42.73-.14.26-.29.51-.43.77-.72-.11-1.25.15-1.23.91,0,.28.43.56.66.83-.17.42-.33.84-.5,1.26-.89-.17-1.15.48-1.38,1.11-.45,1.23-.81,2.48-1.29,3.69-.64,1.6-1.37,3.17-2.06,4.75-.55-.6-1.11-1.21-1.66-1.81-.06.06-.12.13-.19.19.09.75.17,1.51.28,2.4.54-.1,1.05-.19,1.57-.28.25.45.49.9.65,1.18-.52.7-.93,1.26-1.35,1.82.33.18.66.35.99.53,0,.33.01.66.02,1,.08.25.17.49.25.74h-.1c-1.72.03-2.42.73-2.14,2.14.18.89.39,1.77.45,2.67.02.39-.19.94-.49,1.17-.91.7-1.3,1.67-.9,2.81.48,1.39.26,2.65-.63,3.8Zm17.18-60.21c-.98.12-1.95.04-2.17,1.38-.12.71-.46,1.46-.91,2.04-1.01,1.32-1.23,2.61-.42,3.52-.15.34-.27.69-.44,1.01-.18.32-.36.66-.62.9-.51.47-.87,2.53-.42,3.03.15.17.51.24.75.22,1.55-.17,2.22-1.36,2.07-3-.11-1.2-.14-2.57.34-3.62.79-1.74,1.92-3.32,1.83-5.47Zm6.12-22.19c-1.08,0-1.75.26-1.29,1.3.44.99.16,1.54-.68,2.07-.27.17-.4.64-.49,1-.2.81-.34,1.63-.51,2.45-.07.31-.18.62-.23.93-.13.87-.11,1.8-.39,2.62-.55,1.59-.61,1.59.95,2.31,1.45-.88,1.44-2.27,1.26-3.69-.2-1.56-.41-3.1,1.29-4.07.26-.15.4-.48.62-.76-1.3-1.23-1-2.61-.53-4.17Zm-14.17,36.76c-.5,1.34-.97,2.77-1.57,4.15-.18.41-.9.71-.16,1.15.66.39.69-.25.98-.66.42-.58,1.14-.96,1.72-1.42.1.59.21,1.18.32,1.86.62-.16,1.19-.21.93-1.17-.13-.47,0-1.07.17-1.55.31-.84.76-1.62,1.15-2.43-.18,0-.37,0-.55.01-.29-.49-.56-.98-.86-1.46-.13-.21-.32-.54-.5-.54-.23,0-.53.2-.67.41-.34.48-.6,1.01-.97,1.65Zm8.81-15.51c-.07-.03-.14-.06-.21-.09-.03.07-.1.15-.08.2.02.05.13.06.2.09.03-.07.06-.14.09-.21Zm-17.78,58.32c-.07-.03-.15-.1-.2-.08-.05.02-.06.13-.09.2.07.03.15.1.2.08.05-.02.06-.13.09-.2Z"/>
    <path class="cls-4" d="m54.9,37.44c.27.24.59.45.81.73.62.81,1.4,1.23,2.43,1.07.37.33.44,1.22,1.28.7,1.31,1.18,2.51,2.4,3.41,4,.73,1.29,2.01,2.26,3.02,3.39.24.27.4.61.59.92.08.58.17,1.16.25,1.74.24.19.48.38.71.56,0,1.03-.05,2.08,1,2.72.17.25.33.5.5.75.22.94-.13,2.16,1.25,2.51.26.16.52.33.79.49.08,0,.15.02.22.05.07.07.14.14.21.21.03.07.05.14.05.22-.42.19-.84.37-1.26.56-.01.1-.02.2-.04.3.43.14.85.29,1.28.43,0,.26,0,.52.01.78l.02.97c-.14.07-.38.1-.41.21-.2.58.93,3.43,1.48,3.69.17.08.45-.08.68-.13.08.5.17,1.01.25,1.51l.27.5c.07.09.14.18.2.27-.06.05-.12.11-.18.16l.18.03c.6,1.13,1.2,2.26,1.8,3.39-.1,1.27-.24,2.54-.24,3.81,0,.21.59.42.9.63.01.92-.06,1.85.07,2.75.12.81.48,1.58.7,2.38.12.43.26.87.26,1.31.02,4.21,0,8.43.03,12.64,0,1.02.19,2.04.29,3.06-.04.4,0,.83-.14,1.2-.39,1.09.11,1.51,1.1,1.61-.02.07,0,.14.03.2-.18.34-.37.68-.55,1.02l-1.26,1.24c-1.5,1.33-3,2.66-4.5,3.98,0-1.73-.03-3.45,0-5.18,0-.48.07-1.03.32-1.42.56-.89.65-1.74.17-2.66.08-.42.17-.84.25-1.26-.25-.83-.5-1.67-.76-2.5-.66-.51-1.31-1.01-1.97-1.52,0-3.77,0-7.54,0-11.31,1.06-.65,1.05-3.27,0-4.27,0-1.68,0-3.35,0-5.03.72-.14,1.44-.27,2.03-.38.23-.74.48-1.36.6-2,.1-.56.44-1.36-.48-1.52-1.24-.22-1.91.45-1.93,1.77,0,.41-.04.82-.06,1.31-.44.03-.8.06-1.16.08-.09-.81-.14-1.63-.27-2.44-.22-1.37-.49-2.73-.73-4.09.32-.32.94-.71.89-.95-.08-.4-.6-.71-.94-1.06-.17-.9-.35-1.8-.52-2.71.89-1.51-.52-2.15-1.17-3.08-.21-.57-.42-1.15-.62-1.72.09-.17.18-.33.27-.5-.24-.09-.49-.17-.73-.26h0c-.02-1.22.37-2.59-1.19-3.32.22-.79.38-1.6-.83-1.72-.15-.1-.3-.19-.45-.29.02-.87-.21-1.58-1.2-1.76-.78-.69-1.55-1.37-2.33-2.06-.08-.06-.15-.12-.23-.18-.09-.09-.17-.18-.26-.27-.02-.38-.04-.76-.05-.87-.81-.09-1.38-.17-1.96-.19-.19,0-.38.15-.57.24-.9-.8-1.79-1.6-2.69-2.39.29-.84.45-1.64-.34-2.36-.18-.17-.11-.62-.15-.94.05-.07.1-.14.15-.2.29.09.58.17.87.26.17.06.34.12.51.19Zm15.46,28.49c.18.07.37.15.55.22.15-.34.38-.67.43-1.02.02-.13-.37-.32-.57-.48-.14.43-.27.86-.41,1.29Zm-2.27-10.45c.11-.04.22-.09.33-.13-.13-.32-.26-.64-.4-.97-.1.04-.2.08-.3.12.12.33.25.65.37.98Zm-1.37-4.04c.03-.07.1-.15.08-.2-.02-.05-.13-.06-.2-.09-.03.07-.1.15-.08.2.02.05.13.06.2.09Z"/>
    <path class="cls-1" d="m61.38,113.91c.33-.02.66-.04.99-.05.68-.34,1.36-.67,2.04-1.01.08,0,.15.01.22.02.01.67.02,1.33.03,2l.21,2.01c0,1.03.02,2.07.02,3.1-.17.8-.34,1.59-.5,2.39-.17.85-.33,1.7-.5,2.55-.1.41-.2.82-.29,1.24-.15.43-.31.85-.46,1.28-.26.58-.52,1.17-.77,1.75-.87-.83-1.66-.53-2.15.35-.48.85-.87,1.8-1,2.75-.08.6.19,1.44,1.17,1.43,0,.91.13,1.85-.89,2.42-.25.14-.38.55-.48.86-.62,1.8-1.18,3.62-1.84,5.41-.73,1.98-1.54,3.93-2.32,5.89-.16.92-.32,1.84-.48,2.77-.13.25-.2.58-.41.73-1.31.93-1.78,2.2-1.64,3.75-.92,1.43-1.84,2.87-2.75,4.3-1.35,2.23-2.75,4.43-4.04,6.69-.98,1.72-1.51,3.71-3.12,5.03-.07.06-.04.24-.06.36,0,.25,0,.5,0,.75-.17.09-.35.18-.52.27-.16,0-.33,0-.49-.01-.2,0-.4.01-.6.02-1.23-.68-2.46-1.37-3.69-2.05.19-.24.38-.48.58-.72.57-.63,1.22-1.21,1.68-1.91.81-1.27,1.49-2.64,2.25-3.95.21-.36.52-.65.74-.99,1.1-1.68,2.19-3.36,3.28-5.05.29-.44.54-.91.82-1.36,1.24-1.99,1.66-4.46,3.58-6.07.34-.28.43-.86.64-1.3.06-.17.13-.34.19-.5,1.88-3.35,3.75-6.71,5.63-10.06.37-.13.98-.18,1.05-.4.37-1.18.6-2.41.88-3.62.09-1.4-.05-2.73-1.14-3.78.05-.31.11-.61.16-.92,1.03-1.02,2.36-1.89,2.98-3.12.52-1.04.29-2.5.24-3.76-.03-.85.1-1.46.96-1.75.03-2.09.07-4.18.1-6.26-.1-.49-.2-.97-.3-1.46Z"/>
    <path class="cls-22" d="m71.43,57.52c0-.08-.02-.15-.05-.22-.07-.07-.14-.14-.21-.21-.07-.03-.14-.05-.22-.05,0-.17,0-.34,0-.5-.17-.17-.33-.34-.5-.5-.03-.08-.04-.16-.03-.24-.03-.68.21-1.54-.95-1.51-.03-.08-.06-.17-.09-.25-.13-.42-.26-.84-.39-1.26.02-.53.05-1.05.07-1.58-.1-.01-.21-.03-.31-.04.24-.33.47-.65.71-.98.74.12,1.47.25,2.21.37.33.66.66,1.31,1,1.97l-.23,1.25c0,.19,0,.39,0,.58.08-.11.16-.22.24-.33.75-.24,1.89-.14,1.25-1.53-.64-.78.24-.92.54-1.3.15.03.3.06.45.1.5.06,1.01.13,1.51.19.37.19.73.38,1.1.56,0,.09.04.14.13.13.18.1.37.21.55.31-1.3.09-.65,1.1-.77,1.72-.19,1,.2,1.46,1.28,1.35,1.17-.12,2.23.09,3.32.72,1.42.83,2.87,2.05,4.71.48.89-.76.93-1.2.19-1.93,1.02-.14,2.04-.29,3.06-.43.08-.03.15-.07.23-.1.16-.01.33-.03.49-.04.16,0,.32,0,.48-.01.97.08,1.35.58,1.28,1.58-.15,2.16-.22,4.32-.32,6.48-.5.68-.99,1.35-1.49,2.02-.08.3-.16.6-.24.9-.32.22-.64.44-.96.66-.5-.18-1-.37-1.5-.55-.59-.24-1.17-.47-1.76-.71-.49-.1-.97-.2-1.46-.3-.43-.23-.87-.45-1.3-.68-1.38-.6-2.76-1.21-4.14-1.81-.38-.16-.75-.33-1.12-.5-.16-.1-.32-.19-.49-.29-1.07-.67-2.15-1.33-3.22-2-.78-.23-1.55-.46-2.33-.69-.1-.1-.19-.2-.29-.3-.14-.18-.28-.36-.43-.54Zm8.66,2.11l.2-.42c-1.04-.47-2.09-.94-3.13-1.41-.06.13-.11.27-.17.4,1.03.48,2.07.96,3.1,1.44Z"/>
    <path class="cls-1" d="m70.45,80.18c0,3.77,0,7.54,0,11.31.07.42.15.84.22,1.26-.15.31-.3.62-.35.74-.7-.06-1.24-.11-1.78-.16.16.61.32,1.22.51,1.96.04,0-.23.11-.41.02-1.27-.61-1.28-.6-1.48.8-.03.23-.17.44-.26.66-.32-.08-.65-.16-.97-.24-.17-3.25-.34-6.51-.53-9.76-.03-.44-.16-.88-.24-1.32.09-.94.15-1.88.27-2.82.04-.33.27-.63.38-.95.21-.63.57-1.26.58-1.89.06-3.38.07-6.76-.01-10.14-.02-.71-.53-1.4-.74-2.12-.16-.54-.19-1.12-.28-1.68.04-.08.03-.16-.01-.23-.31-.92-.43-1.97-.96-2.73-1.22-1.77-1.09-3.64-.77-5.57l.09-.25h.11s.11,0,.11,0c.77.77,1.63.51,2.5.25.09-.09.19-.18.28-.28.4.61.79,1.23,1.19,1.84.17.9.35,1.8.52,2.71.02.67.03,1.34.05,2.01.25,1.36.51,2.72.73,4.09.13.81.18,1.63.27,2.44.33.25.66.5.99.75,0,1.68,0,3.35,0,5.03,0,1.42,0,2.85,0,4.27Z"/>
    <path class="cls-16" d="m78.19,100.8c.18-.34.37-.68.55-1.02.14-.09.29-.18.43-.27,0,0,0,0,0,0l.51-.45c2.14-.9,4.2-1.94,5.78-3.72.25-.29.7-.4,1.05-.6.88-.51,1.93-.83,1.99-2.14.01-.27.3-.58.55-.77,1.1-.84,2.27-1.59,3.34-2.47.8-.66,1.43-1.51,2.22-2.19.34-.29.88-.36,1.34-.52.01.29.03.59.04.88-.17.23-.34.47-.51.7-.37.23-.8.4-1.11.69-.93.89-1.81,1.83-2.71,2.74-1.32,1.33-2.66,2.64-3.96,4-.51.54-.98,1.17-.23,1.91,0,.15,0,.31.01.46,0,0-.09-.03-.09-.03-.35-.08-.75-.08-1.05-.24-.77-.43-1.07-.13-1.14.64-.02.29,0,.58,0,.87-.17.25-.35.5-.52.75-.5.49-1,.99-1.5,1.48-1.11,1.11-2.22,2.22-3.33,3.32-.06.07-.11.14-.17.21,0,0-.01.02-.01.02-.07.11-.14.22-.21.34,0,.14,0,.28.01.42-.35.5-.7.99-1.05,1.49-.23.18-.46.36-.68.54-.1.18-.2.35-.29.53,0,.08,0,.15-.04.22l-.24.45s.03.08.03.08c-.07.07-.15.15-.22.22-.43.5-.86,1-1.29,1.5,0,0,0,0,0,0-.08.08-.16.16-.23.24,0,0-.02.01-.02.01-.09.08-.18.15-.26.23,0,0,0,0,0,0-.08.09-.17.17-.25.26,0,0,0,0,0,0-.1.16-.2.33-.3.49-.07.08-.13.17-.2.25-.08.09-.15.18-.23.27-.06.06-.12.11-.18.17-.2.27-.41.55-.61.82,0,0,.01,0,.01,0-.07.09-.13.18-.2.27-.02.08-.03.17-.05.25-.17.25-.34.5-.5.75-.16.1-.33.21-.49.31-.09.06-.18.13-.28.19-.39.37-.82.72-1.17,1.13-.37.43-.67.92-.99,1.38-.11.09-.21.18-.32.27-.25.1-.49.19-.74.29-.96-.46-1.58-1.15-1.53-2.29.39-.19.78-.39,1.22-.6-.77-.66-1.37-1.17-1.96-1.68.02-.17.05-.33.07-.5.79-.58.22-.78-.27-1,.14-.52.29-1.03.43-1.55.52-.49,1.05-.98,1.57-1.46.99-.89,1.96-1.8,2.98-2.65.36-.3.84-.45,1.26-.67,1.5-1.33,3-2.66,4.5-3.98.84.02,1.26-.4,1.26-1.24Z"/>
    <path class="cls-15" d="m45.38,46.94c-.34-.23-.68-.46-1.03-.68.27-.25.51-.56.82-.75.35-.22.77-.34,1.15-.5.18.11.36.32.53.3,2.53-.2,4.71,1.69,7.28,1.19.17.31.35.62.61,1.09.34-.4.58-.69.82-.97.2.03.39.05.59.08.63,1.01,1.29-.03,1.94.03.44.27.88.54,1.31.81.01.93.25,1.71,1.3,1.94.31.1.63.2.94.3,0,.74,0,1.47,0,2.21.34.41.67.83,1.01,1.24-.35.61-.69,1.23-1.04,1.84-.57-.27-1.14-.54-1.71-.81-.17-.09-.33-.18-.5-.27-.5-.24-1.01-.47-1.51-.71-.08-.07-.16-.13-.24-.2-.32-.28-.64-.55-.96-.83-.35-.25-.7-.51-1.05-.76-1.76-.89-3.52-1.79-5.28-2.68-.28-.14-.6-.22-.9-.33-.11-.06-.22-.11-.33-.17-.42-.21-.84-.41-1.25-.62-.34-.05-.68-.11-1.02-.16-.24-.01-.48-.03-.73-.04-.25-.18-.5-.37-.76-.55Z"/>
    <path class="cls-16" d="m79.7,212.9c-.28-.16-.59-.28-.83-.49-.93-.82-1.87-1.64-2.73-2.53-.49-.51-1.01-1.1-1.21-1.74-.34-1.14-1.02-1.87-2.03-2.37-.21-.1-.56-.2-.7-.1-1.01.73-1.51.42-1.78-.72-.06-.25-.48-.39-.7-.62-.29-.31-.54-.66-.81-1,1.28-.42,2.23-.28,3.19.95.91,1.16,2.32,1.92,3.52,2.85.27.14.53.28.8.43.27.08.65.06.78.24.5.67,1.09.52,1.72.33.11.16.21.31.32.47.4.76.81,1.52,1.21,2.28.07.06.14.11.22.17,1.01.36,2.02.72,3.03,1.08.58.59,1.17,1.18,1.75,1.76.01.34.03.68.04,1.01.24.24.47.47.71.71.18.09.35.17.53.26,0,0-.08.09-.08.09-.41.15-.81.3-1.22.44-.34-.23-.68-.46-1.11-.74-.23,1.12.13,1.59,1.16,1.48-.02.59-.03,1.18-.05,1.78-.72-.64-1.45-1.26-2.15-1.93-.11-.1-.08-.4-.04-.59.51-2.15.26-2.5-1.82-2.5-.58-.33-1.16-.67-1.73-1Z"/>
    <path class="cls-14" d="m61.38,113.91c.1.49.2.97.3,1.46-.03,2.09-.07,4.18-.1,6.26-.86.29-.99.9-.96,1.75.05,1.27.28,2.73-.24,3.76-.62,1.23-1.95,2.1-2.98,3.12-.26-.11-.51-.22-.77-.32h0c0-.33.01-.66.02-.99,1.33-.4.48-1.52.75-2.27.33-.67.66-1.34.98-2.02,0-.33.01-.66.02-1,1.45-1.07.88-2.63.97-4.03.08-.59.16-1.17.24-1.76,0-.5,0-1,0-1.51-.26-.52-.52-1.03-.78-1.55.1-.32.2-.65.3-.97.05-.07.1-.15.16-.22.2-.44.4-.87.6-1.31.16.11.32.22.48.32-.09.76.06,1.34,1.01,1.26Z"/>
    <path class="cls-16" d="m83.7,233c.05-.62-.08-.95-.85-1.03-2.3-.24-3.34-2.27-4.8-3.66-.15-.14,0-.91.23-1.05.31-.19.88-.19,1.23-.03.43.2.83.59,1.11.99.68.97,1.66.79,2.59.74.24-.01.65-.28.66-.44.04-1.48,1.46-1.92,2.13-2.91.23-.33.89-.63,1.23-.53.33.1.69.74.69,1.13,0,.55-.24,1.49-.57,1.58-.9.25-1.54.48-1.46,1.59.01.14-.43.29-.64.47-.47.41-.92.83-1.35,1.23.6.78,1.64-.91,1.81.66,0,.07,0,.14-.02.21,0,0,.02.1.02.1-.16.07-.32.13-.48.2,0,0-.02.02-.02.02-.16.07-.33.15-.49.22,0,0-.01,0-.01,0-.07.08-.14.15-.21.23-.15.1-.3.2-.45.3-.11-.01-.23-.02-.34-.04Z"/>
    <path class="cls-10" d="m86.94,54.83c.74.73.7,1.17-.19,1.93-1.84,1.57-3.29.35-4.71-.48-1.09-.64-2.15-.84-3.32-.72-1.08.11-1.47-.35-1.28-1.35.12-.62-.53-1.62.77-1.72,1.27.16,2.7-.37,3.71.9.1.12.39.08.59.14,1.16.34,2.32.7,3.48,1.04.31.09.63.17.94.25Z"/>
    <path class="cls-17" d="m50.87,202.59c.89-1.15,1.11-2.41.63-3.8-.4-1.13,0-2.1.9-2.81.3-.23.51-.78.49-1.17-.06-.9-.27-1.78-.45-2.67-.28-1.41.42-2.11,2.14-2.13-.1,1.7-.2,3.39-.31,5.19-.95-.07-.92.62-.91,1.36.03,1.54,0,3.09,0,4.65-.36.1-.66.18-1.11.3.14.81.27,1.56.4,2.32-.11,1.18-.22,2.35-.33,3.53-.32,0-.64,0-.96,0-.17-.17-.34-.34-.5-.5v-4.27Z"/>
    <path class="cls-19" d="m56.63,114.83c.25-.08.49-.17.74-.25,0,.26,0,.53.01.79-.21.12-.42.24-.77.43.35.14.56.23.76.32-.01.32-.02.64-.03.97,0,0,.03.01.03.01-.11.09-.21.17-.32.26-.18,0-.37-.01-.55-.02-.37-.69-.72-.72-1.04.04l-.16,1.47c-.23.41-.47.81-.7,1.22-.17.27-.34.53-.51.8h.01c-.25.24-.51.5-.76.76,0,0,.01,0,.01,0-.57.36-1.14.72-1.71,1.08-.42.24-.83.48-1.25.71-.24-.73.21-1.81-1.04-2.02,1.57-1.61,3.15-3.21,4.71-4.84.57-.59,1.06-1.25,1.59-1.88.16-.03.32-.07.47-.1.06.06.13.07.21.06.1.07.19.13.29.2Z"/>
    <path class="cls-16" d="m52.66,203.84c-.13-.76-.26-1.51-.4-2.32.45-.12.75-.2,1.11-.3,0-1.57.02-3.11,0-4.65-.01-.74-.05-1.43.91-1.36.11-1.8.21-3.5.31-5.19,0,0,.1-.01.1-.01.23.1.46.21.68.31.49,1.26.97,2.51,1.46,3.77-1.63,1.41-.46-1.06-1.06-.89-.47,1.27-1.13,2.44-1.28,3.67-.13,1.04.4,2.15.51,3.24.05.46-.09,1.11-.4,1.4-.93.87-.96,1.41.05,2.23.2.16.31.43.46.66-.81-.18-1.62-.37-2.43-.55Z"/>
    <path class="cls-24" d="m65.15,85.45c.08.44.22.87.24,1.32.19,3.25.36,6.51.53,9.76-.02,1.75-.04,3.5-.05,5.26-.45,0-.91,0-1.36,0-.03-5.09-.08-10.18-.07-15.26,0-.36.46-.71.71-1.07Z"/>
    <path class="cls-1" d="m68.19,109.34c-.52.49-1.05.98-1.57,1.46-.12-.54-.24-1.07-.41-1.8-.33.36-.56.61-.79.86-.03-.51.06-1.11-.77-1.03-.09-1.01-.17-2.03-.26-3.04.01-.16.03-.32.04-.48.35.08.7.16,1.29.29.07-1.19.13-2.25.19-3.3.25-.37.65-.72.72-1.12.13-.8.08-1.63.11-2.45.14.23.38.46.39.7.12,1.7.22,3.4.27,5.1.04,1.29.02,2.58,0,3.88,0,.57.07,1.01.79.96Z"/>
    <path class="cls-16" d="m91.75,224.04c-.46-.09-.93-.19-1.37-.28-.05-.51-.11-1.04-.17-1.58.32-.25.7-.46.95-.77.16-.2.27-.73.16-.82-.65-.52-1.32-1.1-2.08-1.39-1.09-.41-2.62-2.16-2.58-3.25,0,0,.08-.09.08-.09.57.1,1.14.21,1.71.31.09.06.18.12.26.18.21.03.43.06.64.09.05.14.1.29.15.43.17.17.34.34.5.51.32.02.65.04.97.06.15.07.31.13.46.2,0,0,.04.06.04.06.08.15.16.31.25.46,1.24,1.75.72,3.67.5,5.55-.16.11-.32.21-.48.32Z"/>
    <path class="cls-16" d="m63.87,214.16c.27-.07.64-.06.8-.23.91-1.02,1.14-.26,1.5.48.24.49.72.86,1,1.33.52.89,1.03,1.79,1.4,2.74.13.33-.17.83-.27,1.24,1.54-.34,3.03.83,3.53,2.83-.7.26-1.01.05-1.21-.69-.2-.76-.65-1.31-1.51-.6-.81-.86-1.62-1.73-2.44-2.59.3-.13.6-.25.91-.38-.02-.1-.04-.2-.06-.3-.38-.02-.77-.03-1.15-.05-.83-1.26-1.67-2.51-2.5-3.77Z"/>
    <path class="cls-17" d="m54.41,188.27c-.33-.18-.66-.35-.99-.53.42-.56.83-1.12,1.35-1.82-.16-.28-.4-.73-.65-1.18v-.5c.69-1.58,1.42-3.15,2.06-4.75.48-1.21.85-2.47,1.29-3.69.23-.63.49-1.28,1.38-1.11-.33,1.16-.65,2.33-.98,3.49-.07.09-.13.18-.2.28-.03.07-.05.15-.05.23-.06.09-.13.18-.19.27-.63,1.1-.92,2.26-1.14,3.55-.34,1.97-1.23,3.85-1.89,5.77Z"/>
    <path class="cls-15" d="m87.48,97.57c-.75-.74-.28-1.37.23-1.91,1.29-1.36,2.64-2.67,3.96-4,.9-.91,1.78-1.85,2.71-2.74.31-.3.74-.47,1.11-.69,0,.25.01.5.02.75-.1.25-.21.49-.31.74-.24.26-.48.52-.72.78-.84.83-1.68,1.66-2.52,2.49-.25.25-.49.51-.74.76-.25.25-.51.5-.76.75-.99,1.02-1.98,2.05-2.97,3.07Z"/>
    <path class="cls-16" d="m46.32,45.01c-.39.16-.8.28-1.15.5-.31.19-.55.5-.82.75-.49-.03-.98-.05-1.47-.08-.26-.15-.52-.29-.78-.44-.33-.17-.66-.34-1-.52-.41-.18-.81-.35-1.22-.53,0,0,0,.02,0,.02-.09-.06-.18-.12-.27-.18-.5-.19-.99-.39-1.49-.58.23-.15.44-.42.68-.44.68-.07,1.37-.05,2.05-.07.8.28,1.6.55,2.4.83.12.06.23.11.35.17.91.19,1.82.38,2.73.57Z"/>
    <path class="cls-9" d="m47.61,34.39c1.11.18,2.38-.35,3.27.77-.68.72-1.2,1.48-.76,2.54-1.5-1.09-3.02-2.16-4.49-3.29-.32-.25-.47-.72-.77-1.18h.97c.07.08.13.16.2.23.27.25.54.5.82.75.25.06.51.12.76.18Z"/>
    <path class="cls-2" d="m51.37,207.37c.32,0,.64,0,.96,0,0,2.85,0,5.69,0,8.54-1.07.16-.97-.58-.96-1.25,0-.59,0-1.17,0-1.76,0-.84,0-1.68,0-2.51,0-1,.01-2.01.02-3.01Z"/>
    <path class="cls-4" d="m50.12,37.7c-.44-1.06.08-1.82.76-2.54.88.61,1.76,1.22,2.64,1.83-.05.07-.1.14-.15.2-1.01.32-1.34,1.13-1.52,2.06-.58-.52-1.16-1.04-1.74-1.56Z"/>
    <path class="cls-17" d="m62.36,166.42c-.74.03-1.14-.18-.76-1.02.19-.41.21-.94.48-1.27.87-1.05,1.4-2.2,1.55-3.56.08-.74.53-1.1,1.3-.95-.35,1.16-.69,2.32-1.04,3.48-.06.09-.13.18-.19.27-.45,1.02-.9,2.03-1.34,3.05Z"/>
    <path class="cls-8" d="m40.85,43.44c-.68.02-1.37,0-2.05.07-.24.03-.46.29-.68.44-1.55.79-2.33-.68-3.63-1.04.69-.95,1.2-1.56,2.18-.63.73.69,1.62.81,2.64.64.47-.08,1.03.33,1.54.52Z"/>
    <path class="cls-9" d="m59.4,47.54c-.44-.27-.88-.54-1.31-.81.03-.15.06-.31.09-.46.07-.08.15-.16.22-.24,0-.28,0-.56,0-.83-.62-.77-1.23-1.54-1.85-2.31.19-.08.38-.24.57-.24.58.02,1.15.11,1.96.19,0,.11.03.49.05.87,0,.3-.05.61,0,.9.15.94.33,1.88.5,2.83-.08.03-.16.06-.23.09Z"/>
    <path class="cls-16" d="m75.92,229.51c.31-.17.62-.33.99-.53-.33-.45-.64-.86-.94-1.27.07-.08.13-.17.2-.25.33.21.72.36.98.63.37.38.69.83.98,1.28.44.68,1.18,1.44-.35,1.76-.15.03-.22.4-.33.62-.5-.75-1.01-1.49-1.51-2.24Z"/>
    <path class="cls-16" d="m68.93,203.33l-2.11-1.05c.02-.14.05-.28.07-.43-.35.32-.69.63-1.11,1.02-.5-.42-.99-.82-1.33-1.11.41-.83.68-1.39.95-1.94,1.17,1.17,2.35,2.34,3.52,3.52Z"/>
    <path class="cls-21" d="m64.66,108.83c.83-.08.74.52.77,1.03-.26.91-.52,1.83-.77,2.74-.08.08-.16.16-.23.24-.68.34-1.36.67-2.04,1.01.02-.25.05-.51.07-.76.94.06.94-.6.96-1.25.33-.2.94-.41.93-.59-.05-.81-.27-1.62-.43-2.43.25,0,.5,0,.75,0Z"/>
    <path class="cls-21" d="m65.91,102.29c-.06,1.06-.12,2.11-.19,3.3-.59-.13-.94-.21-1.29-.29.03-1.18.05-2.35.08-3.53.45,0,.91,0,1.36,0,.01.17.03.34.04.51Z"/>
    <path class="cls-14" d="m61.62,55.08c.35-.61.69-1.23,1.04-1.84,1.19.12,2.07.53,1.79,1.99-.61.28-1.22.57-1.83.85-.33-.33-.67-.67-1-1Z"/>
    <path class="cls-8" d="m50.35,41.73c.45.13,1,.14,1.32.42.58.49,1.01,1.15,1.51,1.73l-.24.28c-.6-.33-1.17-.72-1.81-.96-.32-.12-.78-.03-1.13.09-.85.29-1.58.27-2.15-.53.65-.01,1.29,0,1.94-.05.63-.05.85-.39.55-.99Z"/>
    <path class="cls-16" d="m72.93,225.46c.69-.07,1.42-.3,2.06-.14.36.09.57.8.85,1.23-.41.15-.82.3-1.37.5,0,.1-.03.38-.05.66-.5-.75-1-1.5-1.5-2.26Z"/>
    <path class="cls-9" d="m63.41,111.85c-.02.65-.02,1.31-.96,1.25v-4.25c.33,0,.65,0,.96,0,0,0,0,0,0,0,0,1,0,2,0,3Z"/>
    <path class="cls-16" d="m58.87,208.88c.42-.2.85-.39,1.32-.61,1.6,1.06,1.78,1.75.63,2.66-.65-.68-1.3-1.37-1.95-2.05Z"/>
    <path class="cls-16" d="m56.43,205.58c.23-.36.46-.73.81-1.29.83.75,1.68,1.49,2.47,2.29.19.2.21.63.18.95-.01.12-.53.33-.57.28-.19-.22-.36-.49-.42-.78-.23-1.16-.61-1.35-1.85-.88-.21-.19-.42-.38-.63-.57Z"/>
    <path class="cls-9" d="m51.86,39.26c.18-.93.51-1.74,1.52-2.06.04.32-.03.77.15.94.79.72.63,1.52.34,2.36-.67-.41-1.34-.82-2.01-1.24Z"/>
    <path class="cls-17" d="m73.2,64.33c-.23.05-.51.21-.68.13-.55-.26-1.68-3.11-1.48-3.69.04-.1.27-.14.41-.21.07,0,.14.02.21.04.51,1.24,1.03,2.49,1.54,3.73Z"/>
    <path class="cls-16" d="m74.47,51.2c-.31.38-1.18.52-.54,1.3-.42.01-.84.02-1.26.03-.33-.66-.66-1.31-1-1.97.92.27,2.05-.41,2.8.63Z"/>
    <path class="cls-6" d="m64.66,108.83c-.25,0-.5,0-.75,0-.17,0-.34.01-.51.02,0,0,0,0,0,0,0-.97,0-1.95,0-3,.36-.02.68-.04.99-.06.09,1.01.17,2.03.26,3.04Z"/>
    <path class="cls-8" d="m87.48,97.57c.99-1.02,1.98-2.05,2.97-3.07.26,0,.51,0,.77,0h0c-.15.28-.24.63-.47.82-1.07.93-2.17,1.81-3.26,2.71,0-.15,0-.31-.01-.46Z"/>
    <path class="cls-8" d="m79.47,105.82c0-.14,0-.28-.01-.42.07-.11.14-.22.21-.34,0,0,.01-.02.01-.02.06-.07.11-.14.17-.21,1.11-1.11,2.22-2.22,3.33-3.32-.37.67-.63,1.43-1.13,1.98-.78.85-1.71,1.56-2.58,2.33Z"/>
    <path class="cls-8" d="m39.33,40.51c.42-.03.84-.05,1.27-.08l1.54.25c.05.1.11.19.16.29.03.16.05.33.08.49-.64.09-1.27.22-1.91.25-.78.03-1.21-.36-1.14-1.2Z"/>
    <path class="cls-8" d="m66.69,50c-.08-.58-.17-1.16-.25-1.74,1.11-.02,2.3-.21,2.71,1.27-.82.16-1.64.31-2.46.47Z"/>
    <path class="cls-16" d="m66.69,50c.82-.16,1.64-.31,2.46-.47.1.22.2.44.3.66-.24.33-.47.65-.71.98.1.01.21.03.31.04-.02.53-.05,1.05-.07,1.58-.19-.35-.37-.69-.56-1.04-.02-.39-.04-.79-.06-1.18h-.95c-.24-.19-.48-.38-.71-.56Z"/>
    <path class="cls-2" d="m47.61,42.69c.17-.4.34-.81.5-1.21.09-.34.17-.68.26-1.03.09.09.18.18.27.27-.17.91.4.82.97.72.25.1.49.19.74.29.3.6.08.94-.55.99-.64.05-1.29.04-1.94.05-.08-.03-.17-.06-.25-.08Z"/>
    <path class="cls-8" d="m44.61,41.43c.69.18,1.8-.37,1.8,1.03-.81,0-1.64.09-2.43-.05-.34-.06-.59-.59-.88-.91.51-.03,1.01-.05,1.52-.08Z"/>
    <path class="cls-8" d="m97.23,85.67c.28-.21.56-.42.83-.64.36-.28.71-.56,1.09-.85.35.77-.31,2.34-1,2.46-.11.02-.28-.3-.43-.46-.16-.17-.33-.35-.49-.52Z"/>
    <path class="cls-22" d="m57.35,117.09c.01-.32.02-.64.03-.97.1-.16.2-.32.31-.48.13-.02.27-.04.4-.06.51.26,1.02.52,1.54.79,0,.5,0,1,0,1.51-.24-.16-.64-.27-.7-.48-.21-.79-.63-.43-1.04-.27-.18-.01-.36-.03-.54-.04Z"/>
    <path class="cls-8" d="m78.7,99.58c-.99-.11-1.5-.52-1.1-1.61.13-.37.1-.8.14-1.2.23.26.68.54.66.77-.09.89.29,1.32,1.08,1.51-.1.15-.2.31-.3.46,0,0,0,0,0,0-.16.02-.31.04-.47.07Z"/>
    <path class="cls-15" d="m62.62,56.08c.61-.28,1.22-.57,1.83-.85.34.35.67.69,1.01,1.04-.52.26-1.04.53-1.56.79h-.11s-.11,0-.11,0c-.18-.09-.35-.18-.53-.27-.18-.24-.36-.47-.54-.71Z"/>
    <path class="cls-8" d="m31.07,42.47c-.24-.82-.53-1.63-.67-2.46-.02-.1.76-.33,1.17-.5l-.5,2.97Z"/>
    <path class="cls-8" d="m71.66,60.6c-.07-.02-.14-.03-.21-.04l-.02-.97c.24-.41.48-.82.72-1.23.78.23,1.55.46,2.33.69-1.34-.21-2.16.52-2.82,1.56Z"/>
    <path class="cls-8" d="m38.88,32.25c-.19-.61-.38-1.22-.57-1.83.35-.32.69-.64,1.04-.96-.16.93-.31,1.86-.47,2.79Z"/>
    <path class="cls-8" d="m76.16,48.56l1.02-.11c.33.03.66.06.99.09l.25.48c.01.16.03.32.04.49-1.85.5-2,.44-2.31-.95Z"/>
    <path class="cls-8" d="m84.68,100.03c.17-.25.35-.5.52-.75.67-.17,1.34-.34,2.01-.51.36.51.42.91-.36,1.01-.72.09-1.45.17-2.17.25Z"/>
    <path class="cls-8" d="m87.47,89.77c.58-.44,1.16-.88,1.74-1.32.2.63.32,1.18-.3,1.75-.82.75-1.24.65-1.44-.43Z"/>
    <path class="cls-15" d="m87.21,98.77c-.67.17-1.34.34-2.01.51,0-.29-.02-.58,0-.87.06-.77.36-1.07,1.14-.64.3.17.7.17,1.05.24-.06.25-.13.51-.19.76Z"/>
    <path class="cls-8" d="m79.4,95.77c.21.01.53.12.63.02.27-.29.46-.67.68-1.01.33,0,.66.02.99.03-.27,1.15-1.07,1.72-2.01,1.44-.02-.07-.04-.14-.05-.2l-.16.21c-.14-.09-.29-.17-.43-.26.12-.07.24-.15.36-.22Z"/>
    <path class="cls-8" d="m101.23,79.95c.1.24.19.48.29.72-.81.56-1.67.62-2.58.25.6-.43,1.2-.86,1.8-1.28.16.11.33.21.49.32Z"/>
    <path class="cls-16" d="m64.21,199.29c-.73.13-1.45.26-2.18.39-.01.14-.03.28-.04.41-.19-.23-.38-.45-.47-.57.42-.54.77-.97,1.11-1.41.5.32,1,.64,1.51.96.03.07.06.14.09.21Z"/>
    <path class="cls-19" d="m91.95,92.99c.84-.83,1.68-1.66,2.52-2.49,0,.16,0,.32,0,.49-.59.67-1.17,1.34-1.76,2.01-.26,0-.51,0-.77,0Z"/>
    <path class="cls-8" d="m45.11,30.37c.43.35.86.69,1.29,1.04-1.61.43-1.85.32-2.04-.92.17-.04.33-.08.5-.12h.25Z"/>
    <path class="cls-8" d="m90.67,64.33c.5-.67.99-1.35,1.49-2.02.47,1.04-.1,1.81-1.49,2.02Z"/>
    <path class="cls-8" d="m89.96,87.68c.6-.18,1.2-.36,1.8-.54.1.18.3.51.28.52-.42.29-.83.66-1.3.77-.4.09-.87-.13-1.3-.21.17-.18.35-.36.52-.54Z"/>
    <path class="cls-19" d="m82.2,233.78c.5-.19.99-.39,1.49-.58.09.03.17.05.26.08-.6.56-1.19,1.12-1.8,1.66-.02.02-.3-.25-.46-.39.15-.18.3-.36.45-.54.04-.07.06-.14.07-.22Z"/>
    <path class="cls-17" d="m59.35,173.43c-.23-.28-.66-.55-.66-.83-.01-.76.52-1.02,1.23-.91-.19.58-.38,1.17-.57,1.75Z"/>
    <path class="cls-8" d="m95.51,88.98c0-.25-.01-.5-.02-.75.17-.23.34-.47.51-.7.24-.17.49-.33.73-.5,0,.9.17,1.92-1.22,1.95Z"/>
    <path class="cls-16" d="m89.49,228.05c-.11-1.03.06-1.88,1.3-2.05,0,.16,0,.31,0,.47-.43.53-.87,1.06-1.3,1.58Z"/>
    <path class="cls-15" d="m96.73,87.03c-.24.17-.49.33-.73.5-.01-.29-.03-.59-.04-.88.42-.33.85-.65,1.27-.98.16.17.33.35.49.52-.33.28-.66.56-.99.84Z"/>
    <path class="cls-8" d="m91.95,92.99c.26,0,.51,0,.77,0-.5.5-1,1.01-1.5,1.51,0,0,0,0,0,0,0-.25,0-.51,0-.76.25-.25.49-.51.74-.76Z"/>
    <path class="cls-15" d="m59.62,116.38c-.51-.26-1.02-.52-1.54-.79.25-.25.51-.51.76-.76.26.51.52,1.03.78,1.55Z"/>
    <path class="cls-3" d="m85.45,213.89c-.58-.59-1.17-1.18-1.75-1.76,1.11-.3,1.46.05,1.75,1.76Z"/>
    <path class="cls-17" d="m64.92,159.63c-.13-.45-.27-.9-.47-1.58.47-.07.94-.14,1.41-.21-.07.24-.15.49-.22.73-.06.09-.13.18-.19.27-.18.26-.35.52-.53.78Z"/>
    <path class="cls-3" d="m90.97,217.45c-.32-.02-.65-.04-.97-.06-.17-.17-.34-.34-.5-.51-.05-.14-.1-.29-.15-.43.81-.07,1.65-.18,1.87.94-.08.02-.16.04-.24.06Z"/>
    <path class="cls-8" d="m93.98,84.76c.32-.27.63-.55.95-.82.1.28.2.56.29.85-.42.14-.85.86-1.24-.03Z"/>
    <path class="cls-16" d="m62.32,212.42c.29-.38.57-.76.86-1.13q.5.5-.06,1.92c-.27-.26-.54-.53-.8-.79Z"/>
    <path class="cls-8" d="m58.18,46.26c-.03.15-.06.31-.09.46-.64-.06-1.31.97-1.94-.03.68-.14,1.35-.29,2.03-.43Z"/>
    <path class="cls-8" d="m38.6,47.23c-.09-.16-.18-.31-.27-.47.84,0,1.84-.28,2,1.05-.33-.08-.66-.17-.99-.25-.25-.11-.49-.21-.74-.32Z"/>
    <path class="cls-8" d="m53.88,53.48c-.33.02-.65.03-.98.05-.18-.32-.37-.65-.55-.97l.04-.05c.73-.03,1.39.03,1.48.97Z"/>
    <path class="cls-8" d="m86.2,64.63c.59.24,1.17.47,1.76.71-.84.4-1.43.16-1.76-.71Z"/>
    <path class="cls-8" d="m67.42,45.97c.55.34,1.11.69,1.66,1.03-.88.18-1.86.53-1.66-1.03Z"/>
    <path class="cls-8" d="m77.41,108.59c.04-.07.05-.14.04-.22.1-.18.2-.35.29-.53.23-.18.46-.36.68-.54.02.8.1,1.64-1.03,1.77,0-.16,0-.32,0-.48Z"/>
    <path class="cls-8" d="m85.95,67.57c-.37-.04-.73-.08-1.1-.12-.15-.27-.29-.55-.44-.82.51.32,1.02.63,1.54.95Z"/>
    <path class="cls-8" d="m89.46,65.89c.32-.22.64-.44.96-.66-.09.44-.18.88-.27,1.33-.23-.22-.46-.45-.69-.67Z"/>
    <path class="cls-8" d="m55.56,46.62c-.24.29-.49.57-.82.97-.26-.47-.44-.78-.61-1.09.48.04.96.08,1.43.12Z"/>
    <path class="cls-8" d="m94.47,90.99c0-.16,0-.32,0-.49.24-.26.48-.52.72-.78.68.95-.06,1.09-.72,1.27Z"/>
    <path class="cls-17" d="m60.35,170.92c-.14-.24-.28-.49-.42-.73.33-.17.66-.34,1-.51-.19.41-.39.83-.58,1.24Z"/>
    <path class="cls-9" d="m75.68,110.84c.43-.5.86-1,1.29-1.5.06,0,.13.01.19.03,0,.15.02.3.02.44-.5.34-1.01.68-1.51,1.03Z"/>
    <path class="cls-16" d="m59.95,195.43c-.63.46-1.22.82-1.29-.43.43.14.86.28,1.29.43Z"/>
    <path class="cls-8" d="m81.69,66.57c-.42-.24-.83-.48-1.25-.72.87-.55,1.02.15,1.25.72Z"/>
    <path class="cls-16" d="m70.91,223.97c.19-.15.38-.3.57-.45.15.31.29.63.44.94-.17-.01-.34-.03-.51-.04-.08-.07-.16-.14-.25-.2-.08-.08-.17-.16-.25-.24Z"/>
    <path class="cls-9" d="m59.42,39.95c-.84.52-.9-.37-1.28-.7.6-.08,1.18-.14,1.28.7Z"/>
    <path class="cls-20" d="m66.38,217.93c.38.02.77.03,1.15.05.02.1.04.2.06.3-.3.13-.6.25-.91.38-.1-.25-.21-.49-.31-.74Z"/>
    <path class="cls-16" d="m61.88,197.31c-.83,0-1.35-.32-1.24-1.25.41.42.83.84,1.24,1.25Z"/>
    <path class="cls-15" d="m79.69,233c.08.15.17.3.25.45-.51-.23-1.02-.46-1.53-.69.09,0,.19,0,.28-.01.33.08.67.17,1,.25Z"/>
    <path class="cls-3" d="m59.39,192.58c.43-.1.85-.21,1.28-.31-.41.18-.62,1.18-1.28.31Z"/>
    <path class="cls-8" d="m76.43,51.48c-.5-.06-1.01-.13-1.51-.19.55-.32,1.1-.61,1.51.19Z"/>
    <path class="cls-8" d="m49.62,41.44c-.57.1-1.14.19-.97-.72.32.24.65.48.97.72Z"/>
    <path class="cls-17" d="m61.28,169.11c-.45-.71-.63-1.29.57-1.21-.07.24-.14.49-.22.73-.06.1-.13.19-.19.29-.05.07-.11.13-.16.2Z"/>
    <path class="cls-8" d="m38.08,46.53c-.33-.03-.66-.05-.99-.08.2-.22.39-.44.59-.67.13.25.27.5.4.74Z"/>
    <path class="cls-3" d="m70.67,201.13c.34-.28.67-.56,1.01-.84-.04.63-.08,1.28-1.01.84Z"/>
    <path class="cls-3" d="m81.94,208.37c.34.08.67.16,1.01.23-.15.16-.3.32-.44.48-.19-.24-.38-.48-.56-.71Z"/>
    <path class="cls-3" d="m55.36,190.32c-.23-.1-.46-.21-.68-.31-.08-.25-.17-.49-.25-.74.75-.04,1.01.35.94,1.05Z"/>
    <path class="cls-19" d="m91.75,224.04c.16-.11.32-.21.48-.32-.21.41-.42.82-.64,1.23.05-.3.11-.61.16-.91Z"/>
    <path class="cls-8" d="m39.89,44.69c.41.18.81.35,1.22.53-.7.49-1.06.2-1.22-.53Z"/>
    <path class="cls-8" d="m51.14,52.49c.43-.77.85-.7,1.26.02,0,0-.04.05-.04.05-.42,0-.83.01-1.25.02l.03-.09Z"/>
    <path class="cls-8" d="m46.86,47.53c.34.05.68.11,1.02.16-.36.66-.54.63-1.02-.16Z"/>
    <path class="cls-3" d="m67.42,198.33l.5.21c-.17.23-.34.45-.52.68-.08-.2-.15-.4-.23-.61,0,0-.03-.1-.03-.1.09-.06.19-.12.28-.19h0Z"/>
    <path class="cls-8" d="m44.63,50.21l-.29-.43c.54-.31.93-.26,1.02.45-.24,0-.49-.01-.73-.02Z"/>
    <path class="cls-8" d="m83.45,63.65c.43.23.87.45,1.3.68-.43-.23-.87-.45-1.3-.68Z"/>
    <path class="cls-8" d="m35.86,46.49c-.1-.15-.19-.31-.29-.46.34.14.68.29,1.01.43-.24,0-.48.02-.72.03Z"/>
    <path class="cls-16" d="m88.47,229.26c-.07-.74.26-1.08.99-1.03-.33.34-.66.69-.99,1.03Z"/>
    <path class="cls-8" d="m51.71,32.48c.32.31.63.63.95.94-.69.06-1.19-.06-.95-.94Z"/>
    <path class="cls-8" d="m58.65,57.28c-.09-.16-.18-.31-.27-.47.43.23.86.45,1.28.68-.34-.07-.68-.14-1.01-.21Z"/>
    <path class="cls-8" d="m55.64,51.5c.35.25.7.51,1.05.76-.35-.25-.7-.51-1.05-.76Z"/>
    <path class="cls-8" d="m97.21,82.69c.1-.16.19-.33.29-.49.14-.09.29-.19.43-.28.48.93-.28.7-.72.77Z"/>
    <path class="cls-15" d="m82.14,234.01c-.15.18-.3.36-.45.54-.19-.17-.38-.34-.57-.51.19,0,.38-.02.57-.03.15,0,.3,0,.45,0Z"/>
    <path class="cls-8" d="m42.1,45.74c.26.15.52.29.78.44-.72.68-.76.13-.78-.44Z"/>
    <path class="cls-19" d="m86.2,215.61c-.24-.24-.47-.47-.71-.71.24.24.47.47.71.71Z"/>
    <path class="cls-8" d="m57.68,115.65c-.1.16-.2.32-.31.48-.21-.09-.42-.17-.76-.32.35-.2.56-.32.77-.43.1.09.2.18.3.28Z"/>
    <path class="cls-8" d="m37.34,39.5c.32.15.64.31.96.46-.32-.15-.64-.31-.96-.46Z"/>
    <path class="cls-19" d="m70.91,223.97c.08.08.17.16.25.24,0,.08.01.16.03.24-.63.07-.85-.23-.75-.83.16.12.31.23.47.35Z"/>
    <path class="cls-19" d="m76.43,207.56c-.27-.14-.53-.28-.8-.43.27.14.53.28.8.43Z"/>
    <path class="cls-19" d="m84.95,236.53l-.76.2c.25-.07.5-.13.76-.2Z"/>
    <path class="cls-8" d="m96.23,82.74c.25,0,.5,0,.75,0-.14.14-.29.28-.43.43-.11-.14-.21-.28-.32-.42Z"/>
    <path class="cls-16" d="m58.67,195.02c-.26-.21-.52-.43-.78-.64.26.21.52.43.78.64Z"/>
    <path class="cls-8" d="m47.61,34.39c-.25-.06-.51-.12-.76-.18.25.06.51.12.76.18Z"/>
    <path class="cls-8" d="m86.73,68.31c-.09-.15-.19-.29-.28-.44.25.15.51.3.76.46-.16,0-.32-.01-.48-.02Z"/>
    <path class="cls-8" d="m60.37,112.65c-.16-.11-.32-.22-.48-.32.12-.11.23-.22.35-.34.04.22.09.44.13.66Z"/>
    <path class="cls-8" d="m45.38,46.94c.25.18.5.37.76.55-.25-.18-.5-.37-.76-.55Z"/>
    <path class="cls-3" d="m79.25,208.6c-.11-.16-.21-.31-.32-.47.12-.05.25-.09.37-.14l-.06.61Z"/>
    <path class="cls-8" d="m39.86,34.43c-.1-.16-.19-.32-.29-.48.26.15.52.3.78.44-.16.01-.32.02-.49.04Z"/>
    <path class="cls-8" d="m41.37,34.88c0-.07-.01-.13-.03-.19.25.18.5.35.75.53-.24-.11-.47-.22-.71-.34Z"/>
    <path class="cls-8" d="m49.9,52.52c-.09-.16-.18-.33-.27-.49.25.15.5.31.74.46-.16.01-.31.02-.47.03Z"/>
    <path class="cls-3" d="m65.95,156.84c.17-.16.35-.32.52-.48-.17.16-.35.32-.52.48Z"/>
    <path class="cls-19" d="m94.43,224.96c-.16.15-.31.31-.47.46.16-.15.31-.31.47-.46Z"/>
    <path class="cls-3" d="m61.96,167.65c.07-.17.13-.33.2-.5-.07.17-.13.33-.2.5Z"/>
    <path class="cls-3" d="m65.98,157.6c0-.17,0-.34,0-.5.11.08.23.17.34.25l-.34.25Z"/>
    <path class="cls-8" d="m32.58,44.45c-.17,0-.33,0-.5,0,.08-.12.17-.24.25-.36.08.12.17.24.25.36Z"/>
    <path class="cls-8" d="m77.69,61.05c.16.1.32.19.49.29-.16-.1-.32-.19-.49-.29Z"/>
    <path class="cls-8" d="m59.41,54c.17.09.33.18.5.27-.17-.09-.33-.18-.5-.27Z"/>
    <path class="cls-2" d="m81.69,237.51c-.15.17-.29.35-.44.52.15-.17.29-.35.44-.52Z"/>
    <path class="cls-8" d="m46.04,33.46c-.07-.08-.13-.16-.2-.23l.35-.19c-.05.14-.1.28-.15.42Z"/>
    <path class="cls-8" d="m63.16,56.79c.18.09.35.18.53.27-.03.08-.06.17-.09.25-.15-.17-.29-.35-.44-.52Z"/>
    <path class="cls-9" d="m73.72,66.34l-.27-.5.27.5Z"/>
    <path class="cls-8" d="m66.41,44.03c.15.16.29.32.44.48-.15-.16-.29-.32-.44-.48Z"/>
    <path class="cls-19" d="m90.79,226.46c0-.16,0-.31,0-.47.06,0,.12-.01.18-.05,0,0,.12.01.12.01,0,0,.12-.02.12-.02-.14.18-.28.35-.42.53Z"/>
    <path class="cls-15" d="m79.18,99.51c.1-.15.2-.31.3-.46.07,0,.14,0,.21.01-.17.15-.34.3-.51.45Z"/>
    <path class="cls-8" d="m58.41,45.19c0,.28,0,.56,0,.83,0-.28,0-.56,0-.83Z"/>
    <path class="cls-19" d="m85.22,232.26c.16-.07.32-.13.48-.2-.16.07-.32.13-.48.2Z"/>
    <path class="cls-15" d="m90.97,217.45c.08-.02.16-.05.24-.06.07.09.14.18.22.27-.15-.07-.31-.13-.46-.2Z"/>
    <path class="cls-15" d="m91.72,218.17c-.08-.15-.16-.31-.25-.46.08.15.16.31.25.46Z"/>
    <path class="cls-3" d="m88.71,216.36c-.09-.06-.18-.12-.26-.18.06-.04.11-.08.17-.11.03.1.07.2.1.3Z"/>
    <path class="cls-8" d="m59.84,110.86c.1-.18.19-.36.29-.54-.1.18-.19.36-.29.54Z"/>
    <path class="cls-9" d="m54.9,37.44c-.17-.06-.34-.12-.51-.19.17.06.34.12.51.19Z"/>
    <path class="cls-15" d="m77.41,108.59c0,.16,0,.32,0,.48-.08,0-.16,0-.23-.03.08-.15.16-.3.24-.45Z"/>
    <path class="cls-8" d="m62.65,40.2l.44.28c-.15-.09-.29-.19-.44-.28Z"/>
    <path class="cls-19" d="m84.72,232.5c.16-.08.33-.15.49-.22-.16.08-.33.15-.49.22Z"/>
    <path class="cls-8" d="m91.2,54.24c-.16,0-.32,0-.48.01.16,0,.32,0,.48-.01Z"/>
    <path class="cls-8" d="m58.71,112.1c.06-.09.11-.17.17-.26-.06.09-.11.17-.17.26Z"/>
    <path class="cls-8" d="m82.19,49.77c.06.08.13.16.19.24-.06-.08-.13-.16-.19-.24Z"/>
    <path class="cls-3" d="m57.68,178.45c.07-.09.13-.18.2-.28-.07.09-.13.18-.2.28Z"/>
    <path class="cls-8" d="m62.65,63.84c-.07-.08-.14-.17-.21-.25.07.08.14.17.21.25Z"/>
    <path class="cls-15" d="m71.2,224.44c-.02-.08-.03-.16-.03-.24.08.07.16.14.25.2-.07.03-.14.04-.21.03Z"/>
    <path class="cls-8" d="m76.93,64.29c-.09-.06-.18-.13-.28-.19.09.06.18.13.28.19Z"/>
    <path class="cls-8" d="m57.65,53.09c.08.07.16.13.24.2-.08-.07-.16-.13-.24-.2Z"/>
    <path class="cls-8" d="m79.43,65.55l-.11.05h-.12c-.01-.09-.03-.16-.05-.23.1.06.19.12.29.18Z"/>
    <path class="cls-8" d="m42.35,35.4c-.09-.06-.18-.13-.28-.19.09.06.18.13.28.19Z"/>
    <path class="cls-8" d="m65.34,65.61c.05.08.05.15.01.23-.03-.05-.06-.11-.08-.16,0-.02.04-.05.07-.07Z"/>
    <path class="cls-15" d="m85.69,231.96c0-.07.01-.14.02-.21.1,0,.19.01.29.02-.1.07-.2.13-.31.2Z"/>
    <path class="cls-19" d="m84.49,232.74c.07-.08.14-.15.21-.23-.07.08-.14.15-.21.23Z"/>
    <path class="cls-15" d="m83.96,233.28c-.09-.03-.17-.05-.26-.08,0-.07,0-.14,0-.21.11.01.23.02.34.04-.03.08-.06.16-.08.25Z"/>
    <path class="cls-8" d="m43.59,44.44c-.12-.06-.23-.11-.35-.17.11.06.23.11.35.17Z"/>
    <path class="cls-3" d="m64.21,199.29c-.03-.07-.06-.14-.09-.21.08.04.16.08.24.12-.05.04-.1.07-.15.09Z"/>
    <path class="cls-8" d="m59.3,113.64c-.05.07-.1.15-.16.22.05-.07.1-.15.16-.22Z"/>
    <path class="cls-8" d="m39.6,44.53c.09.06.18.12.27.18-.09-.06-.18-.12-.27-.18Z"/>
    <path class="cls-8" d="m66.89,44.55c.07.02.14.04.21.06-.06.03-.13.07-.19.1,0-.05,0-.11-.01-.16Z"/>
    <path class="cls-3" d="m61.44,168.92c.06-.1.13-.19.19-.29-.06.1-.13.19-.19.29Z"/>
    <path class="cls-19" d="m80.67,211.05c-.07-.06-.14-.11-.22-.17.07.06.14.11.22.17Z"/>
    <path class="cls-19" d="m75.19,139.76c-.09.07-.18.13-.26.2.09-.07.18-.13.26-.2Z"/>
    <path class="cls-8" d="m73.92,66.8l-.18-.03c.06-.05.12-.11.18-.16,0,.06,0,.13,0,.19Z"/>
    <path class="cls-8" d="m39.58,33.95c-.06-.09-.12-.18-.19-.27.06.09.12.18.19.27Z"/>
    <path class="cls-8" d="m60.19,109.59c.07-.08.14-.16.21-.25-.07.08-.14.16-.21.25Z"/>
    <path class="cls-8" d="m77.17,109.37c-.06-.01-.13-.02-.19-.03.07-.07.15-.15.22-.22,0,.08-.02.17-.03.25Z"/>
    <path class="cls-8" d="m90.24,54.3c-.08.03-.15.07-.23.1.08-.03.15-.07.23-.1Z"/>
    <path class="cls-16" d="m55.1,204.36c.09.09.18.18.27.27-.09-.09-.18-.18-.27-.27Z"/>
    <path class="cls-3" d="m65.45,158.85c.06-.09.13-.18.19-.27-.06.09-.13.18-.19.27Z"/>
    <path class="cls-8" d="m77.66,52.18c-.09,0-.14-.04-.13-.13.06.03.1.07.13.13Z"/>
    <path class="cls-8" d="m49.13,48.32c.11.06.22.11.33.17-.11-.06-.22-.11-.33-.17Z"/>
    <path class="cls-8" d="m41.34,48.45l-.11.05-.12-.02c-.01-.07-.03-.14-.04-.22l.28.18Z"/>
    <path class="cls-8" d="m33.83,45.2c-.09-.07-.17-.14-.26-.21.09.07.17.14.26.21Z"/>
    <path class="cls-8" d="m84.68,91.99c.09-.07.19-.14.28-.2-.09.07-.19.14-.28.2Z"/>
    <path class="cls-3" d="m63.7,163.37c.06-.09.13-.18.19-.27-.06.09-.13.18-.19.27Z"/>
    <path class="cls-8" d="m86.5,90.23l.2-.28c-.07.09-.13.19-.2.28Z"/>
    <path class="cls-8" d="m58.48,112.6c-.05-.07-.06-.14-.03-.22.07,0,.13,0,.19-.02-.05.08-.11.16-.16.24Z"/>
    <path class="cls-3" d="m57.43,178.96c.06-.09.13-.18.19-.27-.06.09-.13.18-.19.27Z"/>
    <path class="cls-16" d="m91.21,225.94l-.12.02s-.12-.01-.12-.01c.07-.08.13-.15.2-.23.01.07.03.14.04.22Z"/>
    <path class="cls-6" d="m69.41,118.14c.11-.09.21-.18.32-.27.7-1.21,1.76-.44,2.67-.49-.16.17-.31.34-.47.51-1.19.24-1.31.58-.51,1.5,0,.84,0,1.67,0,2.51-.25.5-.49,1.01-.74,1.51-1.46,1.94-1.13,4.37-1.77,6.53-.16.42-.33.84-.49,1.26.38,1.46-1.12,2.25-1.26,3.52-.25.67-.5,1.34-.75,2.01-.59,1.26-1.17,2.51-1.76,3.77-.08.25-.16.5-.24.76.03,1.14-.39,2.07-1.04,3.01-.53.77-.65,1.82-.99,2.73-.21.57-.51,1.12-.75,1.68-.19.45-.34.91-.51,1.37-.08.17-.16.33-.24.5-.25.5-.5,1.01-.75,1.51-.41.04-.82.08-1.39.14.29.52.47.82.64,1.13,0,.16,0,.33,0,.49.04,1.06-.07,2.03-1.06,2.74-.37.26-.61.78-.78,1.24-.51,1.34-.96,2.71-1.43,4.07-.25.5-.5,1.01-.75,1.51-.75,1.25-1.5,2.51-2.25,3.76-.59.98-1.27,1.91-1.74,2.94-.84,1.83-1.75,3.58-3.24,4.98-.35.32-.48.87-.79,1.24-.56.67-1.18,1.28-1.78,1.91-.49-.17-.99-.33-1.48-.5.57-1.46.25-3.2-.74-4.03-.33-.34-.66-.67-.99-1.01,0-.25,0-.5,0-.75.77-.29,1.55-.55,2.29-.89.43-.2.8-.52,1.19-.79.05.46.19.94.12,1.39-.06.38-.36.73-.53,1.1-.12.26-.21.53-.32.79.09.06.18.12.28.18.19-.16.44-.29.56-.5.59-1.02,1.13-2.07,1.72-3.09.92-1.59,1.87-3.16,2.79-4.75.09-.15.08-.37.09-.46-.57-.12-1.06-.22-1.54-.32.17-.44.46-.88.49-1.33.09-1.13.06-2.28.08-3.42.92-1.43,1.84-2.87,2.75-4.3,1.27.6,1.48-.48,1.72-1.21.37-1.11.9-1.3,1.84-.67.14.1.37.07.56.1.17-1-.97-2.45-2.07-2.71.16-.92.32-1.84.48-2.77.79.62,1.58,1.24,2.47,1.93,1.34-3.03,2.67-6.05,4-9.07-.1-.07-.2-.14-.3-.21-.55.45-1.1.9-1.65,1.35-.06-.88.23-1.54.13-2.14-.11-.67-.01-.91.61-1.23,1.78-.92,2.03-3.97.49-5.22.09-.25.18-.5.27-.75.2.03.46-.02.6.09,1.01.82,1.34.18,1.58-.7.05-.2.11-.4.2-.58.62-1.32.47-1.73-.89-2.32v-.25c.25-.58.51-1.17.77-1.75,1.21-.24,1.48-.05,1.5,1.19.02,1.14,0,2.29,0,3.39,1.56-.7,2.5-5.44,1.24-6.73q-1.34,1.89-2.28.87c.1-.41.2-.82.29-1.24.6.01,1.1,0,1.28-.81.33-1.52,1.14-2.75,2.56-3.53.2-.11.28-.46.41-.71l.3-.73c.32-.33.64-.67.96-1Zm-18.43,45.92c.63-.71,1.16-1.25,1.63-1.84.14-.17.13-.45.21-.67.12-.33.19-.72.41-.98.6-.72.59-1.32-.26-2.12-.24.64-.39,1.09-.58,1.53-.16.39-.27.94-.57,1.11-1.3.72-.96,1.79-.84,2.96Zm5.24-9.26c-1.12-.17-1.84.58-1.92,2.1.73-.8,1.26-1.38,1.92-2.1Zm4.86-15.53c.14.19.21.28.27.36.08-.06.24-.15.23-.18-.03-.12-.11-.25-.21-.32-.04-.03-.18.09-.29.14Zm2.52-4.83c-.15-.08-.27-.2-.32-.17-.11.06-.17.19-.26.29.1.04.21.12.3.11.08,0,.15-.12.27-.22Zm-.29,1.98c-.07-.03-.15-.1-.2-.08-.05.02-.06.13-.09.2.07.03.15.1.2.08.05-.02.06-.13.09-.2Zm3.51-12.44c-.03-.07-.04-.18-.09-.2-.05-.02-.14.04-.21.07.03.07.04.18.09.2.05.02.14-.04.21-.07Z"/>
    <path class="cls-7" d="m44.09,177.72c.49.17.99.33,1.48.5-.04,2.68-1.86,4.3-3.54,6.01-1.34.61-2.68,1.22-4.27,1.94.15-.72.23-1.08.31-1.44.07-.83.13-1.66.2-2.48.69-1.35,1.38-2.69,2.07-4.04,1.47-.17,1.6,1.68,3.15,1.98-.25-.94-.46-1.71-.66-2.48.17-.09.34-.19.5-.28.25.1.5.2.75.3Z"/>
    <path class="cls-4" d="m51.36,212.89c0,.59,0,1.17,0,1.76-.96.05-1.21-.62-1.23-1.36-.05-1.69-.07-3.39.02-5.09.02-.46.47-.9.71-1.34.17.17.34.34.5.5,0,1,0,2.01-.01,3.01-.93.53-.93,1.61,0,2.51Z"/>
    <path class="cls-22" d="m40.35,178.21c-.69,1.35-1.38,2.69-2.07,4.04-.31.67-.62,1.34-.93,2.01-.22-.04-.44-.07-.66-.11-.8-.99-1.61-1.97-2.41-2.96-.95-3.72-3.37-6.41-6.03-9.03-1.52-1.5-2.62-3.42-3.9-5.16-.27-.37-.44-.81-.72-1.17-1.64-2.09-3.3-4.17-4.93-6.27-.2-.26-.21-.66-.31-.99.14.08.27.19.42.23.82.23,1.62.97,2.48.08.71.81,1.44,1.6,2.13,2.42,1.24,1.49,2.28,3.2,4.2,3.98.2.08.31.41.46.62-.07,1.55.55,2.8,1.53,3.97,1.01,1.2,1.86,2.53,2.88,3.71.27.31.95.54,1.34.43.85-.24,1.63-.71,2.49-1.11-.58-.91-1.17-1.82-1.75-2.72.56-.27.89-1.35,1.76-.5.01.08.03.17.04.25.23.33.45.65.68.98,1.23.68,2.46,1.37,3.69,2.05.19.18.38.36.57.55.45.52.81,1.23,1.38,1.51,1.27.61,1.05,1.45.65,2.41-.17.09-.34.19-.5.28-1.47-.8-2.15-.67-2.49.51Z"/>
    <path class="cls-21" d="m28.37,194.54c.22-.55.41-1.12.67-1.65.65-1.31,1.34-2.6,2.02-3.89-.02.5.09,1.05-.09,1.48-.48,1.14-1.04,2.25-1.65,3.33-.18.32-.63.5-.95.74Z"/>
    <path class="cls-14" d="m37.34,184.25c.31-.67.62-1.34.93-2.01-.07.83-.13,1.66-.2,2.48-.24-.16-.49-.32-.73-.48Z"/>
    <path class="cls-23" d="m52.32,140.99c-.4-.07-.8-.15-1.2-.22-.17.09-.33.18-.5.26-1.87,1.83-3.39,4.02-5.93,5.13-.85.37-1.38,1.43-2.15,2.05-1.26,1.02-2.6,1.94-3.89,2.93-.42.33-.77.75-1.14,1.15-2.04,2.16-4.56,2.96-7.43,2.49-.56-.09-1.09-.77-1.51-1.28-.84-1.03-1.47-2.27-2.43-3.16-1.3-1.21-2.15-2.48-1.89-4.31-.16-.34-.31-.68-.47-1.01-.17-.34-.35-.67-.53-1,0-.17,0-.34,0-.5.03-.08.06-.17.08-.25.57-.22,1.17-.4,1.71-.68.65-.32,1.2-.76.98-1.64.26-.33.51-.67.77-1l.75.09c.08.12.15.24.23.36.09-.14.18-.29.26-.43.1-.49.2-.98.31-1.48.15-.15.31-.31.46-.46.08-.03.17-.06.25-.09.08.03.17.06.25.09.07.12.15.24.22.36.09-.14.18-.28.27-.42.53-.57,1.04-1.17,1.61-1.7.86-.8,1.76-1.56,2.65-2.33.18.17.37.34.55.51.16-.24.31-.47.47-.71.83-.85,1.66-1.71,2.49-2.56.25.09.51.18.76.27.17,0,.33,0,.5,0,.17-.08.33-.17.5-.25h0c.58-.42,1.17-.84,1.75-1.26.25-.17.5-.34.75-.51.34-.5.68-.99,1.02-1.49h0c2.16-2.18,4.33-4.37,6.49-6.55,1.25.21.79,1.29,1.04,2.02-1.13,1.5-1.78,3.48-3.96,3.91-.05.01-.06.23-.09.35-.06.25-.12.51-.19.76-.95,1.21-1.93,2.3-3.55,2.75-.93.26-1.7,1.1-2.54,1.68-.56.54-1.12,1.07-1.68,1.61-.43.44-.86.88-1.29,1.32l-.77.68c-.68.41-1.35.83-2.03,1.24-.26.22-.51.43-.77.65-.54.29-1.13.52-1.62.89-.57.44-1.43.96-1.5,1.52-.13,1-.76,1.41-1.35,1.97-.09,0-.18,0-.28.01-.07.03-.13.06-.18.12l-1.28.67c-1.12.49-1.07,1.45-1,2.43.07.1.13.21.2.31.06.02.12.04.18.05.52.58,1.04,1.15,1.56,1.73.36.47.72.95,1.08,1.42.14.19.29.38.43.56.11.08.21.16.32.24l.16.29c.03.3.06.6.09.9.07.12.14.23.21.35.1.07.19.14.29.22,1.89.8,2.64.75,3.43-.22,0,0,.07-.07.07-.07,0,0,.07.01.07.01,0,0,.07,0,.07,0,.19-.24.39-.49.58-.73.25-.33.51-.65.76-.98,2.18-.15,3.86-1.46,5.7-2.25-.09-.56-.14-.92-.2-1.29-.01-.25-.02-.5-.03-.74,0,0,.08.02.08.02.68-.07,1.7,1.09,1.94-.55.01-.08.05-.15.1-.22.22-.26.44-.52.65-.78.07-.08.15-.17.22-.25.09-.08.18-.15.27-.23.99-1.01,1.99-2.02,2.98-3.04.1-.08.19-.16.29-.23.1-.09.2-.17.29-.26.41-.34.81-.68,1.22-1.02.25-.1.51-.2.76-.29.43-.22.92-.36,1.29-.66.86-.71,1.66-1.49,2.49-2.24.49-.27.98-.53,1.47-.8,1.13-.22,1-1.12,1.02-1.94l.33-.6c.08-.04.1-.09.07-.17.03-.18.06-.35.09-.53,0-.2,0-.41,0-.61.13-.06.25-.12.38-.18,1.09,1.04,1.23,2.37,1.14,3.78-.33.17-.96.4-.94.5.27,1.36-.38,2.43-1,3.51-1.88,3.35-3.75,6.71-5.63,10.06-.06.17-.13.34-.19.5-.21.44-.3,1.02-.64,1.3-1.92,1.6-2.34,4.08-3.58,6.07-.28.45-.53.91-.82,1.36-1.09,1.69-2.18,3.37-3.28,5.05-.23.34-.54.64-.74.99-.76,1.31-1.44,2.67-2.25,3.95-.45.71-1.11,1.28-1.68,1.91-.42-.09-.84-.17-1.25-.26-.01-.08-.03-.17-.04-.25,0-.51,0-1.02,0-1.53.1-.16.19-.33.29-.49.07-.09.14-.18.21-.27.71-1.16,1.42-2.33,2.13-3.49.98-1.58,1.96-3.15,2.94-4.73.09-.14.11-.35.23-.43,1.68-1.14,2.12-3.01,2.76-4.75.6-1.63,1.62-2.92,3.01-3.93.07-.08.14-.17.2-.25.28-1.54.68-2.92,1.87-4.15.91-.94,1.26-2.41,1.87-3.64.64-.11,1.06-.33.47-1.02Z"/>
    <path class="cls-10" d="m34.57,170.18c.58.91,1.17,1.82,1.75,2.72-.86.4-1.64.88-2.49,1.11-.39.11-1.07-.11-1.34-.43-1.02-1.19-1.87-2.52-2.88-3.71-.98-1.16-1.6-2.42-1.53-3.97,1.11.5,2.31.87,3.3,1.53,1.15.77,2.13,1.81,3.19,2.74Z"/>
    <path class="cls-16" d="m15.77,155.65c-1.99-1.97-4.27-3.7-5.38-6.42,1.68-.4,5.42,3.03,6.14,5.6-.26.27-.51.54-.77.82Z"/>
    <path class="cls-10" d="m21.28,158.88c-.85.89-1.66.15-2.48-.08-.15-.04-.28-.15-.42-.23-.29-.39-.58-.78-.87-1.17.27-.19.54-.38.81-.57.99.68,1.98,1.37,2.96,2.05Z"/>
    <path class="cls-20" d="m18.32,156.83c-.27.19-.54.38-.81.57-.58-.58-1.16-1.17-1.75-1.75.26-.27.51-.54.77-.82.6.66,1.19,1.33,1.79,1.99Z"/>
    <path class="cls-3" d="m26.04,140.96c.22.87-.33,1.31-.98,1.64-.55.27-1.14.45-1.71.68-.03-.34-.05-.67-.08-1.01.18-.18.36-.36.54-.54.07.04.15.07.24.08l.52.16c.49-.34.99-.67,1.48-1.01Z"/>
    <path class="cls-10" d="m86.66,215.97c-.04,1.09,1.49,2.84,2.58,3.25.76.29,1.43.87,2.08,1.39.11.08,0,.61-.16.82-.25.31-.63.52-.95.77-.5.09-1,.18-1.5.27-.41-.19-.82-.37-1.24-.56-.68-.99-1.36-1.99-2.03-2.98.02-.59.03-1.18.05-1.78-.02-.25-.04-.49-.05-.74.41-.15.81-.3,1.22-.44Z"/>
    <path class="cls-16" d="m87.47,221.9c.41.19.82.37,1.24.56-.66.45-1.32.9-1.78,1.22-1.07-.9-1.94-1.57-2.71-2.34-.18-.18-.03-.69-.03-1.05.12-.05.25-.1.37-.16.48.63.92,1.3,1.46,1.87.29.3.75.43,1.14.63.11-.24.21-.49.32-.73Z"/>
    <path class="cls-10" d="m79.7,212.9c.58.33,1.16.67,1.73,1,0,.15-.02.3-.02.45-.65.26-1.3.52-1.95.78,0,0,0,0,0,0-.02-.41-.04-.82-.06-1.24.1-.33.2-.67.3-1Z"/>
    <path class="cls-16" d="m79.45,215.13c.65-.26,1.3-.52,1.95-.78,1.22.96,1.29,1.44.28,1.9-.11.05-.27.15-.34.11-.64-.4-1.26-.82-1.89-1.23Z"/>
    <path class="cls-16" d="m79.69,233c-.33-.08-.67-.17-1-.25.16-.43.32-.85.48-1.28.13.02.25.04.38.05.05.49.09.98.14,1.48Z"/>
    <path class="cls-16" d="m73.47,223.19c.22.23.43.46.65.68-.11.1-.3.3-.32.28-.24-.18-.46-.4-.68-.6l.36-.36Z"/>
    <path class="cls-16" d="m79.4,213.9c.02.41.04.82.06,1.24-.84-.37-.78-.79-.06-1.24Z"/>
    <path class="cls-16" d="m72.97,206.33c.17.21.32.32.34.45.01.08-.2.28-.28.27-.12-.02-.27-.17-.3-.3-.02-.1.13-.23.24-.42Z"/>
    <path class="cls-16" d="m56.64,196.1c-.2-.21-.35-.31-.38-.44-.02-.09.15-.21.23-.32.11.09.28.16.33.28.03.1-.08.25-.18.48Z"/>
    <path class="cls-16" d="m60.42,197.7c-.18.15-.29.31-.38.3-.12-.01-.29-.15-.32-.26-.02-.09.14-.31.22-.31.13,0,.26.14.49.28Z"/>
    <path class="cls-16" d="m63.68,200.36c.13.17.27.33.4.5l-.17.16c-.16-.14-.31-.29-.47-.43.08-.07.16-.15.24-.22Z"/>
    <path class="cls-16" d="m82.14,234.01c-.15,0-.3,0-.45,0,.07-.21.13-.42.2-.63.1.14.21.27.31.41,0,.08-.03.15-.07.22Z"/>
    <path class="cls-16" d="m64.24,212.39c.12.08.2.14.29.2-.1.09-.18.2-.3.25-.04.02-.2-.13-.2-.2,0-.07.12-.15.21-.25Z"/>
    <path class="cls-16" d="m67.06,203.78c-.03.07-.05.18-.1.2-.05.02-.13-.05-.2-.08.03-.07.05-.18.1-.2.05-.02.13.05.2.08Z"/>
    <path class="cls-16" d="m62.46,210.79c-.07-.03-.18-.05-.2-.1-.02-.05.05-.13.08-.2.07.03.18.04.2.09.02.05-.05.13-.08.2Z"/>
    <path class="cls-11" d="m68.05,142.38c.09,2.16-1.04,3.73-1.83,5.47-.48,1.05-.44,2.42-.34,3.62.15,1.64-.52,2.83-2.07,3-.25.03-.6-.05-.75-.22-.45-.5-.09-2.56.42-3.03.26-.24.45-.58.62-.9.18-.32.3-.67.44-1.01-.8-.91-.58-2.2.42-3.52.44-.58.79-1.32.91-2.04.22-1.35,1.19-1.27,2.17-1.38Z"/>
    <path class="cls-11" d="m74.16,120.19c-.47,1.55-.77,2.94.53,4.17-.21.27-.36.61-.62.76-1.7.97-1.49,2.51-1.29,4.07.18,1.43.19,2.82-1.26,3.69-1.57-.72-1.5-.72-.95-2.31.28-.82.26-1.74.39-2.62.05-.32.16-.62.23-.93.17-.82.3-1.64.51-2.45.09-.36.22-.83.49-1,.84-.53,1.13-1.09.68-2.07-.46-1.04.2-1.3,1.29-1.3Z"/>
    <path class="cls-11" d="m59.99,156.95c.37-.64.64-1.17.97-1.65.15-.21.45-.42.67-.41.17,0,.36.33.5.54.3.48.58.97.86,1.46.18,0,.37,0,.55-.01-.39.81-.84,1.59-1.15,2.43-.18.48-.3,1.08-.17,1.55.26.96-.32,1.01-.93,1.17-.12-.68-.22-1.27-.32-1.86-.59.46-1.3.83-1.72,1.42-.29.4-.32,1.04-.98.66-.74-.44-.02-.73.16-1.15.6-1.38,1.07-2.81,1.57-4.15Z"/>
    <path class="cls-11" d="m55.38,163.37c.25-.5.5-1.01.75-1.51.48.43,1.06.8,1.43,1.32.3.43.35,1.03.56,1.71.51-.12,1.04-.25,1.76-.43,0,.86.22,1.75-.06,2.45-.33.87-1.07,1.57-1.48,2.13-.76-.78-1.46-1.54-2.2-2.25-.49-.48-.7-.9-.09-1.45.31-.28.51-.68.77-1.03-.48-.31-.97-.62-1.45-.93Z"/>
    <path class="cls-11" d="m66.41,136.73c.25-.67.5-1.34.75-2.01.37.42.75.84.96,1.08.92-.62,1.68-1.14,2.5-1.7,1.07,2.04.26,3.61-.6,5.18-.23.41-.37.87-.6,1.45-.41-.94-.61-1.71.12-2.53.23-.26.32-1.07.18-1.16-.38-.24-.92-.28-1.4-.32-.63-.04-1.27,0-1.9,0Z"/>
    <path class="cls-11" d="m54.13,184.24v.5c-.51.09-1.03.18-1.57.28-.1-.89-.19-1.65-.28-2.4.06-.06.12-.13.19-.19.55.6,1.11,1.21,1.66,1.81Z"/>
    <path class="cls-24" d="m72.4,117.38c-.91.05-1.97-.72-2.67.49.33-.46.63-.95.99-1.38.35-.41.78-.75,1.17-1.13.09,0,.18,0,.28,0,0,.17,0,.34,0,.51.08.25.17.51.25.76l-.02.75Z"/>
    <path class="cls-24" d="m59.39,153.33c-.17-.31-.35-.61-.64-1.13.58-.06.98-.1,1.39-.14,0,.33,0,.66,0,1-.25.09-.5.18-.74.27Z"/>
    <path class="cls-24" d="m71.42,119.39c-.8-.92-.69-1.26.51-1.5-.17.5-.34,1-.51,1.5Z"/>
    <path class="cls-11" d="m68.42,131.2c.16-.42.33-.84.49-1.26.98.87.13,1.02-.49,1.26Z"/>
    <path class="cls-11" d="m70.67,123.41c.25-.5.49-1.01.74-1.51.47.85.4,1.45-.74,1.51Z"/>
    <path class="cls-9" d="m73.4,113.59c.2-.27.41-.55.61-.82.1.15.2.29.31.44-.31.13-.61.25-.92.38Z"/>
    <path class="cls-9" d="m72.66,114.86c.17-.25.34-.5.5-.75.57.75,0,.73-.5.75Z"/>
    <path class="cls-9" d="m59.39,153.33c.25-.09.5-.18.74-.27-.25.25-.49.51-.74.76,0-.16,0-.33,0-.49Z"/>
    <path class="cls-9" d="m72.42,116.63c-.08-.25-.17-.51-.25-.76.08.25.17.51.25.76Z"/>
    <path class="cls-9" d="m64.41,141.26c.08-.25.16-.5.24-.76-.08.25-.16.5-.24.76Z"/>
    <path class="cls-11" d="m57.25,170.19c.2-.19.32-.3.44-.41-.03.11-.03.24-.09.33-.02.04-.14.03-.35.08Z"/>
    <path class="cls-11" d="m68.81,141.44c-.03.07-.06.14-.09.21-.07-.03-.18-.04-.2-.09-.02-.05.05-.13.08-.2.07.03.14.06.21.09Z"/>
    <path class="cls-11" d="m51.03,199.76c-.03.07-.05.18-.09.2-.05.02-.13-.05-.2-.08.03-.07.04-.18.09-.2.05-.02.13.05.2.08Z"/>
    <path class="cls-24" d="m60.89,150.56c.08-.17.16-.33.24-.5-.08.17-.16.33-.24.5Z"/>
    <path class="cls-9" d="m74.62,112.08c.1-.16.2-.33.3-.49-.1.16-.2.33-.3.49Z"/>
    <path class="cls-9" d="m72.17,115.36c-.09,0-.18,0-.28,0,.09-.06.18-.13.28-.19,0,.06,0,.13,0,.19Z"/>
    <path class="cls-9" d="m73.21,113.86c.07-.09.13-.18.2-.27-.07.09-.13.18-.2.27Z"/>
    <path class="cls-9" d="m74.19,112.6c.08-.09.15-.18.23-.27-.08.09-.15.18-.23.27Z"/>
    <path class="cls-9" d="m74.91,111.59c.08-.09.17-.17.25-.26-.08.09-.17.17-.25.26Z"/>
    <path class="cls-9" d="m75.16,111.34c.09-.08.18-.15.26-.23-.09.08-.18.15-.26.23Z"/>
    <path class="cls-9" d="m75.44,111.1c.08-.08.16-.16.23-.24-.08.08-.16.16-.23.24Z"/>
    <path class="cls-24" d="m68.19,109.34c-.72.05-.79-.39-.79-.96.02-1.29.04-2.59,0-3.88-.05-1.7-.15-3.4-.27-5.1-.02-.24-.26-.46-.39-.7.05-.65.11-1.3.16-1.95.09-.22.22-.43.26-.66.19-1.4.21-1.41,1.48-.8.18.09.46-.03.41-.02-.19-.74-.35-1.35-.51-1.96.54.05,1.09.1,1.78.16.05-.11.2-.42.35-.74.58.09,1.17.17,1.75.26.25.83.5,1.67.76,2.5-.45-.22-.89-.45-1.34-.67-.09.08-.18.16-.27.24.45.56.9,1.13,1.35,1.69.48.92.39,1.77-.17,2.66-.24.39-.31.94-.32,1.42-.03,1.73,0,3.45,0,5.18-.42.22-.9.37-1.26.67-1.02.85-1.99,1.76-2.98,2.65Z"/>
    <path class="cls-5" d="m65.46,56.27c-.34-.35-.67-.69-1.01-1.04.28-1.46-.6-1.86-1.79-1.99-.34-.41-.67-.83-1.01-1.24.67-.24,1.34-.48,2.01-.72.25.08.49.16.74.25.41.6.81,1.2,1.22,1.8,0,0,0,0,0,0,.15.25.31.5.46.76.21.57.42,1.15.62,1.72,0,.41-.01.82-.02,1.23-.09.09-.19.18-.28.28-.31-.35-.63-.69-.94-1.04Z"/>
    <path class="cls-9" d="m70.44,70.88c-.33-.25-.66-.5-.99-.75.36-.03.72-.05,1.16-.08.02-.49.05-.9.06-1.31.03-1.32.69-1.99,1.93-1.77.92.16.58.96.48,1.52-.12.64-.37,1.26-.6,2-.59.11-1.31.25-2.03.38Z"/>
    <path class="cls-12" d="m59.63,47.45c-.17-.94-.35-1.88-.5-2.83-.05-.29,0-.6,0-.9.09.09.17.18.26.27.08.06.15.12.23.18.78.69,1.55,1.37,2.33,2.06-.1.39-.2.77-.29,1.16-.42.04-.84.07-1.26.11-.26-.02-.51-.03-.77-.05Z"/>
    <path class="cls-9" d="m65.62,53.32c-.41-.6-.81-1.2-1.22-1.8-.27-1.08-.53-2.17-.8-3.25,1.21.12,1.04.93.83,1.72,1.56.73,1.17,2.1,1.19,3.32Z"/>
    <path class="cls-12" d="m63.61,48.27c.27,1.08.53,2.17.8,3.25-.25-.08-.49-.16-.74-.25-.33-.35-.66-.7-.98-1.05-.1-.15-.21-.3-.31-.45h-.02c.02-.42.05-.86.07-1.29.24-.17.48-.34.73-.51.15.1.3.19.45.29Z"/>
    <path class="cls-9" d="m70.45,80.18c0-1.42,0-2.85,0-4.27,1.06,1,1.06,3.62,0,4.27Z"/>
    <path class="cls-21" d="m63.16,47.98c-.24.17-.48.34-.73.51-.26-.37-.51-.74-.77-1.11.1-.39.2-.77.29-1.16.99.18,1.22.89,1.2,1.76Z"/>
    <path class="cls-17" d="m67.41,50.57h.95c.02.39.04.78.06,1.18,0,.51,0,1.03-.01,1.54-1.05-.64-1-1.69-1-2.72Z"/>
    <path class="cls-9" d="m66.69,57.03c0-.41.01-.82.02-1.23.65.93,2.06,1.56,1.17,3.08-.4-.61-.79-1.23-1.19-1.84Z"/>
    <path class="cls-17" d="m70.42,55.8c0,.08,0,.16.03.24-.09.17-.19.34-.28.52h0c-1.38-.36-1.04-1.57-1.25-2.51.15,0,.31,0,.46,0,.03.08.06.17.09.25.32.5.64,1,.95,1.51Z"/>
    <path class="cls-9" d="m68.44,63.59c-.02-.67-.03-1.34-.05-2.01.33.35.86.66.94,1.06.05.25-.57.63-.89.95Z"/>
    <path class="cls-9" d="m72.92,96.77c-.45-.56-.9-1.13-1.35-1.69.09-.08.18-.16.27-.24.45.22.89.45,1.34.67-.08.42-.17.84-.25,1.26Z"/>
    <path class="cls-9" d="m72.42,93.01c-.58-.09-1.17-.17-1.75-.26-.07-.42-.15-.84-.22-1.26.66.51,1.31,1.01,1.97,1.52Z"/>
    <path class="cls-9" d="m70.36,65.93c.14-.43.27-.86.41-1.29.2.16.59.35.57.48-.05.35-.27.68-.43,1.02-.18-.07-.37-.15-.55-.22Z"/>
    <path class="cls-17" d="m71.43,57.52c.14.18.28.36.43.54-.15.25-.29.5-.44.75-.43-.14-.85-.29-1.28-.43.01-.1.02-.2.04-.3.42-.19.84-.37,1.26-.56Z"/>
    <path class="cls-9" d="m69.38,54.04c-.15,0-.31,0-.46,0-.17-.25-.33-.5-.5-.75,0-.51,0-1.03.01-1.54.19.35.37.69.56,1.04.13.42.26.84.39,1.26Z"/>
    <path class="cls-9" d="m71.42,58.82c.15-.25.29-.5.44-.75.1.1.19.2.29.3-.24.41-.48.82-.72,1.23,0-.26,0-.52-.01-.78Z"/>
    <path class="cls-15" d="m78.19,100.8c0,.85-.42,1.26-1.26,1.24l1.26-1.24Z"/>
    <path class="cls-9" d="m68.09,55.48c-.12-.33-.25-.65-.37-.98.1-.04.2-.08.3-.12.13.32.26.64.4.97-.11.04-.22.09-.33.13Z"/>
    <path class="cls-17" d="m70.95,56.54c0,.17,0,.34,0,.5-.26-.16-.52-.33-.79-.49,0,0,0,0,0,0,.26,0,.52,0,.78-.01Z"/>
    <path class="cls-9" d="m66.08,54.08c-.15-.25-.31-.5-.46-.76.24.09.49.17.73.26-.09.17-.18.33-.27.5Z"/>
    <path class="cls-9" d="m66.72,51.43c-.07-.03-.18-.05-.2-.1-.02-.05.05-.13.08-.2.07.03.18.04.2.09.02.05-.05.13-.08.2Z"/>
    <path class="cls-15" d="m78.7,99.58c.16-.02.31-.04.47-.07-.14.09-.29.18-.43.27-.04-.06-.05-.13-.03-.2Z"/>
    <path class="cls-9" d="m59.62,44.17c-.08-.06-.15-.12-.23-.18.08.06.15.12.23.18Z"/>
    <path class="cls-9" d="m71.17,57.09c.07.07.14.14.21.21-.07-.07-.14-.14-.21-.21Z"/>
    <path class="cls-24" d="m60.63,133.71c1.54,1.26,1.29,4.31-.49,5.22-.62.32-.71.56-.61,1.23.1.6-.19,1.26-.13,2.14.55-.45,1.1-.9,1.65-1.35.1.07.2.14.3.21-1.33,3.02-2.66,6.04-4,9.07-.89-.69-1.68-1.31-2.47-1.93.78-1.96,1.59-3.91,2.32-5.89.66-1.79,1.21-3.61,1.84-5.41.11-.31.24-.72.48-.86,1.02-.57.89-1.5.89-2.42.07,0,.15,0,.22-.01Z"/>
    <path class="cls-24" d="m49.59,159.84c-.02,1.14,0,2.28-.08,3.42-.03.45-.32.89-.49,1.33.48.1.97.2,1.54.32-.02.1,0,.31-.09.46-.92,1.59-1.88,3.16-2.79,4.75-.59,1.02-1.13,2.07-1.72,3.09-.12.2-.37.33-.56.5-.09-.06-.18-.12-.28-.18.11-.26.2-.53.32-.79.18-.37.47-.72.53-1.1.07-.45-.07-.92-.12-1.39-.4.27-.76.59-1.19.79-.75.34-1.53.6-2.29.89.02-.12,0-.3.06-.36,1.62-1.32,2.14-3.31,3.12-5.03,1.29-2.26,2.69-4.46,4.04-6.69Z"/>
    <path class="cls-18" d="m64.65,112.6c.26-.91.52-1.83.77-2.74.23-.25.46-.51.79-.86.16.73.29,1.27.41,1.8-.14.52-.29,1.03-.43,1.55.09.33.18.67.27,1-.02.17-.05.33-.07.5,0,.44-.09.9,0,1.31.08.35.38.66.58.98-.27,1-.54,1.99-.81,2.99-.42.28-.84.57-1.27.85,0-1.03-.02-2.07-.02-3.1-.07-.67-.14-1.34-.21-2.01-.01-.67-.02-1.33-.03-2,0-.09,0-.18.01-.27Z"/>
    <path class="cls-24" d="m63.61,126.16q.94,1.02,2.28-.87c1.26,1.28.32,6.03-1.24,6.73,0-1.1.01-2.25,0-3.39-.02-1.23-.28-1.43-1.5-1.19.15-.43.31-.85.46-1.28Z"/>
    <path class="cls-24" d="m54.39,151.06c1.09.26,2.23,1.7,2.07,2.71-.19-.03-.42,0-.56-.1-.94-.63-1.46-.43-1.84.67-.24.72-.46,1.81-1.72,1.21-.14-1.55.33-2.83,1.64-3.75.21-.14.28-.48.41-.73Z"/>
    <path class="cls-24" d="m64.9,119.99c.42-.28.84-.57,1.27-.85.66.24,1.32.49,1.99.73-.13.24-.21.59-.41.71-1.42.78-2.23,2.01-2.56,3.53-.18.82-.67.83-1.28.81.17-.85.33-1.7.5-2.55.16-.8.33-1.59.5-2.39Z"/>
    <path class="cls-12" d="m60.63,133.71c-.07,0-.15,0-.22.01-.98.01-1.25-.83-1.17-1.43.13-.95.52-1.91,1-2.75.49-.87,1.28-1.18,2.15-.35,0,.08,0,.17,0,.25-.5,1.17-.99,2.35-1.49,3.52-.09.25-.18.5-.27.75Z"/>
    <path class="cls-24" d="m43.34,177.42c.39-.97.61-1.81-.65-2.41-.57-.27-.92-.99-1.38-1.51.01-.19.03-.38.04-.57.16,0,.33,0,.49.01.39.47.46,1.61,1.51.74.99.83,1.31,2.57.74,4.03-.25-.1-.5-.2-.75-.3Z"/>
    <path class="cls-21" d="m56.45,138.99c.62-1.09,1.27-2.15,1-3.51-.02-.1.61-.33.94-.5-.28,1.21-.51,2.44-.88,3.62-.07.22-.69.27-1.05.4Z"/>
    <path class="cls-7" d="m61.58,121.63c.03-2.09.07-4.18.1-6.26-.03,2.09-.07,4.18-.1,6.26Z"/>
    <path class="cls-5" d="m64.67,114.87c.07.67.14,1.34.21,2.01-.07-.67-.14-1.34-.21-2.01Z"/>
    <path class="cls-21" d="m43.35,173.68c-1.05.87-1.11-.27-1.51-.74.17-.09.35-.18.52-.27.33.34.66.67.99,1.01Z"/>
    <path class="cls-22" d="m57.25,131.19c-.13.06-.25.12-.38.18,0,0-.09.03-.09.03-.05-.08-.09-.16-.14-.24.03-.2.06-.4.09-.61v.04c-.03-.22-.06-.43-.09-.65.26.11.51.22.77.32-.05.31-.11.61-.16.92Z"/>
    <path class="cls-3" d="m36.38,169.92c.42.09.84.17,1.25.26-.19.24-.38.48-.58.72-.23-.33-.45-.65-.68-.98Z"/>
    <path class="cls-3" d="m50.62,149.55c.06-.17.13-.34.19-.5-.06.17-.13.34-.19.5Z"/>
    <path class="cls-21" d="m41.35,172.93c-.01.19-.03.38-.04.57-.19-.18-.38-.36-.57-.55.2,0,.4-.01.6-.02Z"/>
    <path class="cls-5" d="m64.65,112.6c0,.09,0,.18-.01.27-.07-.01-.15-.02-.22-.02.08-.08.16-.16.23-.24Z"/>
    <path class="cls-10" d="m72.67,52.53c.42-.01.84-.02,1.26-.03.64,1.38-.5,1.29-1.25,1.53-.08-.08-.16-.16-.24-.24l.23-1.25Z"/>
    <path class="cls-10" d="m80.1,59.63c-1.03-.48-2.07-.96-3.1-1.44.06-.13.11-.27.17-.4,1.04.47,2.09.94,3.13,1.41l-.2.42Z"/>
    <path class="cls-16" d="m70.42,55.8c-.32-.5-.64-1-.95-1.51,1.16-.03.92.82.95,1.51Z"/>
    <path class="cls-9" d="m70.95,56.54c-.26,0-.52,0-.78.01.09-.17.19-.34.28-.52.17.17.33.34.5.5Z"/>
    <path class="cls-16" d="m72.43,53.78c.08.08.16.16.24.24-.08.11-.16.22-.24.33,0-.19,0-.39,0-.58Z"/>
    <path class="cls-7" d="m66.89,96.77c-.05.65-.11,1.3-.16,1.95-.02.82.03,1.65-.11,2.45-.07.4-.47.75-.72,1.12-.01-.17-.03-.34-.04-.51.02-1.75.04-3.5.05-5.26.32.08.65.16.97.24Z"/>
    <path class="cls-14" d="m65.46,56.27c.31.35.63.69.94,1.04-.87.26-1.74.52-2.5-.25.52-.26,1.04-.53,1.56-.79Z"/>
    <path class="cls-14" d="m68.15,119.87c-.66-.24-1.32-.49-1.99-.73.27-1,.54-1.99.81-2.99,0,0,.08-.01.08-.01h.08c-.05,1.14.57,1.83,1.53,2.29-.07.24-.14.47-.21.71-.1.24-.2.49-.3.73Z"/>
    <path class="cls-15" d="m67.14,116.14h-.08s-.08,0-.08,0c-.2-.33-.49-.63-.58-.98-.1-.41-.01-.87,0-1.31.59.51,1.19,1.02,1.96,1.68-.43.21-.83.41-1.22.6Z"/>
    <path class="cls-15" d="m66.47,113.36c-.09-.33-.18-.67-.27-1,.5.22,1.06.43.27,1Z"/>
    <path class="cls-24" d="m68.46,119.14c.07-.24.14-.47.21-.71.25-.1.49-.19.74-.29-.32.33-.64.67-.96,1Z"/>
    <path class="cls-15" d="m77.74,107.84c-.1.18-.2.35-.29.53.1-.18.2-.35.29-.53Z"/>
    <path class="cls-15" d="m79.67,105.06c-.07.11-.14.22-.21.34.07-.11.14-.22.21-.34Z"/>
    <path class="cls-15" d="m79.86,104.83c-.06.07-.11.14-.17.21.06-.07.11-.14.17-.21Z"/>
    <path class="cls-5" d="m61.66,47.38c.26.37.51.74.77,1.11-.02.43-.05.87-.07,1.3-.24,0-.47,0-.71-.01-.31-.1-.63-.2-.94-.3-.1-.66-.2-1.33-.3-1.99.42-.04.84-.07,1.26-.11Z"/>
    <path class="cls-14" d="m61.65,49.79c.24,0,.47,0,.71.01,0,0,.02-.01.02-.01.1.15.2.3.31.45.33.35.66.7.98,1.05-.67.24-1.34.48-2.01.72,0-.74,0-1.47,0-2.21Z"/>
    <path class="cls-14" d="m60.4,47.5c.1.66.2,1.33.3,1.99-1.05-.23-1.29-1.01-1.3-1.94.08-.03.15-.06.23-.09.26.02.51.03.77.05Z"/>
    <path class="cls-20" d="m85.44,216.41c.02.25.03.49.05.74-1.03.1-1.39-.36-1.16-1.48.43.29.77.51,1.11.74Z"/>
    <path class="cls-20" d="m56.63,129.95c.03.22.06.43.09.65,0,0,0-.04,0-.04-.03.2-.06.4-.09.61-.07.1-.14.2-.22.29-.02.08-.03.16-.02.25.13.27.25.54.38.81.03.08,0,.14-.07.18-1.45.68-3.01,1.26-2.82,3.33-.83.75-1.63,1.53-2.49,2.24-.36.3-.85.45-1.29.66-.05-1.25-.88-.9-1.4-.88-.44.67-.77,1.19-1.11,1.7-.75.75-1.51,1.51-2.26,2.26-.08.08-.16.16-.24.25-.59.59-1.17,1.18-1.76,1.76l-.5.24c-.09.08-.18.17-.26.25-.38-.21-.77-.43-1.15-.64.05.46.1.93.15,1.39-.07.18-.13.35-.2.53,0,0-.08-.02-.08-.02-.58.43-1.16.86-1.78,1.33-1.01-.52-2.26.28-2.93,1.99-.09.07-.18.14-.27.21-1.02.26-1.88.32-2.81-.55-.89-.83-2.1-.11-2.28,1.06-.05.3-.64.51-.98.77-.05-.1-.11-.19-.16-.29.18-.69.36-1.37.58-2.23h-2.41c-.52-.58-1.04-1.15-1.56-1.73.2-.29.52-.57.57-.89.1-.62.04-1.27.05-1.9.43-.22.86-.45,1.28-.67.09.02.15-.02.18-.12.09,0,.18,0,.28-.01.25.09.51.18.76.28.16.17.31.33.47.5.17.5.33,1,.5,1.5.69.04,1.43.15,1.28-.95,1.71-.48,3.23-2.13,3.25-3.54-.34-.94-.69-1.87-1.03-2.81.68-.41,1.35-.83,2.03-1.24.26-.23.51-.45.77-.68.43-.44.86-.88,1.29-1.32.95-.13,1.78-.38,1.68-1.61.84-.58,1.61-1.42,2.54-1.68,1.62-.45,2.6-1.54,3.55-2.75.06-.25.12-.51.19-.76.03-.12.04-.33.09-.35,2.18-.43,2.84-2.41,3.96-3.91.42-.24.83-.48,1.25-.72.33.49.67.98,1,1.47-.09.74-.17,1.49-.26,2.23.25.18.5.35.74.53.58,1.25-.48,1.98-1.1,2.59-.76.74-.73,1.32-.43,2.25.29-.18.61-.26.66-.42.41-1.38,1.42-2,2.7-2.42.75-.25.94-1.37.41-1.97-.33-.37-.69-.7-1.03-1.05-.15-.34-.3-.67-.45-1.01.05-.24.21-.65.14-.7-1.04-.66-.49-1.71-.67-2.57,0,0-.01,0-.01,0,.25-.26.51-.51.76-.77,0,0-.01.01-.01.01.17-.27.34-.53.51-.8.23-.41.47-.81.7-1.22.78-.7,2.6.17,2.59-1.73.41-.16.83-.52,1.04.27.06.21.45.32.7.48-.08.59-.16,1.17-.24,1.76-.37,0-.86-.13-1.09.06-.27.22-.43.73-.41,1.09.02.26.42.5.66.74-.36.11-.71.23-1.28.41.4.6.78,1.16,1.15,1.72,0,.33-.01.66-.02,1-.29,0-.58.03-.87,0-.81-.09-1.44.12-1.5,1.03-.06.99.76.88,1.38.99-.26.75.58,1.87-.75,2.27-.17.14-.33.28-.5.42.16.19.32.38.48.57,0,0,0,0,0,0Zm-5,2.62c-.48-.33-.65-.51-.85-.55-.1-.02-.25.22-.38.34.18.17.33.41.55.5.13.05.35-.14.68-.29Zm4.65-11.24c-.07-.03-.15-.1-.2-.08-.05.02-.06.13-.1.2.07.03.15.1.2.08.05-.02.07-.13.1-.2Z"/>
    <path class="cls-16" d="m58.41,123.67c-.38-.56-.75-1.12-1.15-1.72.57-.18.93-.3,1.28-.41-.23-.25-.64-.48-.66-.74-.03-.37.14-.87.41-1.09.23-.19.72-.05,1.09-.06-.1,1.4.47,2.96-.98,4.03Z"/>
    <path class="cls-16" d="m57.4,126.68c-.62-.11-1.44,0-1.38-.99.06-.91.69-1.13,1.5-1.03.29.03.58,0,.87,0-.33.67-.66,1.34-.98,2.02Z"/>
    <path class="cls-22" d="m56.64,129.95c-.16-.19-.32-.38-.48-.57.17-.14.33-.28.5-.42,0,.33-.01.66-.02,1Z"/>
    <path class="cls-22" d="m53.35,121.62c.17.86-.38,1.91.67,2.57.07.05-.09.46-.14.7-.41-.24-.83-.48-1.24-.72-.33-.49-.67-.98-1-1.47.57-.36,1.14-.72,1.71-1.08Z"/>
    <path class="cls-16" d="m57.89,117.13c.02,1.9-1.8,1.03-2.59,1.73.05-.49.11-.98.16-1.47.35-.01.69-.03,1.04-.04.18,0,.37.01.56.02.11-.09.21-.17.32-.26,0,0-.03-.01-.03-.01.18.01.36.03.54.04Z"/>
    <path class="cls-22" d="m54.1,120.86c-.25.26-.51.51-.76.77.25-.26.51-.51.76-.77Z"/>
    <path class="cls-15" d="m56.5,117.34c-.35.01-.69.03-1.04.04.32-.76.66-.73,1.04-.04Z"/>
    <path class="cls-22" d="m54.6,120.07c-.17.27-.34.53-.51.8.17-.27.34-.53.51-.8Z"/>
    <path class="cls-20" d="m57.37,117.1c-.11.09-.21.17-.32.26.11-.09.21-.17.32-.26Z"/>
    <path class="cls-15" d="m89.5,216.89c.17.17.34.34.5.51-.17-.17-.34-.34-.5-.51Z"/>
    <path class="cls-19" d="m91.21,93.75c0,.25,0,.51,0,.76-.26,0-.51,0-.77,0,.25-.25.51-.5.76-.75Z"/>
    <path class="cls-17" d="m51.36,212.89c-.93-.91-.93-1.98,0-2.51,0,.84,0,1.68,0,2.51Z"/>
    <path class="cls-12" d="m63.4,108.85c.17,0,.34-.01.51-.02.16.81.38,1.61.43,2.43.01.18-.6.39-.93.59,0-1,0-2,0-3Z"/>
    <path class="cls-24" d="m60.89,132.96c.5-1.17.99-2.35,1.49-3.52,1.36.6,1.52,1.01.89,2.32-.09.18-.15.38-.2.58-.24.88-.57,1.52-1.58.7-.13-.11-.4-.06-.6-.09Z"/>
    <path class="cls-24" d="m50.98,164.06c-.13-1.17-.46-2.24.84-2.96.3-.17.4-.72.57-1.11.19-.44.34-.89.58-1.53.85.79.86,1.39.26,2.12-.22.26-.29.65-.41.98-.08.22-.07.51-.21.67-.48.59-1,1.13-1.63,1.84Z"/>
    <path class="cls-24" d="m56.22,154.8c-.66.72-1.19,1.3-1.92,2.1.07-1.52.8-2.27,1.92-2.1Z"/>
    <path class="cls-24" d="m61.08,139.27c.11-.06.25-.17.29-.14.1.07.17.2.21.32.01.04-.15.12-.23.18-.06-.08-.13-.17-.27-.36Z"/>
    <path class="cls-24" d="m63.6,134.44c-.12.1-.19.21-.27.22-.1.01-.2-.07-.3-.11.08-.1.15-.23.26-.29.05-.03.17.09.32.17Z"/>
    <path class="cls-24" d="m63.31,136.42c-.03.07-.05.18-.09.2-.05.02-.13-.05-.2-.08.03-.07.04-.18.09-.2.05-.02.13.05.2.08Z"/>
    <path class="cls-24" d="m66.81,123.99c-.07.03-.16.09-.21.07-.05-.02-.06-.13-.09-.2.07-.03.16-.09.21-.07.05.02.06.13.09.2Z"/>
    <path class="cls-15" d="m40.35,178.21c.34-1.17,1.03-1.31,2.49-.51.21.77.41,1.54.66,2.48-1.55-.3-1.69-2.15-3.15-1.98Z"/>
    <path class="cls-3" d="m52.32,140.99c.59.69.17.9-.47,1.02.16-.34.31-.68.47-1.02Z"/>
    <path class="cls-3" d="m50.63,141.03c.17-.09.33-.18.5-.26-.17.09-.33.18-.5.26Z"/>
    <path class="cls-3" d="m48.11,149.8c-.07.08-.14.17-.2.25.07-.08.14-.17.2-.25Z"/>
    <path class="cls-3" d="m36.83,167.38l-.21.27.21-.27Z"/>
    <path class="cls-22" d="m30.25,150.58c.34-.25.94-.47.98-.77.18-1.17,1.39-1.9,2.28-1.06.93.87,1.79.8,2.81.55-.16.25-.33.5-.49.76-.25.33-.51.65-.76.98-.19.19-.39.38-.58.57-.07.03-.12.08-.15.15,0,0-.07.07-.07.07-1.16.02-2.31.04-3.47.05,0,0-.05-.04-.05-.04-.06-.08-.12-.15-.18-.23-.08-.04-.16-.09-.24-.13-.03-.3-.06-.6-.09-.9Z"/>
    <path class="cls-22" d="m36.6,149.09c.67-1.71,1.91-2.5,2.93-1.99.62-.46,1.2-.89,1.78-1.33.01.25.02.5.03.74-.45.59-.9,1.17-1.34,1.76-.05-.1-.1-.19-.15-.29-.44.15-.88.3-1.32.44-.64.22-1.29.44-1.93.65Z"/>
    <path class="cls-16" d="m29.82,143.02c-.25-.09-.51-.18-.76-.28.59-.55,1.22-.96,1.35-1.97.07-.57.92-1.08,1.5-1.52.48-.37,1.07-.6,1.62-.89.19.36.37.72.56,1.08-.81.49-1.58,1.11-2.45,1.45-1.05.4-1.32,1.14-1.35,2.12-.15,0-.3,0-.46,0Z"/>
    <path class="cls-15" d="m43.35,144.03c.59-.59,1.17-1.18,1.76-1.76.08-.08.16-.16.24-.25.75-.75,1.51-1.51,2.26-2.26.19.01.37.02.56.03-.01.15-.02.31-.04.46-.1.09-.2.17-.29.26-.1.08-.19.16-.29.23-.99,1.01-1.99,2.02-2.98,3.04-.09.08-.18.15-.28.23-.07.08-.15.17-.22.25-.22.26-.44.52-.65.78-.05.06-.09.14-.1.22-.4-.08-.8-.15-1.21-.23.16-.17.31-.33.47-.5.09-.08.18-.17.26-.25.17-.08.33-.16.5-.24Z"/>
    <path class="cls-3" d="m36.6,149.09c.64-.22,1.29-.44,1.93-.65.44-.15.88-.3,1.32-.44.05.1.1.19.15.29.45-.59.9-1.17,1.34-1.76.06.36.11.73.2,1.29-1.85.79-3.53,2.1-5.7,2.25.16-.25.33-.5.49-.76.09-.07.18-.14.27-.21Z"/>
    <path class="cls-22" d="m53.89,136.02c-.19-2.08,1.37-2.66,2.82-3.33-.11.2-.22.4-.33.6-.34.64-.68,1.29-1.02,1.94-.49.27-.98.53-1.47.8Z"/>
    <path class="cls-22" d="m28.26,148.07h2.41c-.22.86-.4,1.54-.58,2.23-.11-.08-.21-.16-.32-.24-.14-.19-.29-.38-.43-.56-.36-.47-.72-.95-1.08-1.42Z"/>
    <path class="cls-18" d="m30.81,151.88c1.16-.02,2.31-.04,3.47-.05-.8.97-1.54,1.02-3.44.22-.01-.06-.03-.11-.04-.17Z"/>
    <path class="cls-22" d="m48.17,139.78c-.19-.01-.37-.02-.56-.03.33-.51.67-1.03,1.11-1.7.52-.03,1.35-.37,1.4.88-.25.1-.51.2-.76.29-.39.19-.79.37-1.18.56Z"/>
    <path class="cls-22" d="m27.32,143.55c0,.64.05,1.28-.05,1.9-.05.32-.37.59-.57.89-.06-.01-.12-.03-.18-.05-.07-.1-.13-.21-.2-.31-.07-.98-.12-1.94,1-2.43Z"/>
    <path class="cls-2" d="m40.84,128.9c.09-.32.17-.64.26-.96.59,0,1.18,0,1.77.01-.34.5-.68.99-1.02,1.49h-.74s0,0,0,0c-.09-.18-.18-.36-.27-.53Z"/>
    <path class="cls-3" d="m39.34,130.44c.33-.33.66-.67.99-1,.26,0,.53,0,.79,0,0,0,0,0,0,0,0,.17,0,.35-.01.52-.58.42-1.17.84-1.75,1.26v-.77Z"/>
    <path class="cls-22" d="m34.08,139.45c-.19-.36-.37-.72-.56-1.08.26-.22.51-.43.77-.65.34.94.69,1.87,1.03,2.81-.41-.36-.83-.72-1.24-1.07Z"/>
    <path class="cls-3" d="m42.12,145.02c.4.08.8.15,1.21.23-.24,1.64-1.26.48-1.94.55.07-.18.13-.35.2-.53.18-.08.36-.17.54-.25Z"/>
    <path class="cls-22" d="m40.06,132.87c.1,1.23-.73,1.48-1.68,1.61.56-.54,1.12-1.07,1.68-1.61Z"/>
    <path class="cls-3" d="m55.36,135.22c.34-.65.68-1.29,1.02-1.94-.03.81.11,1.71-1.02,1.94Z"/>
    <path class="cls-19" d="m39.34,130.44v.77s0,0,0,0c-.17.08-.33.17-.5.25-.17,0-.33,0-.5,0-.09-.17-.17-.35-.26-.52.42-.16.84-.33,1.26-.49Z"/>
    <path class="cls-19" d="m34.07,133.94c.34-.07.68-.14,1.02-.21-.16.24-.31.47-.47.71-.18-.17-.37-.34-.55-.51Z"/>
    <path class="cls-3" d="m48.17,139.78c.39-.19.79-.37,1.18-.56-.41.34-.81.68-1.22,1.02.01-.15.02-.31.04-.46Z"/>
    <path class="cls-22" d="m56.79,132.51c-.13-.27-.25-.54-.38-.81.16.09.31.19.47.28-.03.18-.06.35-.09.53Z"/>
    <path class="cls-3" d="m43.43,145.03c.22-.26.44-.52.65-.78-.22.26-.44.52-.65.78Z"/>
    <path class="cls-22" d="m46.34,127.67c-.06.25-.12.51-.19.76.06-.25.12-.51.19-.76Z"/>
    <path class="cls-19" d="m41.1,129.95c0-.17,0-.35.01-.52h.74c-.25.18-.5.35-.75.52Z"/>
    <path class="cls-22" d="m37.09,135.8c-.26.23-.51.45-.77.68.26-.23.51-.45.77-.68Z"/>
    <path class="cls-3" d="m38.08,130.93c.09.17.17.35.26.52-.25-.09-.51-.18-.76-.27.17-.08.33-.17.5-.25Z"/>
    <path class="cls-3" d="m34.5,151.61c.19-.19.39-.38.58-.57-.19.24-.39.49-.58.73.02-.05.02-.11,0-.16Z"/>
    <path class="cls-3" d="m27.56,140.04c.16-.02.33-.05.49-.07-.09.14-.18.29-.26.43-.08-.12-.15-.24-.23-.36Z"/>
    <path class="cls-3" d="m38.84,131.46c.17-.08.33-.17.5-.25-.17.08-.33.17-.5.25Z"/>
    <path class="cls-3" d="m28.36,138.49c.15-.15.31-.31.46-.46-.15.15-.31.31-.46.46Z"/>
    <path class="cls-3" d="m29.32,138.04l.5-.06c-.09.14-.18.28-.27.42-.07-.12-.15-.24-.22-.36Z"/>
    <path class="cls-3" d="m56.88,131.98c-.16-.09-.31-.19-.47-.28-.01-.08,0-.17.02-.25.12-.02.24-.04.36-.05,0,0,.09-.03.09-.03,0,.2,0,.41,0,.61Z"/>
    <path class="cls-3" d="m29.34,149.49c.14.19.29.38.43.56-.15-.19-.29-.38-.43-.56Z"/>
    <path class="cls-3" d="m47.56,140.73c.1-.08.19-.16.29-.23-.1.08-.19.16-.29.23Z"/>
    <path class="cls-3" d="m28.78,142.76c-.03.1-.09.14-.18.12.05-.05.11-.09.18-.12Z"/>
    <path class="cls-3" d="m44.3,143.99c.09-.08.18-.15.28-.23-.09.08-.18.15-.28.23Z"/>
    <path class="cls-3" d="m26.33,145.98c.07.1.13.21.2.31-.07-.1-.13-.21-.2-.31Z"/>
    <path class="cls-3" d="m30.35,151.48c.08.04.16.09.24.13,0,.06,0,.13,0,.19l-.02.03c-.07-.12-.14-.23-.21-.35Z"/>
    <path class="cls-18" d="m34.5,151.61c.02.05.02.11,0,.16,0,0-.07,0-.07,0,0,0-.07-.01-.07-.01.03-.07.08-.12.15-.15Z"/>
    <path class="cls-3" d="m30.81,151.88c.01.06.02.11.04.17-.1-.07-.19-.14-.29-.22,0,0,.02-.03.02-.03.06,0,.12.02.18.03l.05.04Z"/>
    <path class="cls-5" d="m62.68,50.23c-.1-.15-.2-.3-.31-.45.1.15.2.3.31.45Z"/>
    <path class="cls-1" d="m56.73,130.55s0,.04,0,.04c0,0,0-.04,0-.04Z"/>
    <path class="cls-23" d="m56.78,131.4c-.12.02-.24.04-.36.05.07-.1.14-.2.22-.29.05.08.09.16.14.24Z"/>
    <path class="cls-10" d="m34.08,139.45c.41.36.83.72,1.24,1.07-.01,1.4-1.53,3.06-3.25,3.54-.43.32-.86.63-1.28.95-.17-.5-.33-1-.5-1.5,0-.17-.01-.33-.02-.5.03-.98.3-1.71,1.35-2.12.87-.34,1.64-.96,2.45-1.45Z"/>
    <path class="cls-16" d="m54.33,125.9c.35.35.71.69,1.03,1.05.53.6.34,1.73-.41,1.97-1.28.42-2.29,1.04-2.7,2.42-.05.16-.37.24-.66.42-.3-.93-.33-1.51.43-2.25.62-.6,1.68-1.33,1.1-2.59,0-.16,0-.32,0-.48.4-.18.8-.37,1.2-.55Z"/>
    <path class="cls-10" d="m54.33,125.9c-.4.18-.8.37-1.2.55-.25-.01-.5-.03-.74-.04.09-.74.17-1.49.26-2.23.41.24.83.48,1.24.72.15.34.3.67.45,1.01Z"/>
    <path class="cls-22" d="m42.12,145.02c-.18.08-.36.17-.54.25-.05-.46-.1-.93-.15-1.39.38.21.77.43,1.15.64-.16.17-.31.33-.47.5Z"/>
    <path class="cls-22" d="m30.79,145.02c.43-.32.86-.63,1.28-.95.15,1.1-.59.99-1.28.95Z"/>
    <path class="cls-16" d="m51.63,132.57c-.33.15-.55.34-.68.29-.21-.09-.37-.32-.55-.5.13-.12.28-.36.38-.34.2.04.37.22.85.55Z"/>
    <path class="cls-22" d="m52.38,126.41c.25.01.5.03.74.04,0,.16,0,.32,0,.48-.25-.18-.5-.35-.74-.53Z"/>
    <path class="cls-16" d="m56.29,121.33c-.03.07-.05.18-.1.2-.05.02-.13-.05-.2-.08.03-.07.05-.18.1-.2.05-.02.13.05.2.08Z"/>
    <path class="cls-22" d="m30.28,143.02c0,.17.01.33.02.5-.16-.17-.31-.33-.47-.5.15,0,.3,0,.46,0Z"/>
    <path class="cls-22" d="m43.35,144.03c-.17.08-.33.16-.5.24.17-.08.33-.16.5-.24Z"/>
    <path class="cls-22" d="m45.36,142.02c-.08.08-.16.16-.24.25.08-.08.16-.16.24-.25Z"/>
    <path class="cls-19" d="m41.11,129.43c-.26,0-.53,0-.79,0,.17-.18.35-.36.52-.54.09.18.18.36.27.53Z"/>
    <path class="cls-18" d="m30.76,151.84c-.06-.02-.12-.03-.18-.03,0-.07,0-.13,0-.19.06.08.12.15.18.23Z"/>
  </g>
  <path class="cls-13" d="m49.55,121.56c-.76,1.13-2.21,1.55-3.26,2.42-.57.48-1.02,1.08-1.5,1.65-2.45,2.93-5.72,5.02-8.74,7.35-.37.29-.74.58-1.09.89-1.14,1.02-2.1,2.27-3.4,3.08"/>
  <path class="cls-13" d="m29.57,150.58c.15.22.14.5.23.75.09.26.26.47.45.67,1.22,1.22,3.3,1.47,4.77.56.09-.05.17-.11.23-.19.09-.11.13-.24.17-.37.11-.37.22-.75.34-1.12-2.21.48-4.46.77-6.71.86"/>
  <path class="cls-13" d="m75.8,69.05c-.17,1.25-.15,2.52-.14,3.78,0,.38.01.77.15,1.12.13.33.38.61.43.96"/>
  <path class="cls-13" d="m48.68,39.1c.11.77.16,1.55.17,2.33,0,.25,0,.51-.08.74-.09.28-.28.51-.46.74-.38.48-.79.97-1.37,1.18"/>
  <path class="cls-13" d="m50.36,40.13c-.33,1.31-.82,2.59-1.43,3.8"/>
  <path class="cls-13" d="m79.64,95.95h-.33"/>
  <path class="cls-13" d="m78.46,96.1c1.21-.31,2.37-.81,3.42-1.49"/>
</svg>